<svg xmlns="http://www.w3.org/2000/svg" xmlns:xlink="http://www.w3.org/1999/xlink" width="1920" height="1295" viewBox="0 0 1920 1295">
  
  <style type="text/css">
    .st0{fill:none;}
    .st1{fill:none;stroke:#fff;stroke-width:3;stroke-miterlimit:10;}
    .st2{fill:none;stroke:#fff;stroke-width:3;stroke-miterlimit:10;stroke-dasharray:10,5;}

    .st3{fill:none;stroke:#fff;stroke-width:3;stroke-miterlimit:10;stroke-dasharray:10,5;}
    .st4{fill:none;stroke:#fff;stroke-width:3;stroke-miterlimit:10;stroke-dasharray:10,5;}

    .st5{fill:none;stroke:#fff;stroke-width:3;stroke-miterlimit:10;stroke-dasharray:10,5;}
    .st6{display:none;}
    .s {}
    .s1 {fill: none; stroke:#fff;stroke-width:2}
       
    .Text_box {    font-family: 'Montserrat', sans-serif; }
    /*stroke-dasharray:10,3*/
  </style>
  <circle cx="270" cy="502" r="11" class="s1" transform="matrix(1 0 0 1 0 0)"/>
  <circle cx="270" cy="502" r="6" class="s" fill="#fff" transform="matrix(1 0 0 1 0 0)"/>
  <circle cx="270" cy="502" r="11" class="s1" transform="matrix(1 0 0 1 569.652 -18.934)"/>
  <circle cx="270" cy="502" r="6" class="s" fill="#fff" transform="matrix(1 0 0 1 569.653 -18.934)"/>
  <circle cx="270" cy="502" r="11" class="s1" transform="matrix(1 0 0 1 569.652 -18.934)"/>
  <circle cx="270" cy="502" r="6" class="s" fill="#fff" transform="matrix(1 0 0 1 569.652 -18.934)"/>
  <circle cx="270" cy="502" r="11" class="s1" transform="matrix(1 0 0 1 569.652 -18.934)"/>
  <circle cx="270" cy="502" r="6" class="s" fill="#fff" transform="matrix(1 0 0 1 569.652 -18.934)"/>
  <circle cx="270" cy="502" r="11" class="s1" transform="matrix(1 0 0 1 569.652 -18.934)"/>
  <circle cx="270" cy="502" r="6" class="s" fill="#fff" transform="matrix(1 0 0 1 569.652 -18.934)"/>
  <circle cx="270" cy="502" r="11" class="s1" transform="matrix(1 0 0 1 388.24 43.3896)"/>
  <circle cx="270" cy="502" r="6" class="s" fill="#fff" transform="matrix(1 0 0 1 388.24 43.3896)"/>
  <circle cx="270" cy="502" r="11" class="s1" transform="matrix(1 0 0 1 388.24 43.3896)"/>
  <circle cx="270" cy="502" r="6" class="s" fill="#fff" transform="matrix(1 0 0 1 388.24 43.3896)"/>
  <circle cx="270" cy="502" r="11" class="s1" transform="matrix(1 0 0 1 388.24 43.3896)"/>
  <circle cx="270" cy="502" r="6" class="s" fill="#fff" transform="matrix(1 0 0 1 388.24 43.3896)"/>
  <circle cx="270" cy="502" r="11" class="s1" transform="matrix(1 0 0 1 388.24 43.3896)"/>
  <circle cx="270" cy="502" r="6" class="s" fill="#fff" transform="matrix(1 0 0 1 388.24 43.3896)"/>
  <circle cx="270" cy="502" r="11" class="s1" transform="matrix(1 0 0 1 984.915 -221.508)"/>
  <circle cx="270" cy="502" r="6" class="s" fill="#fff" transform="matrix(1 0 0 1 984.915 -221.508)"/>
  <circle cx="270" cy="502" r="11" class="s1" transform="matrix(1 0 0 1 984.915 -221.508)"/>
  <circle cx="270" cy="502" r="6" class="s" fill="#fff" transform="matrix(1 0 0 1 984.915 -221.508)"/>
  <circle cx="270" cy="502" r="11" class="s1" transform="matrix(1 0 0 1 984.915 -221.508)"/>
  <circle cx="270" cy="502" r="6" class="s" fill="#fff" transform="matrix(1 0 0 1 984.915 -221.508)"/>
  <circle cx="270" cy="502" r="11" class="s1" transform="matrix(1 0 0 1 984.915 -221.508)"/>
  <circle cx="270" cy="502" r="6" class="s" fill="#fff" transform="matrix(1 0 0 1 984.915 -221.508)"/>
  <circle cx="270" cy="502" r="11" class="s1" transform="matrix(1 0 0 1 798.588 -138.876)"/>
  <circle cx="270" cy="502" r="6" class="s" fill="#fff" transform="matrix(1 0 0 1 798.588 -138.876)"/>
  <circle cx="270" cy="502" r="11" class="s1" transform="matrix(1 0 0 1 798.588 -138.876)"/>
  <circle cx="270" cy="502" r="6" class="s" fill="#fff" transform="matrix(1 0 0 1 798.588 -138.876)"/>
  <circle cx="270" cy="502" r="11" class="s1" transform="matrix(1 0 0 1 798.588 -138.876)"/>
  <circle cx="270" cy="502" r="6" class="s" fill="#fff" transform="matrix(1 0 0 1 798.588 -138.876)"/>
  <circle cx="270" cy="502" r="11" class="s1" transform="matrix(1 0 0 1 798.588 -138.876)"/>
  <circle cx="270" cy="502" r="6" class="s" fill="#fff" transform="matrix(1 0 0 1 798.588 -138.876)"/>
  <circle cx="270" cy="502" r="11" class="s1" transform="matrix(1 0 0 1 1245.6 -167.686)"/>
  <circle cx="270" cy="502" r="6" class="s" fill="#fff" transform="matrix(1 0 0 1 1245.6 -167.686)"/>
  <circle cx="270" cy="502" r="11" class="s1" transform="matrix(1 0 0 1 1245.6 -167.686)"/>
  <circle cx="270" cy="502" r="6" class="s" fill="#fff" transform="matrix(1 0 0 1 1245.6 -167.686)"/>
  <circle cx="270" cy="502" r="11" class="s1" transform="matrix(1 0 0 1 1245.6 -167.686)"/>
  <circle cx="270" cy="502" r="6" class="s" fill="#fff" transform="matrix(1 0 0 1 1245.6 -167.686)"/>
  <circle cx="270" cy="502" r="11" class="s1" transform="matrix(1 0 0 1 1245.6 -167.686)"/>
  <circle cx="270" cy="502" r="6" class="s" fill="#fff" transform="matrix(1 0 0 1 1245.6 -167.686)"/>
  <circle cx="270" cy="502" r="11" class="s1" transform="matrix(1 0 0 1 971.414 307.942)"/>
  <circle cx="270" cy="502" r="6" class="s" fill="#fff" transform="matrix(1 0 0 1 971.414 307.942)"/>
  <circle cx="270" cy="502" r="11" class="s1" transform="matrix(1 0 0 1 971.414 307.942)"/>
  <circle cx="270" cy="502" r="6" class="s" fill="#fff" transform="matrix(1 0 0 1 971.414 307.942)"/>
  <circle cx="270" cy="502" r="11" class="s1" transform="matrix(1 0 0 1 971.414 307.942)"/>
  <circle cx="270" cy="502" r="6" class="s" fill="#fff" transform="matrix(1 0 0 1 971.414 307.942)"/>
  <circle cx="270" cy="502" r="11" class="s1" transform="matrix(1 0 0 1 971.414 307.942)"/>
  <circle cx="270" cy="502" r="6" class="s" fill="#fff" transform="matrix(1 0 0 1 971.414 307.942)"/>
  <circle cx="270" cy="502" r="11" class="s1" transform="matrix(1 0 0 1 1248.59 274.548)"/>
  <circle cx="270" cy="502" r="6" class="s" fill="#fff" transform="matrix(1 0 0 1 1248.59 274.548)"/>
  <circle cx="270" cy="502" r="11" class="s1" transform="matrix(1 0 0 1 1248.59 274.548)"/>
  <circle cx="270" cy="502" r="6" class="s" fill="#fff" transform="matrix(1 0 0 1 1248.59 274.548)"/>
  <circle cx="270" cy="502" r="11" class="s1" transform="matrix(1 0 0 1 1248.59 274.548)"/>
  <circle cx="270" cy="502" r="6" class="s" fill="#fff" transform="matrix(1 0 0 1 1248.59 274.548)"/>
  <circle cx="270" cy="502" r="11" class="s1" transform="matrix(1 0 0 1 1248.59 274.548)"/>
  <circle cx="270" cy="502" r="6" class="s" fill="#fff" transform="matrix(1 0 0 1 1248.59 274.548)"/>
  <circle cx="270" cy="502" r="11" class="s1" transform="matrix(1 0 0 1 675.875 269.538)"/>
  <circle cx="270" cy="502" r="6" class="s" fill="#fff" transform="matrix(1 0 0 1 675.875 269.538)"/>
  <circle cx="270" cy="502" r="11" class="s1" transform="matrix(1 0 0 1 675.875 269.538)"/>
  <circle cx="270" cy="502" r="6" class="s" fill="#fff" transform="matrix(1 0 0 1 675.875 269.538)"/>
  <circle cx="270" cy="502" r="11" class="s1" transform="matrix(1 0 0 1 675.875 269.538)"/>
  <circle cx="270" cy="502" r="6" class="s" fill="#fff" transform="matrix(1 0 0 1 675.875 269.538)"/>
  <circle cx="270" cy="502" r="11" class="s1" transform="matrix(1 0 0 1 675.875 269.538)"/>
  <circle cx="270" cy="502" r="6" class="s" fill="#fff" transform="matrix(1 0 0 1 675.875 269.538)"/>
  <circle cx="270" cy="502" r="11" class="s1" transform="matrix(1 0 0 1 718.476 760.049)"/>
  <circle cx="270" cy="502" r="6" class="s" fill="#fff" transform="matrix(1 0 0 1 718.476 760.049)"/>
  <circle cx="270" cy="502" r="11" class="s1" transform="matrix(1 0 0 1 718.476 760.049)"/>
  <circle cx="270" cy="502" r="6" class="s" fill="#fff" transform="matrix(1 0 0 1 718.476 760.049)"/>
  <circle cx="270" cy="502" r="11" class="s1" transform="matrix(1 0 0 1 718.476 760.049)"/>
  <circle cx="270" cy="502" r="6" class="s" fill="#fff" transform="matrix(1 0 0 1 718.476 760.049)"/>
  <circle cx="270" cy="502" r="11" class="s1" transform="matrix(1 0 0 1 718.476 760.049)"/>
  <circle cx="270" cy="502" r="6" class="s" fill="#fff" transform="matrix(1 0 0 1 718.476 760.049)"/>
  <circle cx="270" cy="502" r="11" class="s1" transform="matrix(1 0 0 1 1350.44 82.5305)"/>
  <circle cx="270" cy="502" r="6" class="s" fill="#fff" transform="matrix(1 0 0 1 1350.44 82.5305)"/>
  <circle cx="270" cy="502" r="11" class="s1" transform="matrix(1 0 0 1 1350.44 82.5305)"/>
  <circle cx="270" cy="502" r="6" class="s" fill="#fff" transform="matrix(1 0 0 1 1350.44 82.5305)"/>
  <circle cx="270" cy="502" r="11" class="s1" transform="matrix(1 0 0 1 1350.44 82.5305)"/>
  <circle cx="270" cy="502" r="6" class="s" fill="#fff" transform="matrix(1 0 0 1 1350.44 82.5305)"/>
  <circle cx="270" cy="502" r="11" class="s1" transform="matrix(1 0 0 1 1350.44 82.5305)"/>
  <circle cx="270" cy="502" r="6" class="s" fill="#fff" transform="matrix(1 0 0 1 1350.44 82.5305)"/>
  <circle cx="270" cy="502" r="11" class="s1" transform="matrix(1 0 0 1 268.473 252.675)"/>
  <circle cx="270" cy="502" r="6" class="s" fill="#fff" transform="matrix(1 0 0 1 268.473 252.675)"/>
  <circle cx="270" cy="502" r="11" class="s1" transform="matrix(1 0 0 1 268.473 252.675)"/>
  <circle cx="270" cy="502" r="6" class="s" fill="#fff" transform="matrix(1 0 0 1 268.473 252.675)"/>
  <circle cx="270" cy="502" r="11" class="s1" transform="matrix(1 0 0 1 268.473 252.675)"/>
  <circle cx="270" cy="502" r="6" class="s" fill="#fff" transform="matrix(1 0 0 1 268.473 252.675)"/>
  <circle cx="270" cy="502" r="11" class="s1" transform="matrix(1 0 0 1 268.473 252.675)"/>
  <circle cx="270" cy="502" r="6" class="s" fill="#fff" transform="matrix(1 0 0 1 268.473 252.675)"/>
  <circle cx="270" cy="502" r="11" class="s1" transform="matrix(1 0 0 1 21.4677 487.757)"/>
  <circle cx="270" cy="502" r="6" class="s" fill="#fff" transform="matrix(1 0 0 1 21.4677 487.757)"/>
  <circle cx="270" cy="502" r="11" class="s1" transform="matrix(1 0 0 1 21.4677 487.757)"/>
  <circle cx="270" cy="502" r="6" class="s" fill="#fff" transform="matrix(1 0 0 1 21.4677 487.757)"/>
  <circle cx="270" cy="502" r="11" class="s1" transform="matrix(1 0 0 1 21.4677 487.757)"/>
  <circle cx="270" cy="502" r="6" class="s" fill="#fff" transform="matrix(1 0 0 1 21.4677 487.757)"/>
  <circle cx="270" cy="502" r="11" class="s1" transform="matrix(1 0 0 1 21.4677 487.757)"/>
  <circle cx="270" cy="502" r="6" class="s" fill="#fff" transform="matrix(1 0 0 1 21.4677 487.757)"/>
  <circle cx="270" cy="502" r="11" class="s1" transform="matrix(1 0 0 1 325.245 763.21)"/>
  <circle cx="270" cy="502" r="6" class="s" fill="#fff" transform="matrix(1 0 0 1 325.245 763.21)"/>
  <circle cx="270" cy="502" r="11" class="s1" transform="matrix(1 0 0 1 325.245 763.21)"/>
  <circle cx="270" cy="502" r="6" class="s" fill="#fff" transform="matrix(1 0 0 1 325.245 763.21)"/>
  <circle cx="270" cy="502" r="11" class="s1" transform="matrix(1 0 0 1 325.245 763.21)"/>
  <circle cx="270" cy="502" r="6" class="s" fill="#fff" transform="matrix(1 0 0 1 325.245 763.21)"/>
  <circle cx="270" cy="502" r="11" class="s1" transform="matrix(1 0 0 1 325.245 763.21)"/>
  <circle cx="270" cy="502" r="6" class="s" fill="#fff" transform="matrix(1 0 0 1 325.245 763.21)"/>
  <g id="Слой_1" transform="matrix(1 0 0 1 0 0)">
    <g transform="matrix(1 0 0 1 0 0)">
      <g transform="matrix(1 0 0 1 0 0)">
        <path class="st0" d="M 3.2 195.7 C 3.2 195.7 154.1 597.5 565.2 558.7 C 976.3000000000001 519.9000000000001 1180.6 172.00000000000006 1444.2 295.70000000000005 C 1626.8 358.00000000000006 1712.6 696.4000000000001 1479.2 796.2 C 1245.8 896 383.9000000000001 545.4000000000001 300.20000000000005 934.7 C 216.50000000000006 1324.1 868.1 1323.3000000000002 1067.2 1235.7 C 1537.3000000000002 1031.7 1855.7 1112.3 2022.2 1393.7 C 2188.7 1675.1 312.20000000000005 1481.7 312.20000000000005 1481.7 L -54.799999999999955 1431.7 L 3.2 195.7 Z" transform="matrix(1 0 0 1 0 0)"/>
        <g transform="matrix(1 0 0 1 0 0)">
          <g transform="matrix(1 0 0 1 0 0)">
            <path class="st1" d="M 2.9 201.7 L 3.1999999999999997 195.7 C 3.1999999999999997 195.7 3.8999999999999995 197.6 5.4 201.29999999999998" transform="matrix(1 0 0 1 0 0)"/>
            <path class="st2" d="M 10.2 212.3 C 15.399999999999999 223.8 23.5 240.60000000000002 34.8 260.7" transform="matrix(1 0 0 1 0 0)"/>
            <path class="st3" d="M 39.8 269.5 C 106 383.5 267.3 586.8 565.1999999999999 558.7 C 976.3 519.9000000000001 1180.6 172.00000000000006 1444.1999999999998 295.70000000000005 C 1626.7999999999997 358.00000000000006 1712.6 696.4000000000001 1479.1999999999998 796.2 C 1245.7999999999997 896 383.9 545.3 300.2 934.7 C 216.5 1324.1 868.0999999999999 1323.3000000000002 1067.2 1235.7 C 1537.3000000000002 1031.7 1855.7 1112.3 2022.2 1393.7 C 2188.7 1675.1 312.20000000000005 1481.7 312.20000000000005 1481.7 L -38.89999999999998 1433.9" transform="matrix(1 0 0 1 0 0)"/>
            <path d="M -51 1349.5 L 2.4000000953674316 211.6999969482422" transform="matrix(1 0 0 1 0 0)"/>
          </g>
        </g>
      </g>
    </g>
  </g>
  <g id="Слой_1" transform="matrix(1 0 0 1 0 0)">
    <g transform="matrix(1 0 0 1 0 0)">
      <g transform="matrix(1 0 0 1 0 0)">
        <path class="st0" d="M 3.2 195.7 C 3.2 195.7 154.1 597.5 565.2 558.7 C 976.3000000000001 519.9000000000001 1180.6 172.00000000000006 1444.2 295.70000000000005 C 1626.8 358.00000000000006 1712.6 696.4000000000001 1479.2 796.2 C 1245.8 896 383.9000000000001 545.4000000000001 300.20000000000005 934.7 C 216.50000000000006 1324.1 868.1 1323.3000000000002 1067.2 1235.7 C 1537.3000000000002 1031.7 1855.7 1112.3 2022.2 1393.7 C 2188.7 1675.1 312.20000000000005 1481.7 312.20000000000005 1481.7 L -54.799999999999955 1431.7 L 3.2 195.7 Z" transform="matrix(1 0 0 1 0 0)"/>
        <g transform="matrix(1 0 0 1 0 0)">
          <g transform="matrix(1 0 0 1 0 0)">
            <path class="st1" d="M 2.9 201.7 L 3.1999999999999997 195.7 C 3.1999999999999997 195.7 3.8999999999999995 197.6 5.4 201.29999999999998" transform="matrix(1 0 0 1 0 0)"/>
            <path class="st2" d="M 10.2 212.3 C 15.399999999999999 223.8 23.5 240.60000000000002 34.8 260.7" transform="matrix(1 0 0 1 0 0)"/>
            <path class="st3" d="M 39.8 269.5 C 106 383.5 267.3 586.8 565.1999999999999 558.7 C 976.3 519.9000000000001 1180.6 172.00000000000006 1444.1999999999998 295.70000000000005 C 1626.7999999999997 358.00000000000006 1712.6 696.4000000000001 1479.1999999999998 796.2 C 1245.7999999999997 896 383.9 545.3 300.2 934.7 C 216.5 1324.1 868.0999999999999 1323.3000000000002 1067.2 1235.7 C 1537.3000000000002 1031.7 1855.7 1112.3 2022.2 1393.7 C 2188.7 1675.1 312.20000000000005 1481.7 312.20000000000005 1481.7 L -38.89999999999998 1433.9" transform="matrix(1 0 0 1 0 0)"/>
            <path d="M -51 1349.5 L 2.4000000953674316 211.6999969482422" transform="matrix(1 0 0 1 0 0)"/>
          </g>
        </g>
      </g>
    </g>
  </g>
  <text controller-class="Text_box" transform="matrix(1 0 0 1 284.578 444.534)" width="137.70718383789062" height="57.859375" 
        font-family="segoe ui" font-size="32" font-style="" text-align="left" text-anchor="start" fill="#fff" 
        stroke="none" stroke-width="1" stroke-linecap="butt" stroke-linejoin="miter" opacity="1" style="" font-weight="700">
    <tspan x="0" y="42" newline=""><![CDATA[2008]]></tspan>
  </text>
  <text controller-class="Text_box" transform="matrix(1 0 0 1 285.736 393.617)" width="192.095703125" height="53.21875" 
        font-family="segoe ui" font-size="16" font-style="regular" text-align="left" text-anchor="start" fill="#fff" 
        stroke="none" stroke-width="1.00" stroke-linecap="butt" stroke-linejoin="miter" opacity="1" style="">
    <tspan x="0" y="20" newline=""><![CDATA[The idea of]]></tspan>
    <tspan x="0" y="46.609375" newline=""><![CDATA[ microcomputer]]></tspan>
  </text>
  <text controller-class="Text_box" transform="matrix(1 0 0 1 659.501 553.882)" width="137.70718383789062" height="57.453125" 
        font-family="segoe ui" font-size="32" font-style="" text-align="left" text-anchor="start" fill="#fff" 
        stroke="none" stroke-width="1" stroke-linecap="butt" stroke-linejoin="miter" opacity="1" style="" font-weight="700">
    <tspan x="0" y="42" newline=""><![CDATA[2009]]></tspan>
  </text>
  <text controller-class="Text_box" transform="matrix(1 0 0 1 662.392 608.705)" width="192.095703125" height="27.65625" 
        font-family="segoe ui" font-size="16" font-style="regular" text-align="left" text-anchor="start" fill="#fff" 
        stroke="none" stroke-width="1.00" stroke-linecap="butt" stroke-linejoin="miter" opacity="1" style="">
    <tspan x="0" y="20" newline=""><![CDATA[Patenting]]></tspan>
  </text>
  <text controller-class="Text_box" transform="matrix(1 0 0 1 818.068 395.562)" width="137.70718383789062" height="58.171875" 
        font-family="segoe ui" font-size="32" font-style="" text-align="left" text-anchor="start" fill="#fff" 
        stroke="none" stroke-width="1" stroke-linecap="butt" stroke-linejoin="miter" opacity="1" style="" font-weight="700">
    <tspan x="0" y="42" newline=""><![CDATA[2009]]></tspan>
  </text>
  <text controller-class="Text_box" transform="matrix(1 0 0 1 817.609 318.786)" width="192.095703125" height="60.125" 
        font-family="segoe ui" font-size="16" font-style="regular" text-align="left" text-anchor="start" 
        fill="#fff" stroke="none" stroke-width="1.00" stroke-linecap="butt" stroke-linejoin="miter" opacity="1" style="">
    <tspan x="0" y="50" newline=""><![CDATA[Product]]></tspan>
    <tspan x="0" y="72.375" newline=""><![CDATA[ version 1.0]]></tspan>
  </text>
  <text controller-class="Text_box" transform="matrix(1 0 0 1 1056.2 378.917)" width="137.70718383789062" height="58.328125" font-family="segoe ui" font-size="32" font-style="" text-align="left" text-anchor="start" fill="#fff" stroke="none" stroke-width="1" stroke-linecap="butt" stroke-linejoin="miter" opacity="1" style="" font-weight="700">
    <tspan x="0" y="42" newline=""><![CDATA[2010]]></tspan>
  </text>
  <text controller-class="Text_box" transform="matrix(1 0 0 1 1059.09 433.74)" width="192.095703125" height="55.0625" font-family="segoe ui" font-size="17" font-style="regular" text-align="left" text-anchor="start" fill="#fff" stroke="none" stroke-width="1.00" stroke-linecap="butt" stroke-linejoin="miter" opacity="1" style="">
    <tspan x="0" y="20" newline=""><![CDATA[Product version 2.0]]></tspan>
    <tspan x="0" y="47.53125" newline=""><![CDATA[thin client]]></tspan>
  </text>
  <text controller-class="Text_box" transform="matrix(1 0 0 1 1151.12 217.067)" width="137.70718383789062" height="58.328125" font-family="segoe ui" font-size="32" font-style="" text-align="left" text-anchor="start" fill="#fff" stroke="none" stroke-width="1" stroke-linecap="butt" stroke-linejoin="miter" opacity="1" style="" font-weight="700">
    <tspan x="0" y="42" newline=""><![CDATA[2011]]></tspan>
  </text>
  <text controller-class="Text_box" transform="matrix(1 0 0 1 1150.93 110.289)" width="292.10" height="107.1875" font-family="segoe ui" font-size="16" font-style="regular" text-align="left" text-anchor="start" fill="#fff" stroke="none" stroke-width="1.00" stroke-linecap="butt" stroke-linejoin="miter" opacity="1" style="">
    <tspan x="0" y="20" newline=""><![CDATA[Product version 3.0]]></tspan>
    <tspan x="0" y="46.796875" newline=""><![CDATA[VPN client and the access key]]></tspan>
    <tspan x="0" y="73.59375" newline=""><![CDATA[to the medical]]></tspan>
    <tspan x="0" y="100.390625" newline=""><![CDATA[database]]></tspan>
  </text>
  <text controller-class="Text_box" transform="matrix(1 0 0 1 1504.68 264.857)" width="137.70718383789062" height="57.34375" font-family="segoe ui" font-size="32" font-style="" text-align="left" text-anchor="start" fill="#fff" stroke="none" stroke-width="1" stroke-linecap="butt" stroke-linejoin="miter" opacity="1" style="" font-weight="700">
    <tspan x="0" y="42" newline=""><![CDATA[2012]]></tspan>
  </text>
  <text controller-class="Text_box" transform="matrix(1 0 0 1 1505.33 130.465)" width="292.10" height="134.921875" font-family="segoe ui" font-size="16" font-style="regular" text-align="left" text-anchor="start" fill="#fff" stroke="none" stroke-width="1.00" stroke-linecap="butt" stroke-linejoin="miter" opacity="1" style="">
    <tspan x="0" y="20" newline=""><![CDATA[Product version 4.0]]></tspan>
    <tspan x="0" y="46.984375" newline=""><![CDATA[a researcher's]]></tspan>
    <tspan x="0" y="73.96875" newline=""><![CDATA[workplace for access]]></tspan>
    <tspan x="0" y="100.953125" newline=""><![CDATA[to remote]]></tspan>
    <tspan x="0" y="127.9375" newline=""><![CDATA[knowledge bases]]></tspan>
  </text>
  <text controller-class="Text_box" transform="matrix(1 0 0 1 1642.03 542.918)" width="137.70718383789062" height="57.5" font-family="segoe ui" font-size="32" font-style="" text-align="left" text-anchor="start" fill="#fff" stroke="none" stroke-width="1" stroke-linecap="butt" stroke-linejoin="miter" opacity="1" style="" font-weight="700">
    <tspan x="0" y="42" newline=""><![CDATA[2015]]></tspan>
  </text>
  <text controller-class="Text_box" transform="matrix(1 0 0 1 1644.62 434.841)" width="292.10" height="108.375" font-family="segoe ui" font-size="16" font-style="regular" text-align="left" text-anchor="start" fill="#fff" stroke="none" stroke-width="1.00" stroke-linecap="butt" stroke-linejoin="miter" opacity="1" style="">
    <tspan x="0" y="20" newline=""><![CDATA[Product version 5.0]]></tspan>
    <tspan x="0" y="47.09375" newline=""><![CDATA[portable workplace]]></tspan>
    <tspan x="0" y="74.1875" newline=""><![CDATA[with business and gaming]]></tspan>
    <tspan x="0" y="101.28125" newline=""><![CDATA[applications]]></tspan>
  </text>
  <text controller-class="Text_box" transform="matrix(1 0 0 1 1517.77 786.507)" width="137.70718383789062" height="57.234375" font-family="segoe ui" font-size="32" font-style="" text-align="left" text-anchor="start" fill="#fff" stroke="none" stroke-width="1" stroke-linecap="butt" stroke-linejoin="miter" opacity="1" style="" font-weight="700">
    <tspan x="0" y="42" newline=""><![CDATA[2016]]></tspan>
  </text>
  <text controller-class="Text_box" transform="matrix(1 0 0 1 1519.39 833.665)" width="292.10" height="135.78125" font-family="segoe ui" font-size="16" font-style="regular" text-align="left" text-anchor="start" fill="#fff" stroke="none" stroke-width="1.00" stroke-linecap="butt" stroke-linejoin="miter" opacity="1" style="">
    <tspan x="0" y="20" newline=""><![CDATA[Product version 6.0]]></tspan>
    <tspan x="0" y="47.15625" newline=""><![CDATA[portable workstation]]></tspan>
    <tspan x="0" y="74.3125" newline=""><![CDATA[oriented to]]></tspan>
    <tspan x="0" y="101.46875" newline=""><![CDATA[client-server]]></tspan>
    <tspan x="0" y="128.625" newline=""><![CDATA[applications]]></tspan>
  </text>
  <text controller-class="Text_box" transform="matrix(1 0 0 1 1261.63 745.758)" width="137.70718383789062" height="57.234375" font-family="segoe ui" font-size="32" font-style="" text-align="left" text-anchor="start" fill="#fff" stroke="none" stroke-width="1" stroke-linecap="butt" stroke-linejoin="miter" opacity="1" style="" font-weight="700">
    <tspan x="0" y="42" newline=""><![CDATA[2017]]></tspan>
  </text>
  <text controller-class="Text_box" transform="matrix(1 0 0 1 1263.25 660.966)" width="292.10" height="81.46875" font-family="segoe ui" font-size="16" font-style="regular" text-align="left" text-anchor="start" fill="#fff" stroke="none" stroke-width="1.00" stroke-linecap="butt" stroke-linejoin="miter" opacity="1" style="">
    <tspan x="0" y="20" newline=""><![CDATA[Creating]]></tspan>
    <tspan x="0" y="47.15625" newline=""><![CDATA[a CryptoWorkPlace]]></tspan>
    <tspan x="0" y="74.3125" newline=""><![CDATA[concept]]></tspan>
  </text>
  <text controller-class="Text_box" transform="matrix(1 0 0 1 957.452 678.813)" width="293.52" height="79.53125" font-family="segoe ui" font-size="27" font-style="" text-align="left" text-anchor="start" fill="#fff" stroke="none" stroke-width="1" stroke-linecap="butt" stroke-linejoin="miter" opacity="1" style="" font-weight="700">
    <tspan x="0" y="29" newline=""><![CDATA[February - ]]></tspan>
    <tspan x="0" y="68.765625" newline=""><![CDATA[April 2018]]></tspan>
  </text>
  <text controller-class="Text_box" transform="matrix(1 0 0 1 958.102 624.098)" width="292.10" height="54.3125" font-family="segoe ui" font-size="16" font-style="regular" text-align="left" text-anchor="start" fill="#fff" stroke="none" stroke-width="1.00" stroke-linecap="butt" stroke-linejoin="miter" opacity="1" style="">
    <tspan x="0" y="20" newline=""><![CDATA[Token]]></tspan>
    <tspan x="0" y="47.15625" newline=""><![CDATA[Pre-Sale]]></tspan>
  </text>
  <text controller-class="Text_box" transform="matrix(1 0 0 1 537.224 855.045)" width="293.52" height="40.34375" font-family="segoe ui" font-size="27" font-style="" text-align="left" text-anchor="start" fill="#fff" stroke="none" stroke-width="1" stroke-linecap="butt" stroke-linejoin="miter" opacity="1" style="" font-weight="700">
    <tspan x="0" y="29" newline=""><![CDATA[May 2018]]></tspan>
  </text>
  <text controller-class="Text_box" transform="matrix(1 0 0 1 539.176 771.595)" width="292.10" height="81.984375" font-family="segoe ui" font-size="16" font-style="regular" text-align="left" text-anchor="start" fill="#fff" stroke="none" stroke-width="1.00" stroke-linecap="butt" stroke-linejoin="miter" opacity="1" style="">
    <tspan x="0" y="20" newline=""><![CDATA[Token Sale,]]></tspan>
    <tspan x="0" y="47.328125" newline=""><![CDATA[Launching of the]]></tspan>
    <tspan x="0" y="74.65625" newline=""><![CDATA[Web Portal beta]]></tspan>
  </text>
  <text controller-class="Text_box" transform="matrix(1 0 0 1 327.364 1063.65)" width="293.52" height="40.34375" font-family="segoe ui" font-size="27" font-style="" text-align="left" text-anchor="start" fill="#fff" stroke="none" stroke-width="1" stroke-linecap="butt" stroke-linejoin="miter" opacity="1" style="" font-weight="700">
    <tspan x="0" y="29" newline=""><![CDATA[Q2 2018]]></tspan>
  </text>
  <text controller-class="Text_box" transform="matrix(1 0 0 1 329.316 980.197)" width="292.10" height="81.984375" font-family="segoe ui" font-size="16" font-style="regular" text-align="left" text-anchor="start" fill="#fff" stroke="none" stroke-width="1.00" stroke-linecap="butt" stroke-linejoin="miter" opacity="1" style="">
    <tspan x="0" y="20" newline=""><![CDATA[Testing of the product]]></tspan>
    <tspan x="0" y="47.328125" newline=""><![CDATA[in independent]]></tspan>
    <tspan x="0" y="74.65625" newline=""><![CDATA[laboratories]]></tspan>
  </text>
  <text controller-class="Text_box" transform="matrix(1 0 0 1 608.678 1209.45)" width="293.52" height="40.34375" font-family="segoe ui" font-size="27" font-style="" text-align="left" text-anchor="start" fill="#fff" stroke="none" stroke-width="1" stroke-linecap="butt" stroke-linejoin="miter" opacity="1" style="" font-weight="700">
    <tspan x="0" y="29" newline=""><![CDATA[Q3 2018]]></tspan>
  </text>
  <text controller-class="Text_box" transform="matrix(1 0 0 1 610.63 1095.46)" width="292.10" height="109.3125" font-family="segoe ui" font-size="16" font-style="regular" text-align="left" text-anchor="start" fill="#fff" stroke="none" stroke-width="1.00" stroke-linecap="butt" stroke-linejoin="miter" opacity="1" style="">
    <tspan x="0" y="20" newline=""><![CDATA[The start of mass]]></tspan>
    <tspan x="0" y="47.328125" newline=""><![CDATA[production and]]></tspan>
    <tspan x="0" y="74.65625" newline=""><![CDATA[launching of technical]]></tspan>
    <tspan x="0" y="101.984375" newline=""><![CDATA[support services]]></tspan>
  </text>
  <text controller-class="Text_box" transform="matrix(1 0 0 1 986.212 1179.02)" width="293.52" height="40.34375" font-family="segoe ui" font-size="27" font-style="" text-align="left" text-anchor="start" fill="#fff" stroke="none" stroke-width="1" stroke-linecap="butt" stroke-linejoin="miter" opacity="1" style="" font-weight="700">
    <tspan x="0" y="29" newline=""><![CDATA[Q4 2018]]></tspan>
  </text>
  <text controller-class="Text_box" transform="matrix(1 0 0 1 988.164 1088.57)" width="292.10" height="81.984375" font-family="segoe ui" font-size="16" font-style="regular" text-align="left" text-anchor="start" fill="#fff" stroke="none" stroke-width="1.00" stroke-linecap="butt" stroke-linejoin="miter" opacity="1" style="">
    <tspan x="0" y="20" newline=""><![CDATA[The start of sales in]]></tspan>
    <tspan x="0" y="47.328125" newline=""><![CDATA[USA, Europe]]></tspan>
    <tspan x="0" y="74.65625" newline=""><![CDATA[and Asian markets]]></tspan>
  </text>
</svg>