<svg xmlns="http://www.w3.org/2000/svg" viewBox="0 0 14.11 20.19">
  <title>bitc</title>
  <path d="M2,3.37H3.55c.23,0,.3-.06.3-.29,0-.83,0-1.66,0-2.5,0-.54,0-.58.6-.58h.67c.32,0,.45.14.45.45,0,.85,0,1.71,0,2.57,0,.31.1.37.38.36a4.82,4.82,0,0,1,.93,0c.3,0,.41-.06.4-.38,0-.84,0-1.67,0-2.5,0-.43.06-.5.5-.5h.7C8.88,0,9,.1,9,.5V3c0,.25.05.35.32.33a3.79,3.79,0,0,1,3.94,3.77,3.8,3.8,0,0,1-.57,2.24c-.15.24-.15.36.08.57a3.84,3.84,0,0,1,1.2,4,3.63,3.63,0,0,1-2.81,2.83,7.22,7.22,0,0,1-1.8.06c-.27,0-.38.06-.37.37,0,.8,0,1.62,0,2.43,0,.51-.07.58-.6.58H7.81c-.5,0-.54,0-.54-.56,0-.82,0-1.64,0-2.46,0-.28-.07-.37-.35-.35s-.73,0-1.09,0c-.21,0-.27.06-.27.27v2.54c0,.5-.06.56-.58.56H4.3c-.33,0-.47-.13-.46-.46,0-.84,0-1.7,0-2.54,0-.32-.1-.38-.4-.38-.9,0-1.8,0-2.7,0-.56,0-.63-.09-.52-.62l0-.15c0-.56.19-.93.86-1a1.29,1.29,0,0,0,1-1.35c0-2.3,0-4.58,0-6.88A1.73,1.73,0,0,0,.51,5.11C.11,5.05,0,4.88,0,4.51S0,4,0,3.77s.13-.4.41-.4H2Zm5.5,7.57H5.82c-.16,0-.26,0-.26.2V14.2c0,.15.05.22.21.21,1.17,0,2.34.07,3.5,0a1.7,1.7,0,0,0,1.52-1.69A1.74,1.74,0,0,0,9.25,11C8.64,10.9,8,11,7.52,10.94Zm-2-3.3V9.11c0,.15,0,.25.22.25.84,0,1.69,0,2.53,0a1.72,1.72,0,0,0-.1-3.44H5.86c-.26,0-.3.09-.3.31Z" fill="#fff"/>
</svg>
