<svg xmlns="http://www.w3.org/2000/svg" viewBox="0 0 19.9 19.37">
  <title>inst</title>
  <path d="M9.77,19.37c-1.32,0-2.65,0-4-.09a6.8,6.8,0,0,1-2.63-.54A5,5,0,0,1,.33,15.5,9.23,9.23,0,0,1,0,12.89C0,10.92,0,9,0,7A13,13,0,0,1,.2,4.43,5,5,0,0,1,2.74.83,6,6,0,0,1,5.19.12C6.66,0,8.14,0,9.61,0s2.85,0,4.28,0a7.6,7.6,0,0,1,2.7.5,5,5,0,0,1,3,3.47,7.46,7.46,0,0,1,.24,1.76c.1,2.36.08,4.72,0,7.08a9.7,9.7,0,0,1-.27,2.48,5,5,0,0,1-4,3.74,11.83,11.83,0,0,1-2.37.23H9.78v.05ZM2.11,9.67h0c0,.86,0,1.73,0,2.59a14.85,14.85,0,0,0,.16,2.1A3.11,3.11,0,0,0,4.78,17a8.94,8.94,0,0,0,2.06.2c1.6,0,3.2,0,4.8,0,1,0,2,0,2.93-.13a3.2,3.2,0,0,0,2.94-2.44,7.51,7.51,0,0,0,.2-2c0-1.56,0-3.11,0-4.67a20.19,20.19,0,0,0-.14-2.9,3.23,3.23,0,0,0-2.74-2.85,10.3,10.3,0,0,0-2-.16q-3.34,0-6.69,0a5.71,5.71,0,0,0-1.3.16A3.1,3.1,0,0,0,2.4,4.57,5.22,5.22,0,0,0,2.19,6c0,1.21-.05,2.42-.07,3.63Zm12.71,0a4.82,4.82,0,0,1-4.88,4.76h0A4.82,4.82,0,0,1,5,9.7,4.81,4.81,0,0,1,9.89,4.92h.05a4.82,4.82,0,0,1,4.88,4.75Zm-2.4,0A2.49,2.49,0,1,0,9.85,12.1H9.9a2.46,2.46,0,0,0,2.53-2.39v0Zm2.59-6a1.11,1.11,0,1,1-1.15,1.1A1.12,1.12,0,0,1,15,3.64Z" fill="#fff"/>
</svg>
