<?xml version="1.0" encoding="utf-8"?>
<svg xmlns="http://www.w3.org/2000/svg" xmlns:xlink="http://www.w3.org/1999/xlink">
  <symbol viewBox="0 0 512 512" id="bit" xmlns="http://www.w3.org/2000/svg">
    <path d="M256.2 0C114.8-.12.12 114.41 0 255.8S114.41 511.88 255.8 512c141.38-.12 256-114.62 256.2-256C512 114.68 397.51.12 256.2 0zm-.4 469.4c-117.85 0-213.4-95.54-213.4-213.4S137.95 42.6 255.8 42.6 469.08 138.18 469.2 256s-95.54 213.4-213.4 213.4zM325 243.52a46.78 46.78 0 0 0 23.18-48.35c-4-29.92-39.63-41.21-67.77-43.59v-45h-27.78v44.58H234V106.6h-27.73v44.58h-55.88v28.73h20.81c9.31 0 13.87 2.77 13.87 10.3v123.45c0 10.3-5.15 13.47-10.7 13.47h-21.2v29.33h53.9V402H235v-45.54h18.63V402h27.15v-45.54h5.94c57.07 0 76.09-27.94 76.09-66A49.33 49.33 0 0 0 325 243.52zm-91-61.82h19.81c13.87 0 41.21 2.38 41.21 25a28 28 0 0 1-24.37 29.52H234zm30.71 142.66v-.2H234v-59.44h35.67c8.32 0 39.63 2.77 39.63 25s-14.86 34.64-44.58 34.64z"/>
  </symbol>
  <symbol viewBox="0 0 14.11 20.19" id="bitc" xmlns="http://www.w3.org/2000/svg">
    <path d="M2 3.37h1.55c.23 0 .3-.06.3-.29V.58c0-.54 0-.58.6-.58h.67c.32 0 .45.14.45.45v2.57c0 .31.1.37.38.36a4.82 4.82 0 0 1 .93 0c.3 0 .41-.06.4-.38V.5c0-.43.06-.5.5-.5h.7c.4 0 .52.1.52.5V3c0 .25.05.35.32.33a3.79 3.79 0 0 1 3.94 3.77 3.8 3.8 0 0 1-.57 2.24c-.15.24-.15.36.08.57a3.84 3.84 0 0 1 1.2 4 3.63 3.63 0 0 1-2.81 2.83 7.22 7.22 0 0 1-1.8.06c-.27 0-.38.06-.37.37v2.43c0 .51-.07.58-.6.58h-.58c-.5 0-.54 0-.54-.56v-2.46c0-.28-.07-.37-.35-.35s-.73 0-1.09 0c-.21 0-.27.06-.27.27v2.54c0 .5-.06.56-.58.56H4.3c-.33 0-.47-.13-.46-.46v-2.54c0-.32-.1-.38-.4-.38H.74c-.56 0-.63-.09-.52-.62v-.15c0-.56.19-.93.86-1a1.29 1.29 0 0 0 1-1.35V6.8A1.73 1.73 0 0 0 .51 5.11c-.4-.06-.51-.23-.51-.6v-.74c0-.23.13-.4.41-.4H2zm5.5 7.57H5.82c-.16 0-.26 0-.26.2v3.06c0 .15.05.22.21.21 1.17 0 2.34.07 3.5 0a1.7 1.7 0 0 0 1.52-1.69A1.74 1.74 0 0 0 9.25 11c-.61-.1-1.25 0-1.73-.06zm-2-3.3v1.47c0 .15 0 .25.22.25h2.53a1.72 1.72 0 0 0-.1-3.44H5.86c-.26 0-.3.09-.3.31z"/>
  </symbol>
  <symbol viewBox="0 0 32 32" id="check" xmlns="http://www.w3.org/2000/svg">
    <path d="M26.664 6.27a.829.829 0 0 0-1.177 0L13.088 18.611a.826.826 0 0 1-1.178 0l-5.433-5.532a.825.825 0 0 0-1.177 0l-2.401 2.158a.83.83 0 0 0-.246.583c0 .215.087.44.247.603l5.478 5.749c.324.328.855.861 1.178 1.186l2.355 2.374a.834.834 0 0 0 1.178 0L29.019 9.83a.846.846 0 0 0 0-1.188l-2.356-2.373z"/>
  </symbol>
  <symbol viewBox="0 0 11.32 11.32" id="close" xmlns="http://www.w3.org/2000/svg">
    <path d="M0 1.42L1.42 0l4.24 4.25L9.9 0l1.42 1.42-4.25 4.24 4.25 4.24-1.42 1.42-4.24-4.25-4.24 4.25L0 9.9l4.25-4.24z"/>
  </symbol>
  <symbol viewBox="0 0 21.13 27.83" id="doc" xmlns="http://www.w3.org/2000/svg">
    <path d="M20.81 4.89C18.77 3 16.5.75 16.25.44L15.43 0H0v27.83h21.13V5.18zm-3.19-.27h-2V2.71l2 1.9zM2 25.83V2h11.66v4.61h5.46v19.22zM5.54 5.71h6.37v1H5.54zm0 15.64h6.37v1H5.54zM5.54 9H15.8v1H5.54zm0 2.45H15.8v1H5.54zm0 2.45H15.8v1H5.54zm0 2.26H15.8v1H5.54z"/>
  </symbol>
  <symbol viewBox="0 0 45.437 45.437" id="empty" xmlns="http://www.w3.org/2000/svg"/>
  <symbol viewBox="0 0 223.49 364.91" id="eth" xmlns="http://www.w3.org/2000/svg">
    <path data-name="svgg" d="M108.34 3.53C107.53 5.47 83 46.62 53.88 95S.65 183.53.35 184.3c-.39 1 15.45 10.86 55.51 34.53L111.92 252l56-33.14c40.26-23.81 55.89-33.54 55.5-34.56C221.43 179 112.46 0 111.27 0c-.8 0-2.12 1.59-2.93 3.53M.48 208.13c2.16 3.69 111 156.8 111.43 156.78.75 0 112-157.24 111.57-157.67s-104.4 60.84-108.73 64l-2.66 2-53.84-31.79C28.64 224 3.32 209 2 208.1c-2.21-1.43-2.35-1.43-1.5 0"/>
  </symbol>
  <symbol viewBox="0 0 20 20" id="facebook_c" xmlns="http://www.w3.org/2000/svg">
    <path d="M10 .4C4.698.4.4 4.698.4 10s4.298 9.6 9.6 9.6 9.6-4.298 9.6-9.6S15.302.4 10 .4zm2.274 6.634h-1.443c-.171 0-.361.225-.361.524V8.6h1.805l-.273 1.486H10.47v4.461H8.767v-4.461H7.222V8.6h1.545v-.874c0-1.254.87-2.273 2.064-2.273h1.443v1.581z"/>
  </symbol>
  <symbol viewBox="0 0 9.14 17.77" id="fb" xmlns="http://www.w3.org/2000/svg">
    <path d="M0 5.83h2.4V2.95A3 3 0 0 1 5.56 0h3.52v3.1H7.22c-.9.06-1.1.27-1.12 1.06v1.65h3c-.12 1-.2 2-.35 2.88 0 .1-.31.23-.49.24H6.09v8.84H2.45V9H0V5.82z"/>
  </symbol>
  <symbol viewBox="0 0 19.06 17.78" id="gith" xmlns="http://www.w3.org/2000/svg">
    <path d="M0 8.77v-.3a8.77 8.77 0 0 1 2.39-5.38A9.76 9.76 0 0 1 10.21 0a9.62 9.62 0 0 1 5.21 2A9 9 0 0 1 19 9.69a8.8 8.8 0 0 1-2.56 5.66 9.44 9.44 0 0 1-3.39 2.23l-.45.16a.65.65 0 0 1-.7-.17.8.8 0 0 1-.22-.56v-2.75a2.69 2.69 0 0 0-.07-.75l-.12-.33.45-.1A6.25 6.25 0 0 0 14.52 12a3.76 3.76 0 0 0 1.55-2.54 4.79 4.79 0 0 0-.42-2.91 3.69 3.69 0 0 0-.7-1 2.88 2.88 0 0 0 0-2.32c-.05-.12-.14-.23-.2-.35a.13.13 0 0 0-.1 0 3.75 3.75 0 0 0-2.11.67 5.89 5.89 0 0 0-.62.5.11.11 0 0 1-.1 0 6.54 6.54 0 0 0-1.62-.3 10.57 10.57 0 0 0-1.49 0 6.54 6.54 0 0 0-1.5.3.13.13 0 0 1-.09 0A3.93 3.93 0 0 0 5 2.88c-.2 0-.42 0-.62-.06s-.08 0-.1 0a2.05 2.05 0 0 0-.39.94A2.81 2.81 0 0 0 4 5.19a2.31 2.31 0 0 0 .17.36L4 5.79a4.6 4.6 0 0 0-.9 4.06 3.9 3.9 0 0 0 1.6 2.25 6.28 6.28 0 0 0 2.1.9c.23.06.47.1.71.15 0 .14-.1.27-.13.4s-.05.51-.07.77a.1.1 0 0 1-.07.1 2.8 2.8 0 0 1-2.13-.2 2 2 0 0 1-.7-.66 1.94 1.94 0 0 0-1.3-.88 1 1 0 0 0-.47 0c-.16 0-.2.14-.09.27l.21.18a3.26 3.26 0 0 1 1 1.27 2.33 2.33 0 0 0 .94 1 3 3 0 0 0 1.74.43c.3 0 .58 0 .88-.08V17a.76.76 0 0 1-.33.62.59.59 0 0 1-.58.1 9.42 9.42 0 0 1-5.09-4 8.46 8.46 0 0 1-1.2-3.19c-.05-.32-.07-.64-.1-1v-.76z"/>
  </symbol>
  <symbol viewBox="0 0 19.9 19.37" id="inst" xmlns="http://www.w3.org/2000/svg">
    <path d="M9.77 19.37c-1.32 0-2.65 0-4-.09a6.8 6.8 0 0 1-2.63-.54A5 5 0 0 1 .33 15.5 9.23 9.23 0 0 1 0 12.89V7a13 13 0 0 1 .2-2.57A5 5 0 0 1 2.74.83 6 6 0 0 1 5.19.12C6.66 0 8.14 0 9.61 0h4.28a7.6 7.6 0 0 1 2.7.5 5 5 0 0 1 3 3.47 7.46 7.46 0 0 1 .24 1.76c.1 2.36.08 4.72 0 7.08a9.7 9.7 0 0 1-.27 2.48 5 5 0 0 1-4 3.74 11.83 11.83 0 0 1-2.37.23H9.78v.05zm-7.66-9.7v2.59a14.85 14.85 0 0 0 .16 2.1A3.11 3.11 0 0 0 4.78 17a8.94 8.94 0 0 0 2.06.2h4.8c1 0 2 0 2.93-.13a3.2 3.2 0 0 0 2.94-2.44 7.51 7.51 0 0 0 .2-2V7.96a20.19 20.19 0 0 0-.14-2.9 3.23 3.23 0 0 0-2.74-2.85 10.3 10.3 0 0 0-2-.16H6.14a5.71 5.71 0 0 0-1.3.16A3.1 3.1 0 0 0 2.4 4.57 5.22 5.22 0 0 0 2.19 6c0 1.21-.05 2.42-.07 3.63zm12.71 0a4.82 4.82 0 0 1-4.88 4.76A4.82 4.82 0 0 1 5 9.7a4.81 4.81 0 0 1 4.89-4.78h.05a4.82 4.82 0 0 1 4.88 4.75zm-2.4 0a2.49 2.49 0 1 0-2.57 2.43h.05a2.46 2.46 0 0 0 2.53-2.39zm2.59-6a1.11 1.11 0 1 1-1.15 1.1A1.12 1.12 0 0 1 15 3.64z"/>
  </symbol>
  <symbol viewBox="0 0 29 52" id="left" xmlns="http://www.w3.org/2000/svg">
    <path d="M26.43 51.56L.88 26 26.43.44l2.12 2.12L5.12 26l23.43 23.44z"/>
  </symbol>
  <symbol viewBox="0 0 20 20" id="linkedin_c" xmlns="http://www.w3.org/2000/svg">
    <path d="M10 .4C4.698.4.4 4.698.4 10s4.298 9.6 9.6 9.6 9.6-4.298 9.6-9.6S15.302.4 10 .4zM7.65 13.979H5.706V7.723H7.65v6.256zm-.984-7.024c-.614 0-1.011-.435-1.011-.973 0-.549.409-.971 1.036-.971s1.011.422 1.023.971c0 .538-.396.973-1.048.973zm8.084 7.024h-1.944v-3.467c0-.807-.282-1.355-.985-1.355-.537 0-.856.371-.997.728-.052.127-.065.307-.065.486v3.607H8.814v-4.26c0-.781-.025-1.434-.051-1.996h1.689l.089.869h.039c.256-.408.883-1.01 1.932-1.01 1.279 0 2.238.857 2.238 2.699v3.699z"/>
  </symbol>
  <symbol viewBox="0 0 492.84 445.26" id="logo" xmlns="http://www.w3.org/2000/svg">
    <path d="M279.74 222.15c0-30.23 25-55.53 55.36-55.22 32.81.33 55.83 26.19 55.8 56.11 0 30.33-25.48 55.52-55.87 55.29-30.88-.23-55.33-25.07-55.3-56.18M0 225.83c1.67 6.09 2.46 12.61 5.16 18.2 8.56 17.74 23.16 27 42.87 27.26 21.79.31 43.59.07 65.39.08h4.7a224.31 224.31 0 0 0 34.1 77.8H147c-18.34 0-36.7-.4-55 .27-20 .74-34.75 10.86-42.43 29.18-7.94 18.94-4.42 36.7 9.76 51.9 9.4 10.07 21.26 14.67 34.9 14.67 80.81 0 161.61.17 242.42-.06 38.6-.11 74.73-10.06 108.37-29a228.62 228.62 0 0 0 47-35.51L424 312.73c-28.31 27-62.68 39.39-102.33 35.34-33.76-3.45-61.59-18.84-83.54-44.75-40.28-47.54-37.85-119.88 4-166.11 42.55-47 126.56-59.52 182.76-4Q453.42 104.6 482 76c3.54-3.55 7.23-7 10.84-10.42v-.8C486.72 59.49 480.76 54 474.46 49 444.33 25 410.41 9.24 372.25 3.34a255.88 255.88 0 0 0-38-3.17C255.21-.1 176.15 0 97.1.05c-26.45 0-46.18 15.19-50.46 40-5.2 30.1 17.36 54.81 43.55 55.81 18.71.71 37.46.31 56.19.41h5.37c-2.87 4.68-5.37 8.69-7.81 12.72a209.3 209.3 0 0 0-25 61.66c-.86 3.75-2.36 4.71-6.08 4.69-22.32-.12-44.64-.19-67 .19S3.79 194 .74 216c-.16 1.17-.49 2.31-.74 3.47v6.38"/>
  </symbol>
  <symbol viewBox="0 0 47.67 47.67" id="play" xmlns="http://www.w3.org/2000/svg">
    <path d="M23.83 1A22.83 22.83 0 1 1 1 23.83 22.83 22.83 0 0 1 23.83 1z"/>
    <path d="M23.83 47.66a23.83 23.83 0 1 1 23.83-23.83 23.86 23.86 0 0 1-23.83 23.83zm0-45.66a21.83 21.83 0 1 0 21.83 21.83A21.86 21.86 0 0 0 23.83 2z"/>
    <path d="M31.83 23.41l-12 8v-16z"/>
  </symbol>
  <symbol viewBox="0 0 18.06 25.31" id="play_second" xmlns="http://www.w3.org/2000/svg">
    <path d="M0 25.32V0l18.06 12.64zM2 3.88v17.56l12.55-8.8z"/>
  </symbol>
  <symbol viewBox="0 0 49.38 69.32" id="play_video" xmlns="http://www.w3.org/2000/svg">
    <defs>
      <clipPath id="qa" transform="translate(3.57 7.74)">
        <path d="M38.85 26.91L.43 53.88V-.05l38.42 26.96z"/>
      </clipPath>
    </defs>
    <g clip-path="url(#qa)">
      <path d="M42.42 34.65L4 61.65V7.69z"/>
    </g>
  </symbol>
  <symbol viewBox="0 0 28 51" id="right" xmlns="http://www.w3.org/2000/svg">
    <path d="M2.14 51L0 48.86 23.72 25.5 0 2.14 2.14 0 28 25.5z"/>
  </symbol>
  <symbol viewBox="0 0 31.58 31.58" id="teleg" xmlns="http://www.w3.org/2000/svg">
    <path d="M15.79 0A15.79 15.79 0 1 1 0 15.79 15.79 15.79 0 0 1 15.79 0m-1.3 20.18l4.33 3.26a1.85 1.85 0 0 0 .65.31.77.77 0 0 0 1-.45 3.15 3.15 0 0 0 .2-.59l.76-3.63 1.26-6 1-4.8a1.56 1.56 0 0 0 0-.83.83.83 0 0 0-.91-.65 2 2 0 0 0-.4.1l-8.2 3.2-8.46 3.3-1.37.6a1 1 0 0 0-.47.38.46.46 0 0 0 .2.73 2.45 2.45 0 0 0 .5.17L9 16.6a.16.16 0 0 0 .16 0l.55-.35 9.8-6.25.28-.17a.48.48 0 0 1 .38 0c.1 0 .13.1.07.19a.9.9 0 0 1-.16.18l-5.6 5.18-2.8 2.6a.2.2 0 0 0-.07.1l-.06.74-.27 3.59v.38h.17a1.82 1.82 0 0 0 .83-.47l.94-.92 1.22-1.2.07.06z"/>
  </symbol>
  <symbol viewBox="0 0 22.36 16.93" id="tw" xmlns="http://www.w3.org/2000/svg">
    <path d="M15.77 0a4.82 4.82 0 0 1 3 1.29.14.14 0 0 0 .13 0 9.48 9.48 0 0 0 2.84-1A4 4 0 0 1 21 1.66a4.64 4.64 0 0 1-1.2 1A9.3 9.3 0 0 0 22.36 2v.08a8.92 8.92 0 0 1-2.14 2.06.21.21 0 0 0-.1.22 5.34 5.34 0 0 1 0 .8v.38a12.24 12.24 0 0 1-2.7 6.7 12.23 12.23 0 0 1-4.25 3.36 13.1 13.1 0 0 1-5 1.28 14.27 14.27 0 0 1-8.07-1.8L0 15h.71A9.79 9.79 0 0 0 6 13.74l.64-.42s.06 0 .07-.06a4.57 4.57 0 0 1-4.25-3 5 5 0 0 0 2-.07 4.6 4.6 0 0 1-2.9-1.85A4 4 0 0 1 .87 6a4.74 4.74 0 0 0 2 .52l-.34-.32A4.16 4.16 0 0 1 .91 2.69 4 4 0 0 1 1.48.86c0-.06.06-.07.1 0a13.2 13.2 0 0 0 8.08 4.27 9.2 9.2 0 0 0 1.25.12c.06 0 .08 0 .07-.07a4 4 0 0 1 .58-3.13 4.53 4.53 0 0 1 3.26-2h.95zM0 15z"/>
  </symbol>
  <symbol viewBox="0 0 24 20" id="reddit" xmlns="http://www.w3.org/2000/svg">
    <defs>
      <style>.cls-1{fill:#fff;}</style>
    </defs>
    <title>iconmonstr-reddit-1_white</title>
    <path class="cls-1" d="M512,499.78a2.65,2.65,0,0,0-4.5-1.9,13.74,13.74,0,0,0-7-2.05l1.48-4.66,4,.94v.05a2.21,2.21,0,1,0,.16-.78l-4.33-1a.38.38,0,0,0-.44.25l-1.66,5.21a13.84,13.84,0,0,0-7.3,2,2.62,2.62,0,0,0-1.79-.72,2.66,2.66,0,0,0-2.66,2.65,2.62,2.62,0,0,0,1.32,2.27,4.12,4.12,0,0,0-.09.86c0,3.91,4.81,7.09,10.72,7.09s10.72-3.18,10.72-7.09a4.28,4.28,0,0,0-.08-.81A2.62,2.62,0,0,0,512,499.78Zm-17.22,1.82a1.58,1.58,0,1,1,1.58,1.57A1.58,1.58,0,0,1,494.78,501.6Zm9.06,4.66a5.2,5.2,0,0,1-3.83,1.18h0a5.2,5.2,0,0,1-3.83-1.18.37.37,0,0,1,0-.52.39.39,0,0,1,.53,0,4.54,4.54,0,0,0,3.3,1h0a4.54,4.54,0,0,0,3.3-1,.37.37,0,0,1,.53.52Zm-.19-3.09a1.58,1.58,0,1,1,1.58-1.58A1.58,1.58,0,0,1,503.65,503.17Z" transform="translate(-488 -490)"/>
  </symbol>
</svg>