<svg id="d0ce187f-7b44-4437-8035-3f80fa7c6dfc" data-name="Capa 1" xmlns="http://www.w3.org/2000/svg" viewBox="0 0 512 512"><title>bitcoin</title><path d="M256.2,0C114.8-.12.12,114.41,0,255.8S114.41,511.88,255.8,512c141.38-.12,256-114.62,256.2-256C512,114.68,397.51.12,256.2,0Zm-.4,469.4C137.95,469.4,42.4,373.86,42.4,256S137.95,42.6,255.8,42.6,469.08,138.18,469.2,256,373.66,469.4,255.8,469.4ZM325,243.52a46.78,46.78,0,0,0,23.18-48.35c-4-29.92-39.63-41.21-67.77-43.59v-45H252.63v44.58H234V106.6H206.27v44.58H150.39v28.73H171.2c9.31,0,13.87,2.77,13.87,10.3V313.66c0,10.3-5.15,13.47-10.7,13.47h-21.2v29.33h53.9V402H235V356.46h18.63V402h27.15V356.46h5.94c57.07,0,76.09-27.94,76.09-66A49.33,49.33,0,0,0,325,243.52ZM234,181.7h19.81c13.87,0,41.21,2.38,41.21,25a28,28,0,0,1-24.37,29.52H234Zm30.71,142.66v-.2H234V264.72h35.67c8.32,0,39.63,2.77,39.63,25S294.44,324.36,264.72,324.36Z"/></svg>