<svg xmlns="http://www.w3.org/2000/svg" viewBox="0 0 19.06 17.78">
  <title>gith</title>
  <path d="M0,8.77l0-.3A8.77,8.77,0,0,1,2.39,3.09,9.76,9.76,0,0,1,10.21,0,9.62,9.62,0,0,1,15.42,2,9,9,0,0,1,19,9.69a8.8,8.8,0,0,1-2.56,5.66,9.44,9.44,0,0,1-3.39,2.23l-.45.16a.65.65,0,0,1-.7-.17.8.8,0,0,1-.22-.56V14.26a2.69,2.69,0,0,0-.07-.75l-.12-.33.45-.1A6.25,6.25,0,0,0,14.52,12a3.76,3.76,0,0,0,1.55-2.54,4.79,4.79,0,0,0-.42-2.91,3.69,3.69,0,0,0-.7-1l0,0a2.88,2.88,0,0,0,0-2.32c-.05-.12-.14-.23-.2-.35a.13.13,0,0,0-.1,0,3.75,3.75,0,0,0-2.11.67,5.89,5.89,0,0,0-.62.5.11.11,0,0,1-.1,0,6.54,6.54,0,0,0-1.62-.3,10.57,10.57,0,0,0-1.49,0,6.54,6.54,0,0,0-1.5.3.13.13,0,0,1-.09,0A3.93,3.93,0,0,0,5,2.88c-.2,0-.42,0-.62-.06s-.08,0-.1,0a2.05,2.05,0,0,0-.39.94A2.81,2.81,0,0,0,4,5.19a2.31,2.31,0,0,0,.17.36L4,5.79a4.6,4.6,0,0,0-.9,4.06A3.9,3.9,0,0,0,4.7,12.1,6.28,6.28,0,0,0,6.8,13c.23.06.47.1.71.15h0c0,.14-.1.27-.13.4s-.05.51-.07.77a.1.1,0,0,1-.07.1,2.8,2.8,0,0,1-2.13-.2,2,2,0,0,1-.7-.66,1.94,1.94,0,0,0-1.3-.88,1,1,0,0,0-.47,0c-.16,0-.2.14-.09.27l.21.18a3.26,3.26,0,0,1,1,1.27,2.33,2.33,0,0,0,.94,1,3,3,0,0,0,1.74.43c.3,0,.58,0,.88-.08V17a.76.76,0,0,1-.33.62.59.59,0,0,1-.58.1,9.42,9.42,0,0,1-5.09-4A8.46,8.46,0,0,1,.12,10.53c-.05-.32-.07-.64-.1-1l0-.07V8.77Z" fill="#fff"/>
</svg>
