<svg xmlns="http://www.w3.org/2000/svg" viewBox="0 0 31.58 31.58">
  <title>teleg</title>
  <path d="M15.79,0A15.79,15.79,0,1,1,0,15.79,15.79,15.79,0,0,1,15.79,0m-1.3,20.18,4.33,3.26a1.85,1.85,0,0,0,.65.31.77.77,0,0,0,1-.45,3.15,3.15,0,0,0,.2-.59l.76-3.63,1.26-6,1-4.8a1.56,1.56,0,0,0,0-.83.83.83,0,0,0-.91-.65,2,2,0,0,0-.4.1l-8.2,3.2L5.72,13.4,4.35,14a1,1,0,0,0-.47.38.46.46,0,0,0,.2.73,2.45,2.45,0,0,0,.5.17L9,16.6a.16.16,0,0,0,.16,0l.55-.35L19.51,10l.28-.17a.48.48,0,0,1,.38,0c.1,0,.13.1.07.19a.9.9,0,0,1-.16.18l-5.6,5.18-2.8,2.6a.2.2,0,0,0-.07.1l-.06.74-.27,3.59,0,.38.17,0a1.82,1.82,0,0,0,.83-.47l.94-.92,1.22-1.2.07.06Z" fill="#fff"/>
</svg>
