<svg xmlns="http://www.w3.org/2000/svg" viewBox="0 0 22.36 16.93">
  <title>tw</title>
  <path d="M15.77,0V0a4.82,4.82,0,0,1,3,1.29.14.14,0,0,0,.13,0,9.48,9.48,0,0,0,2.84-1A4,4,0,0,1,21,1.66a4.64,4.64,0,0,1-1.2,1A9.3,9.3,0,0,0,22.36,2l0,.08a8.92,8.92,0,0,1-2.14,2.06.21.21,0,0,0-.1.22,5.34,5.34,0,0,1,0,.8c0,.12,0,.25,0,.38a12.24,12.24,0,0,1-2.7,6.7,12.23,12.23,0,0,1-4.25,3.36,13.1,13.1,0,0,1-5,1.28,14.27,14.27,0,0,1-8.07-1.8L0,15c.24,0,.47,0,.71,0A9.79,9.79,0,0,0,6,13.74l.64-.42s.06,0,.07-.06a4.57,4.57,0,0,1-4.25-3,5,5,0,0,0,2-.07,4.6,4.6,0,0,1-2.9-1.85A4,4,0,0,1,.87,6a4.74,4.74,0,0,0,2,.52L2.53,6.2A4.16,4.16,0,0,1,.91,2.69,4,4,0,0,1,1.48.86c0-.06.06-.07.1,0A13.2,13.2,0,0,0,9.66,5.13a9.2,9.2,0,0,0,1.25.12c.06,0,.08,0,.07-.07a4,4,0,0,1,.58-3.13,4.53,4.53,0,0,1,3.26-2l.38,0h.57ZM0,15H0Z" fill="#fff"/>
</svg>
