<?xml version="1.0" encoding="utf-8"?>
<!-- Generator: Adobe Illustrator 19.1.1, SVG Export Plug-In . SVG Version: 6.00 Build 0)  -->
<svg version="1.1" id="Слой_1" xmlns="http://www.w3.org/2000/svg" xmlns:xlink="http://www.w3.org/1999/xlink" x="0px" y="0px"
	 viewBox="194 -104 650 602" style="enable-background:new 194 -104 650 602;" xml:space="preserve">
<style type="text/css">
	.st0{stroke:#FFFFFF;stroke-width:3.5232;stroke-linejoin:round;stroke-miterlimit:10;}
	.st1{fill:none;stroke:#1210FF;stroke-width:2.1139;stroke-miterlimit:10;}
	.st2{fill:#FFFFFF;}
	.st3{stroke:#FFFFFF;stroke-width:3.5232;stroke-miterlimit:10;}
	.st4{stroke:#FFFFFF;stroke-width:1.4042;stroke-linejoin:round;stroke-miterlimit:10;}
	.st5{stroke:#FFFFFF;stroke-width:1.5;stroke-linejoin:round;stroke-miterlimit:10;}
	.st6{opacity:0.3;}
	.st7{opacity:0.8;}
	.st8{opacity:0.4;}
	.st9{opacity:0.2;}
	.st10{opacity:0.7;}
	.st11{opacity:0.5;}
	.st12{fill:none;stroke:#00C9FF;stroke-width:2.1139;stroke-miterlimit:10;}
	.st13{fill:#00C9FF;}
	.st14{fill:none;stroke:#00C9FF;stroke-width:1.7616;stroke-miterlimit:10;}
	.st15{fill:none;stroke:#00C9FF;stroke-width:3.5232;stroke-miterlimit:10;}
	.st16{fill:none;stroke:#00C9FF;stroke-width:2.1139;stroke-linecap:round;stroke-linejoin:round;}
	.st17{fill:none;stroke:#00C9FF;stroke-width:2.1139;stroke-linecap:round;stroke-linejoin:round;stroke-dasharray:0.3392,4.0701;}
	.st18{fill:none;stroke:#FFFFFF;stroke-width:2.1139;stroke-miterlimit:10;}
</style>
<g>
	<g>
		<g>
			<path class="st0" d="M638.9,165.7L325.6,346.9l-0.5-251.4c0-9.2,5.7-20.1,12.6-24.1L626.3-95.2c6.9-4,12.6,0.3,12.6,9.5V165.7z"
				/>
			<path class="st1" d="M632.5,152.4l-301,173.8v-227c0-5.2,3.2-11.3,7.1-13.6L625.4-80c3.9-2.3,7.1,0.2,7.1,5.4V152.4z"/>
		</g>
	</g>
	<g>
		<ellipse transform="matrix(-0.9201 -0.3916 0.3916 -0.9201 927.137 180.8367)" class="st2" cx="482" cy="-4.1" rx="1.7" ry="3"/>
	</g>
</g>
<g>
	<path class="st3" d="M325.6,359.9v-13.5l313.8-167.6L827,274.6c8,4.6,5.5,22.7-1.5,26.7L536.8,467.8c-6.9,4-19.1,3.5-27.1-1.1
		L325.6,359.9z"/>
	<g>
		<path class="st0" d="M325.6,346.4l313.8-181.2L823.5,272c8,4.6,8.9,11.7,1.9,15.7L536.8,454.3c-6.9,4-19.1,3.5-27.1-1.1
			L325.6,346.4z"/>
		<g id="F2AOKh.tif_2_">
			<g>
				<path class="st4" d="M655.6,194.1c0.8,1.7-0.3,2.8-2.1,3.9c-16.2,9.3-32.4,18.7-48.6,28c-3.1,1.8-5.2,1.7-8.8-0.4
					c-4.4-2.5-8.7-5-13-7.5c-3-1.7-3.2-3.1-0.6-4.6c16.6-9.6,33.1-19.1,49.7-28.7c1.7-1,3.7-1.1,6.1-0.7
					C644,187.3,649.8,190.7,655.6,194.1z"/>
				<path class="st4" d="M712.2,226.7c1.1,1.6,0.3,2.7-1.5,3.8c-15.1,8.6-30.1,17.3-45.1,26c-3,1.7-5.1,1.6-8.6-0.4
					c-4.2-2.4-8.4-4.8-12.6-7.2c-3.7-2.2-3.9-3.3-0.7-5.1c15-8.6,30-17.3,44.9-26c1.8-1.1,3.8-1.5,6.5-0.9
					C700.8,220.2,706.5,223.4,712.2,226.7z"/>
				<path class="st4" d="M416,377.2c-1-1.7-0.1-2.8,1.9-3.9c13.2-7.5,26.3-15.2,39.5-22.7c3.1-1.8,5.1-1.7,8.8,0.4
					c4.4,2.5,8.7,5,13.1,7.5c2.9,1.7,3.1,3.1,0.6,4.5c-13.5,7.8-27,15.6-40.4,23.4c-1.8,1-3.8,1.2-6.2,0.7
					C427.4,383.8,421.7,380.5,416,377.2z"/>
				<path class="st4" d="M683,209.9c1.2,1.6,0.4,2.7-1.4,3.8c-10.5,6-20.9,12-31.3,18.1c-3,1.7-5.1,1.6-8.6-0.4
					c-4.4-2.5-8.8-5.1-13.2-7.6c-2.9-1.7-3.1-3-0.6-4.5c10.5-6.1,21.1-12.1,31.5-18.3c1.8-1.1,3.8-1.5,6.5-1
					C671.6,203.3,677.3,206.6,683,209.9z"/>
				<path class="st4" d="M387.5,360.8c-1-1.6-0.2-2.7,1.7-3.8c9.7-5.5,19.3-11.1,29-16.7c2.8-1.6,5-1.5,8.3,0.4
					c4.5,2.6,9,5.2,13.5,7.8c2.7,1.6,2.9,3,0.6,4.3c-9.9,5.8-19.9,11.5-29.8,17.2c-1.7,1-3.7,1.2-6.1,0.6
					C398.9,367.4,393.2,364.1,387.5,360.8z"/>
				<path class="st4" d="M359.4,344.6c-1.2-1.6-0.7-2.8,1.3-3.9c3.9-2.1,7.7-4.4,11.5-6.6c2.7-1.5,4.9-1.5,7.9,0.3
					c4.6,2.6,9.1,5.3,13.7,7.9c2.8,1.6,3,3,0.6,4.4c-3.8,2.2-7.7,4.4-11.4,6.6c-1.9,1.2-4,1.6-6.9,0.9
					C370.5,351,364.9,347.8,359.4,344.6z"/>
				<path class="st4" d="M603.7,324.9c-22.8,13.1-45.5,26.3-68.3,39.4c-3,1.7-5.1,1.7-8.6-0.3c-4.2-2.4-8.4-4.8-12.6-7.2
					c-3.8-2.2-4-3.3-0.7-5.2c27.2-15.7,54.3-31.4,81.5-47c18.2-10.5,36.4-21,54.7-31.6c3.3-1.9,5.3-1.8,9.1,0.4
					c4.3,2.5,8.6,5,12.9,7.4c3,1.7,3.2,3.1,0.6,4.6C649.4,298.6,626.5,311.8,603.7,324.9z"/>
				<path class="st4" d="M726.7,253.9c-4,2.3-8,4.6-12,6.9c-2.7,1.5-4.9,1.5-7.9-0.3c-4.6-2.6-9.2-5.3-13.7-7.9
					c-2.8-1.6-3-3-0.5-4.4c8.2-4.8,16.4-9.5,24.6-14.2c2.5-1.4,4.9-1.3,7.7,0.3c4.6,2.7,9.3,5.3,13.9,8c2.8,1.6,3,3,0.5,4.4
					C735.1,249.1,730.9,251.5,726.7,253.9z"/>
				<path class="st4" d="M481.4,396.1c-4,2.3-8,4.6-12,6.9c-2.9,1.6-5,1.6-8.3-0.3c-4.5-2.6-9-5.2-13.5-7.8c-2.8-1.6-3-3-0.5-4.4
					c8.2-4.7,16.4-9.5,24.6-14.2c2.5-1.5,4.8-1.4,7.8,0.4c4.6,2.6,9.2,5.3,13.7,7.9c2.8,1.6,3,3,0.5,4.4
					C489.6,391.4,485.5,393.7,481.4,396.1z"/>
				<path class="st4" d="M693.4,273.1c-2.9,1.7-5.8,3.4-8.7,5c-2.2,1.3-4.8,1.2-7.3-0.3c-4.8-2.7-9.5-5.5-14.2-8.2
					c-2.5-1.5-2.7-3-0.5-4.2c5.8-3.4,11.6-6.7,17.4-10c2.3-1.3,4.8-1.2,7.5,0.4c4.6,2.7,9.3,5.3,13.9,8c2.8,1.6,2.9,3,0.5,4.4
					C699.1,269.9,696.3,271.5,693.4,273.1z"/>
				<path class="st4" d="M513.9,376.8c-2.9,1.6-5.7,3.3-8.6,4.9c-2.3,1.3-4.7,1.3-7.3-0.2c-4.8-2.8-9.6-5.5-14.4-8.3
					c-2.4-1.4-2.6-2.8-0.5-4.1c5.9-3.4,11.7-6.8,17.7-10.2c2.1-1.2,4.6-1.1,7,0.3c4.9,2.8,9.7,5.6,14.6,8.4c2.3,1.3,2.4,2.8,0.5,4
					C519.9,373.4,516.9,375.1,513.9,376.8z"/>
				<path class="st4" d="M489.5,266.7c2.1-1.2,4.1-2.4,6.2-3.6s4.6-1.1,7,0.2c4.9,2.8,9.7,5.6,14.5,8.4c2.4,1.4,2.5,2.8,0.5,4.1
					c-4.1,2.5-8.3,4.9-12.6,7.3c-2.2,1.2-4.7,1.1-7.2-0.3c-4.8-2.7-9.5-5.4-14.2-8.2c-2.6-1.5-2.7-2.9-0.5-4.2
					C485.3,269.1,487.4,267.9,489.5,266.7z"/>
				<path class="st4" d="M437.6,321.8c-2.1,1.2-4.2,2.5-6.4,3.7c-2.1,1.2-4.6,1.1-7-0.3c-4.9-2.8-9.7-5.6-14.5-8.4
					c-2.4-1.4-2.5-2.8-0.5-4.1c4.1-2.5,8.3-4.9,12.6-7.3c2.1-1.2,4.6-1.1,7,0.3c4.9,2.8,9.7,5.6,14.5,8.4c2.4,1.4,2.4,2.8,0.4,4
					C441.8,319.5,439.7,320.6,437.6,321.8z"/>
				<path class="st4" d="M459.3,342.2c-2.1,1.2-4.1,2.4-6.2,3.6c-2.2,1.2-4.7,1.2-7.2-0.3c-4.8-2.7-9.6-5.5-14.4-8.3
					c-2.4-1.4-2.6-2.9-0.5-4.1c4.1-2.4,8.3-4.8,12.4-7.2c2.2-1.2,4.7-1.1,7.2,0.3c4.8,2.7,9.6,5.5,14.4,8.3c2.5,1.4,2.6,2.9,0.4,4.1
					C463.5,339.8,461.4,341,459.3,342.2z"/>
				<path class="st4" d="M523.8,338.2c-2.1,1.2-4.1,2.4-6.2,3.6c-2.2,1.2-4.7,1.2-7.2-0.3c-4.8-2.7-9.6-5.5-14.4-8.3
					c-2.5-1.4-2.6-2.9-0.5-4.2c4.1-2.4,8.3-4.8,12.4-7.2c2.2-1.2,4.7-1.1,7.2,0.3c4.8,2.7,9.6,5.5,14.4,8.3c2.5,1.4,2.6,2.9,0.5,4.1
					C528,335.8,525.9,337,523.8,338.2z"/>
				<path class="st4" d="M572.8,309.9c-2.1,1.2-4.2,2.5-6.4,3.7c-2,1.1-4.6,1.1-6.8-0.2c-5-2.8-9.9-5.6-14.7-8.5
					c-2.3-1.3-2.5-2.8-0.5-4c4.2-2.5,8.4-4.9,12.7-7.4c2.1-1.2,4.6-1.1,7,0.3c4.8,2.7,9.6,5.5,14.4,8.3c2.5,1.5,2.6,2.9,0.4,4.2
					C576.9,307.6,574.9,308.7,572.8,309.9z"/>
				<path class="st4" d="M585.3,237c-2.1,1.2-4.1,2.4-6.2,3.6c-2.2,1.2-4.7,1.2-7.2-0.2c-4.9-2.8-9.7-5.6-14.5-8.4
					c-2.3-1.3-2.5-2.8-0.5-4c4.2-2.5,8.5-5,12.9-7.4c2-1.1,4.5-1,6.7,0.3c5,2.8,10,5.7,14.9,8.6c2.2,1.3,2.2,2.7,0.4,3.8
					C589.6,234.6,587.4,235.8,585.3,237z"/>
				<path class="st4" d="M582.5,271.4c-2.1,1.2-4.1,2.4-6.2,3.6c-2.2,1.2-4.7,1.2-7.1-0.2c-4.9-2.8-9.7-5.6-14.5-8.4
					c-2.3-1.3-2.5-2.8-0.6-4c4.2-2.5,8.5-5,12.9-7.4c1.9-1.1,4.5-0.9,6.7,0.3c5,2.8,10,5.7,14.9,8.6c2.1,1.3,2.2,2.8,0.4,3.9
					C586.7,269,584.6,270.2,582.5,271.4z"/>
				<path class="st4" d="M539.9,250.2c-2.3-1.4-4.7-2.7-7-4.1c-2.4-1.4-2.6-2.8-0.6-4.1c4.2-2.5,8.4-4.9,12.7-7.4c2-1.1,4.7-1,7,0.4
					c4.8,2.8,9.6,5.5,14.4,8.3c2.4,1.4,2.6,2.9,0.4,4.1c-4.1,2.4-8.3,4.8-12.5,7.2c-2.2,1.2-4.6,1.1-7.2-0.3
					C544.8,253.1,542.3,251.7,539.9,250.2z"/>
				<path class="st4" d="M535.9,272.8c2-1.2,4-2.4,6.1-3.5c2.3-1.3,4.7-1.2,7.3,0.3c4.8,2.7,9.5,5.5,14.2,8.2
					c2.5,1.4,2.7,2.9,0.5,4.1c-4.1,2.4-8.3,4.8-12.4,7.2c-2.2,1.3-4.8,1.1-7.3-0.3c-4.8-2.7-9.5-5.5-14.2-8.2
					c-2.5-1.4-2.6-2.9-0.5-4.1C531.6,275.3,533.8,274.1,535.9,272.8z"/>
				<path class="st4" d="M511.2,287c2.1-1.2,4.1-2.4,6.2-3.6c2.2-1.2,4.6-1.1,7.2,0.3c4.8,2.7,9.6,5.5,14.4,8.3
					c2.5,1.4,2.6,2.9,0.4,4.1c-4.1,2.4-8.3,4.8-12.4,7.2c-2.2,1.2-4.7,1.1-7.2-0.3c-4.8-2.7-9.6-5.5-14.4-8.3
					c-2.4-1.4-2.5-2.9-0.4-4.1C507,289.4,509.1,288.2,511.2,287z"/>
				<path class="st4" d="M478.5,351.5c-2.4-1.4-4.8-2.8-7.2-4.2c-2.5-1.5-2.6-2.9-0.5-4.1c4.1-2.4,8.3-4.8,12.4-7.2
					c2.2-1.2,4.7-1.1,7.2,0.3c4.8,2.7,9.6,5.5,14.4,8.3c2.4,1.4,2.6,2.9,0.5,4.2c-4.1,2.4-8.3,4.8-12.4,7.2
					c-2.2,1.2-4.6,1.1-7.2-0.3C483.3,354.3,480.9,352.9,478.5,351.5z"/>
				<path class="st4" d="M548.1,324.1c-2.1,1.2-4.1,2.4-6.2,3.6c-2.1,1.2-4.6,1.1-7-0.3c-4.9-2.8-9.7-5.6-14.5-8.4
					c-2.3-1.4-2.5-2.8-0.5-4c4.2-2.4,8.4-4.9,12.6-7.3c2.1-1.2,4.7-1.1,7,0.3c4.9,2.8,9.7,5.6,14.5,8.4c2.3,1.4,2.4,2.9,0.4,4.1
					C552.4,321.7,550.3,322.9,548.1,324.1z"/>
				<path class="st4" d="M536,265.4c-2.1,1.2-4.1,2.4-6.2,3.6s-4.7,1.1-7.2-0.3c-4.8-2.7-9.5-5.5-14.2-8.2c-2.6-1.5-2.7-3-0.5-4.2
					c4.1-2.4,8.3-4.8,12.5-7.2c2.1-1.2,4.7-1.1,7.2,0.3c4.8,2.8,9.6,5.5,14.4,8.3c2.4,1.4,2.5,2.8,0.5,4
					C540.3,262.9,538.1,264.1,536,265.4z"/>
				<path class="st4" d="M411.6,324.2c2.3,1.4,4.7,2.7,7,4.1c2.5,1.5,2.7,2.9,0.5,4.2c-4.1,2.4-8.2,4.7-12.3,7.1
					c-2.3,1.3-4.7,1.2-7.3-0.3c-4.8-2.7-9.5-5.5-14.2-8.2c-2.6-1.5-2.8-2.9-0.5-4.2c4.1-2.4,8.2-4.8,12.3-7.1
					c2.3-1.3,4.8-1.2,7.5,0.4C406.9,321.5,409.3,322.8,411.6,324.2z"/>
				<path class="st4" d="M597.4,295.7c-2.1,1.2-4.2,2.5-6.4,3.7c-2.1,1.2-4.6,1.1-7-0.3c-4.8-2.8-9.6-5.5-14.4-8.3
					c-2.4-1.4-2.7-2.9-0.5-4.1c4.1-2.4,8.3-4.8,12.4-7.2c2.3-1.3,4.7-1.2,7.3,0.3c4.8,2.7,9.5,5.5,14.2,8.2c2.5,1.4,2.6,2.9,0.5,4.1
					C601.6,293.4,599.5,294.5,597.4,295.7z"/>
				<path class="st4" d="M607.1,257.3c-2.1,1.2-4.2,2.5-6.4,3.7c-2,1.1-4.5,1.1-6.8-0.2c-5-2.8-9.9-5.6-14.7-8.5
					c-2.2-1.3-2.4-2.7-0.5-3.9c4.2-2.5,8.5-5,12.9-7.5c2-1.1,4.5-1,6.9,0.3c4.9,2.8,9.8,5.6,14.6,8.4c2.4,1.4,2.5,2.8,0.4,4
					C611.2,254.9,609.1,256.1,607.1,257.3z"/>
				<path class="st4" d="M624.6,254.8c2.1-1.2,4.2-2.5,6.4-3.7c2-1.1,4.5-1.1,6.8,0.2c5,2.8,10,5.7,14.9,8.6
					c2.1,1.2,2.3,2.7,0.5,3.8c-4.3,2.5-8.6,5.1-13,7.5c-1.9,1.1-4.5,1-6.7-0.3c-5-2.8-9.9-5.6-14.7-8.5c-2.3-1.4-2.4-2.8-0.3-4
					C620.5,257.2,622.6,256,624.6,254.8z"/>
				<path class="st4" d="M482.4,316.1c2.5,1.4,4.9,2.8,7.4,4.3c2.4,1.4,2.6,2.8,0.5,4c-4.2,2.4-8.4,4.9-12.6,7.3
					c-2.2,1.2-4.6,1.1-7.2-0.4c-4.7-2.7-9.4-5.4-14.1-8.1c-2.6-1.5-2.9-2.9-0.7-4.2c4.1-2.4,8.3-4.8,12.5-7.2
					c2.3-1.3,4.7-1.1,7.3,0.4C477.8,313.4,480.1,314.8,482.4,316.1z"/>
				<path class="st4" d="M486.8,293.6c-2.1,1.2-4.1,2.4-6.2,3.6c-2.2,1.2-4.6,1.2-7.1-0.3c-4.8-2.8-9.6-5.5-14.4-8.3
					c-2.4-1.4-2.6-2.8-0.5-4c4.2-2.4,8.4-4.9,12.6-7.3c2.1-1.2,4.6-1.1,7,0.3c4.9,2.8,9.7,5.6,14.6,8.4c2.3,1.3,2.4,2.8,0.4,4
					C491.1,291.2,488.9,292.4,486.8,293.6z"/>
				<path class="st4" d="M462,307.8c-2,1.1-3.9,2.3-6,3.4c-2.3,1.3-4.7,1.2-7.3-0.3c-4.8-2.7-9.5-5.5-14.2-8.2
					c-2.5-1.4-2.7-2.9-0.5-4.1c4.1-2.4,8.3-4.8,12.5-7.2c2.3-1.3,4.7-1.2,7.3,0.4c4.7,2.7,9.4,5.4,14.1,8.1c2.6,1.5,2.8,2.9,0.5,4.2
					C466.2,305.4,464.1,306.6,462,307.8z"/>
				<path class="st4" d="M508.5,313.9c-2,1.2-4,2.4-6.1,3.5c-2.3,1.3-4.7,1.2-7.3-0.3c-4.8-2.7-9.5-5.5-14.2-8.2
					c-2.5-1.5-2.7-2.9-0.6-4.1c4.1-2.4,8.3-4.8,12.5-7.2c2.2-1.3,4.7-1.2,7.3,0.3c4.7,2.7,9.4,5.4,14.1,8.1c2.6,1.5,2.8,2.9,0.5,4.2
					C512.7,311.5,510.6,312.7,508.5,313.9z"/>
				<path class="st4" d="M631.7,243.2c-2.1,1.2-4.2,2.5-6.4,3.7c-2.1,1.2-4.6,1.1-7-0.3c-4.8-2.8-9.6-5.5-14.4-8.3
					c-2.4-1.4-2.6-2.8-0.6-4c4.2-2.5,8.5-4.9,12.8-7.4c2-1.1,4.5-1,6.8,0.3c4.9,2.8,9.7,5.6,14.6,8.4c2.4,1.4,2.5,2.8,0.4,4
					C635.9,240.8,633.8,242,631.7,243.2z"/>
				<path class="st4" d="M622,281.6c-2.1,1.2-4.1,2.4-6.2,3.6c-2.2,1.2-4.6,1.2-7.1-0.3c-4.8-2.8-9.6-5.5-14.4-8.3
					c-2.4-1.4-2.6-2.8-0.5-4c4.2-2.5,8.4-4.9,12.6-7.3c2.1-1.2,4.6-1.1,7,0.3c4.8,2.8,9.6,5.5,14.4,8.3c2.5,1.4,2.6,2.9,0.5,4.1
					C626.2,279.2,624.1,280.4,622,281.6z"/>
			</g>
		</g>
		<path class="st5" d="M716.6,337.1l-86.8,50.1c-5.7,3.3-15.8,2.9-22.4-0.9L574.9,367c-6.6-3.8-7.3-9.6-1.6-12.9l86.8-50.1
			c5.7-3.3,15.8-2.9,22.4,0.9l32.6,19.3C721.6,328,722.3,333.8,716.6,337.1z"/>
	</g>
</g>
<g>
	<g class="st6">
		<path class="st2" d="M353.7,117.4c-0.3,0.2-0.7,0.4-1,0.6c0,0.5,0,0.9-0.1,1.5c-0.7,0.4-1.4,0.8-2.1,1.2l0,0c0-0.4,0-0.9,0-1.4
			c0.3-0.2,0.7-0.4,1-0.7c0-0.4,0-0.8,0-1.3c-1,0.6-2,1.2-3.1,1.8c0-1.5,0-2.8,0-4.3c0.3-0.2,0.6-0.4,1-0.6c0-0.5,0-0.9,0-1.4
			c1.1-0.6,2.1-1.2,3.2-1.8c0-0.5,0.1-1,0.1-1.4c1.4-0.8,2.8-1.6,4.2-2.4c0,0.4,0,0.9,0,1.3c1.1-0.6,2.1-1.2,3.2-1.8
			c0,0.5,0,0.9,0.1,1.4c0.3-0.2,0.6-0.4,1-0.6c0,1.4,0,2.8,0,4.3c-1,0.6-2.1,1.2-3.1,1.8c0,0.5,0,0.9,0,1.4c0.3-0.2,0.6-0.4,1-0.6
			c0,0.5,0,1,0,1.5l0,0c-0.7,0.4-1.4,0.8-2.1,1.2c0-0.4,0-0.9-0.1-1.4c-0.4,0.2-0.7,0.4-1,0.6l0,0c0-0.5,0-0.9,0-1.4
			c-0.8,0.4-1.4,0.8-2.1,1.2C353.7,116.6,353.7,117,353.7,117.4L353.7,117.4z M353.7,113.3c-0.7,0.4-1.4,0.8-2.1,1.2
			c0,0.5,0,0.9,0,1.3c0.7-0.4,1.4-0.8,2.1-1.2C353.7,114.1,353.7,113.7,353.7,113.3z M355.9,113.3c0.7-0.4,1.4-0.8,2.1-1.2
			c0-0.5,0-0.9,0-1.3c-0.7,0.4-1.4,0.8-2.1,1.2C355.9,112.5,355.9,112.9,355.9,113.3z"/>
		<path class="st2" d="M359,115.8c0.7-0.4,1.4-0.8,2.1-1.2c0,0.5,0,0.9,0,1.4c-0.7,0.4-1.3,0.8-2.1,1.2
			C359.1,116.7,359.1,116.3,359,115.8C359.1,115.8,359,115.8,359,115.8z"/>
		<path class="st2" d="M350.5,120.7c0,0.4,0,0.9,0,1.4c-0.7,0.4-1.4,0.8-2.1,1.2c0-0.4,0-0.8,0-1.3
			C349.2,121.5,349.9,121.1,350.5,120.7C350.6,120.7,350.5,120.7,350.5,120.7z"/>
		<path class="st2" d="M355.9,116.2c0,0.4,0,0.9,0,1.4c-0.7,0.4-1.4,0.8-2.1,1.2c0-0.5,0-0.9,0-1.4l0,0
			C354.4,117.1,355.2,116.7,355.9,116.2L355.9,116.2z"/>
	</g>
	<g class="st6">
		<path class="st2" d="M477.5,227.7c-0.3,0.2-0.7,0.4-1,0.6c0,0.5,0,0.9-0.1,1.5c-0.7,0.4-1.4,0.8-2.1,1.2l0,0c0-0.4,0-0.9,0-1.4
			c0.3-0.2,0.7-0.4,1-0.7c0-0.4,0-0.8,0-1.3c-1,0.6-2,1.2-3.1,1.8c0-1.5,0-2.8,0-4.3c0.3-0.2,0.6-0.4,1-0.6c0-0.5,0-0.9,0-1.4
			c1.1-0.6,2.1-1.2,3.2-1.8c0-0.5,0.1-1,0.1-1.4c1.4-0.8,2.8-1.6,4.2-2.4c0,0.4,0,0.9,0,1.3c1.1-0.6,2.1-1.2,3.2-1.8
			c0,0.5,0,0.9,0.1,1.4c0.3-0.2,0.6-0.4,1-0.6c0,1.4,0,2.8,0,4.3c-1,0.6-2.1,1.2-3.1,1.8c0,0.5,0,0.9,0,1.4c0.3-0.2,0.6-0.4,1-0.6
			c0,0.5,0,1,0,1.5l0,0c-0.7,0.4-1.4,0.8-2.1,1.2c0-0.4,0-0.9-0.1-1.4c-0.4,0.2-0.7,0.4-1,0.6l0,0c0-0.5,0-0.9,0-1.4
			c-0.8,0.4-1.4,0.8-2.1,1.2C477.5,226.9,477.5,227.3,477.5,227.7L477.5,227.7z M477.4,223.6c-0.7,0.4-1.4,0.8-2.1,1.2
			c0,0.5,0,0.9,0,1.3c0.7-0.4,1.4-0.8,2.1-1.2C477.4,224.4,477.4,224,477.4,223.6z M479.6,223.6c0.7-0.4,1.4-0.8,2.1-1.2
			c0-0.5,0-0.9,0-1.3c-0.7,0.4-1.4,0.8-2.1,1.2C479.6,222.8,479.6,223.2,479.6,223.6z"/>
		<path class="st2" d="M482.8,226.1c0.7-0.4,1.4-0.8,2.1-1.2c0,0.5,0,0.9,0,1.4c-0.7,0.4-1.3,0.8-2.1,1.2
			C482.8,227,482.8,226.5,482.8,226.1L482.8,226.1z"/>
		<path class="st2" d="M474.3,231c0,0.4,0,0.9,0,1.4c-0.7,0.4-1.4,0.8-2.1,1.2c0-0.4,0-0.8,0-1.3C472.9,231.8,473.6,231.4,474.3,231
			L474.3,231z"/>
		<path class="st2" d="M479.6,226.5c0,0.4,0,0.9,0,1.4c-0.7,0.4-1.4,0.8-2.1,1.2c0-0.5,0-0.9,0-1.4l0,0
			C478.2,227.4,478.9,226.9,479.6,226.5L479.6,226.5z"/>
	</g>
	<g class="st7">
		<path class="st2" d="M577.4,121.8c-0.3,0.2-0.7,0.4-1,0.6c0,0.5,0,0.9-0.1,1.5c-0.7,0.4-1.4,0.8-2.1,1.2l0,0c0-0.4,0-0.9,0-1.4
			c0.3-0.2,0.7-0.4,1-0.7c0-0.4,0-0.8,0-1.3c-1,0.6-2,1.2-3.1,1.8c0-1.5,0-2.8,0-4.3c0.3-0.2,0.6-0.4,1-0.6c0-0.5,0-0.9,0-1.4
			c1.1-0.6,2.1-1.2,3.2-1.8c0-0.5,0.1-1,0.1-1.4c1.4-0.8,2.8-1.6,4.2-2.4c0,0.4,0,0.9,0,1.3c1.1-0.6,2.1-1.2,3.2-1.8
			c0,0.5,0,0.9,0.1,1.4c0.3-0.2,0.6-0.4,1-0.6c0,1.4,0,2.8,0,4.3c-1,0.6-2.1,1.2-3.1,1.8c0,0.5,0,0.9,0,1.4c0.3-0.2,0.6-0.4,1-0.6
			c0,0.5,0,1,0,1.5l0,0c-0.7,0.4-1.4,0.8-2.1,1.2c0-0.4,0-0.9-0.1-1.4c-0.4,0.2-0.7,0.4-1,0.6l0,0c0-0.5,0-0.9,0-1.4
			c-0.8,0.4-1.4,0.8-2.1,1.2C577.4,121,577.4,121.4,577.4,121.8L577.4,121.8z M577.4,117.7c-0.7,0.4-1.4,0.8-2.1,1.2
			c0,0.5,0,0.9,0,1.3c0.7-0.4,1.4-0.8,2.1-1.2C577.4,118.5,577.4,118.1,577.4,117.7z M579.5,117.7c0.7-0.4,1.4-0.8,2.1-1.2
			c0-0.5,0-0.9,0-1.3c-0.7,0.4-1.4,0.8-2.1,1.2C579.5,116.9,579.5,117.3,579.5,117.7z"/>
		<path class="st2" d="M582.7,120.2c0.7-0.4,1.4-0.8,2.1-1.2c0,0.5,0,0.9,0,1.4c-0.7,0.4-1.3,0.8-2.1,1.2
			C582.7,121.1,582.7,120.6,582.7,120.2L582.7,120.2z"/>
		<path class="st2" d="M574.2,125.1c0,0.4,0,0.9,0,1.4c-0.7,0.4-1.4,0.8-2.1,1.2c0-0.4,0-0.8,0-1.3
			C572.8,125.9,573.5,125.5,574.2,125.1L574.2,125.1z"/>
		<path class="st2" d="M579.5,120.6c0,0.4,0,0.9,0,1.4c-0.7,0.4-1.4,0.8-2.1,1.2c0-0.5,0-0.9,0-1.4l0,0
			C578.1,121.5,578.8,121,579.5,120.6L579.5,120.6z"/>
	</g>
	<g class="st7">
		<path class="st2" d="M400.4,217.6c-0.7,0.4-1.4,0.8-2.1,1.2c0,0.5,0,0.9,0,1.4c0.3-0.2,0.6-0.3,1-0.5c0,0.4,0,0.8,0,1.3
			c-0.7,0.4-1.3,0.8-2.1,1.2c0-0.4,0-0.8,0-1.3c-0.3,0.2-0.6,0.3-1,0.5c0-0.4,0-0.9,0-1.3c0.3-0.2,0.6-0.4,1-0.6c0-0.4,0-0.8,0-1.4
			c-0.7,0.4-1.3,0.8-2,1.2c0-1.5,0-2.8,0-4.3c0.3-0.2,0.6-0.4,1-0.6c0-0.5,0-0.9,0.1-1.5c1-0.6,2.1-1.2,3.1-1.8c0-0.5,0-0.9,0-1.4
			c1.4-0.8,2.8-1.6,4.2-2.5c0,0.4,0,0.8,0.1,1.3c1-0.6,2.1-1.2,3.1-1.8c0,0.5,0,0.9,0.1,1.4c0.3-0.2,0.7-0.3,1-0.5
			c0,1.4,0,2.7,0,4.2c-0.7,0.4-1.3,0.8-2.1,1.2c0,0.5,0,0.9,0,1.4c0.3-0.2,0.6-0.4,1-0.6c0,0.5,0,0.9,0,1.4c-0.3,0.2-0.6,0.4-1,0.7
			c0,0.4,0,0.8,0,1.3c-0.7,0.4-1.4,0.8-2.1,1.2c0-0.4,0-0.8,0-1.3c0.3-0.2,0.6-0.4,1-0.6c0-0.5,0-0.9,0-1.5
			c-0.7,0.4-1.4,0.8-2.1,1.2l0,0c0-0.5,0-0.9,0-1.4c-0.8,0.4-1.4,0.8-2.1,1.2C400.4,216.8,400.4,217.2,400.4,217.6L400.4,217.6z
			 M402.5,213.5c0.7-0.4,1.4-0.8,2.1-1.2c0-0.5,0-0.9,0-1.3c-0.7,0.4-1.4,0.8-2.1,1.2C402.5,212.7,402.5,213.1,402.5,213.5z
			 M398.3,216c0.7-0.4,1.4-0.8,2.1-1.2c0-0.5,0-0.9,0-1.3c-0.7,0.4-1.4,0.8-2.1,1.2C398.3,215.2,398.3,215.5,398.3,216z"/>
		<path class="st2" d="M402.5,216.4c0,0.4,0,0.9,0,1.4c-0.7,0.4-1.4,0.8-2.1,1.2c0-0.5,0-0.9,0-1.4l0,0
			C401.1,217.3,401.8,216.9,402.5,216.4L402.5,216.4z"/>
	</g>
	<g class="st8">
		<path class="st2" d="M602,140.6c-0.7,0.4-1.4,0.8-2.1,1.2c0,0.5,0,0.9,0,1.4c0.3-0.2,0.6-0.3,1-0.5c0,0.4,0,0.8,0,1.3
			c-0.7,0.4-1.3,0.8-2.1,1.2c0-0.4,0-0.8,0-1.3c-0.3,0.2-0.6,0.3-1,0.5c0-0.4,0-0.9,0-1.3c0.3-0.2,0.6-0.4,1-0.6c0-0.4,0-0.8,0-1.4
			c-0.7,0.4-1.3,0.8-2,1.2c0-1.5,0-2.8,0-4.3c0.3-0.2,0.6-0.4,1-0.6c0-0.5,0-0.9,0.1-1.5c1-0.6,2.1-1.2,3.1-1.8c0-0.5,0-0.9,0-1.4
			c1.4-0.8,2.8-1.6,4.2-2.5c0,0.4,0,0.8,0.1,1.3c1-0.6,2.1-1.2,3.1-1.8c0,0.5,0,0.9,0.1,1.4c0.3-0.2,0.7-0.3,1-0.5
			c0,1.4,0,2.7,0,4.2c-0.7,0.4-1.3,0.8-2.1,1.2c0,0.5,0,0.9,0,1.4c0.3-0.2,0.6-0.4,1-0.6c0,0.5,0,0.9,0,1.4c-0.3,0.2-0.6,0.4-1,0.7
			c0,0.4,0,0.8,0,1.3c-0.7,0.4-1.4,0.8-2.1,1.2c0-0.4,0-0.8,0-1.3c0.3-0.2,0.6-0.4,1-0.6c0-0.5,0-0.9,0-1.5
			c-0.7,0.4-1.4,0.8-2.1,1.2l0,0c0-0.5,0-0.9,0-1.4c-0.8,0.4-1.4,0.8-2.1,1.2C601.9,139.8,601.9,140.2,602,140.6L602,140.6z
			 M604.1,136.5c0.7-0.4,1.4-0.8,2.1-1.2c0-0.5,0-0.9,0-1.3c-0.7,0.4-1.4,0.8-2.1,1.2C604.1,135.7,604.1,136.1,604.1,136.5z
			 M599.8,139c0.7-0.4,1.4-0.8,2.1-1.2c0-0.5,0-0.9,0-1.3c-0.7,0.4-1.4,0.8-2.1,1.2C599.8,138.1,599.8,138.5,599.8,139z"/>
		<path class="st2" d="M604.1,139.4c0,0.4,0,0.9,0,1.4c-0.7,0.4-1.4,0.8-2.1,1.2c0-0.5,0-0.9,0-1.4l0,0
			C602.7,140.2,603.4,139.8,604.1,139.4L604.1,139.4z"/>
	</g>
	<g class="st9">
		<path class="st2" d="M351.1,294.3c0,0.4,0,0.9,0,1.4c0.4-0.2,0.7-0.3,1.1-0.5c0,0.4,0,0.8,0,1.3c0.4-0.2,0.7-0.4,1.1-0.6
			c0-0.9,0-1.8,0-2.7c0.4-0.2,0.7-0.4,1-0.6c0,1.8,0,3.7,0,5.6c-0.3,0.2-0.6,0.4-1,0.7c0,0.4,0,0.9,0,1.4c-0.3,0.2-0.6,0.4-1.1,0.6
			c0,0.6,0,1,0,1.5l0,0c-0.3,0.2-0.7,0.4-1,0.6c0-0.4,0-0.9-0.1-1.3c-1.8,1-3.5,2-5.3,3c0,0.4,0,0.9,0,1.4c-0.4,0.2-0.7,0.4-1.1,0.6
			l0,0c0-0.4,0-0.9,0-1.4c-0.4,0.2-0.7,0.3-1.1,0.5c0-0.4,0-0.8,0-1.3c-0.4,0.2-0.7,0.3-1,0.5c0-1.9,0-3.7,0-5.6
			c0.3-0.2,0.6-0.4,1-0.6c0,0.9,0,1.8,0,2.7c0.4-0.2,0.7-0.4,1.1-0.6c0-0.4,0-0.8,0-1.3c0.3-0.2,0.6-0.4,1.1-0.6c0-0.6,0-1,0-1.5
			l0,0c0.3-0.2,0.7-0.4,1-0.6c0,0.4,0,0.9,0.1,1.3c1-0.6,2-1.2,3.1-1.8c0-0.4,0-0.9,0.1-1.4C350.4,294.7,350.8,294.5,351.1,294.3
			L351.1,294.3z M351.1,297.2c-0.4,0.2-0.7,0.4-1,0.6c0,0.5,0,0.9,0,1.3c0.4-0.2,0.7-0.4,1-0.6C351.1,298,351.1,297.6,351.1,297.2z
			 M346.8,299.6c-0.4,0.2-0.7,0.4-1,0.6c0,0.5,0,0.9,0,1.3c0.4-0.2,0.7-0.4,1-0.6C346.8,300.5,346.8,300.1,346.8,299.6z"/>
		<path class="st2" d="M352.2,302.2c0.3-0.2,0.7-0.4,1-0.6c0,0.5,0,0.9,0,1.4c-0.3,0.2-0.6,0.4-1,0.6
			C352.2,303.1,352.2,302.6,352.2,302.2L352.2,302.2z"/>
		<path class="st2" d="M344.7,306.5c0,0.4,0,0.9,0,1.4c-0.3,0.2-0.7,0.4-1,0.6c0-0.4,0-0.8,0-1.3
			C344.1,306.9,344.4,306.7,344.7,306.5C344.8,306.5,344.7,306.5,344.7,306.5z"/>
		<path class="st2" d="M345.8,297.3c-0.3,0.2-0.7,0.4-1,0.6c0-0.4,0-0.9,0-1.3c0.3-0.2,0.6-0.4,1-0.6
			C345.8,296.5,345.8,296.9,345.8,297.3C345.8,297.4,345.8,297.3,345.8,297.3z"/>
		<path class="st2" d="M351.1,294.3c0-0.4,0-0.9,0-1.4c0.3-0.2,0.7-0.4,1-0.6c0,0.4,0,0.8,0,1.3
			C351.8,293.9,351.5,294.1,351.1,294.3L351.1,294.3z"/>
	</g>
	<g class="st8">
		<path class="st2" d="M553.6-9.3c0,0.4,0,0.9,0,1.4c0.4-0.2,0.7-0.3,1.1-0.5c0,0.4,0,0.8,0,1.3c0.4-0.2,0.7-0.4,1.1-0.6
			c0-0.9,0-1.8,0-2.7c0.4-0.2,0.7-0.4,1-0.6c0,1.8,0,3.7,0,5.6c-0.3,0.2-0.6,0.4-1,0.7c0,0.4,0,0.9,0,1.4c-0.3,0.2-0.6,0.4-1.1,0.6
			c0,0.6,0,1,0,1.5l0,0c-0.3,0.2-0.7,0.4-1,0.6c0-0.4,0-0.9-0.1-1.3c-1.8,1-3.5,2-5.3,3c0,0.4,0,0.9,0,1.4c-0.4,0.2-0.7,0.4-1.1,0.6
			l0,0c0-0.4,0-0.9,0-1.4c-0.4,0.2-0.7,0.3-1.1,0.5c0-0.4,0-0.8,0-1.3c-0.4,0.2-0.7,0.3-1,0.5c0-1.9,0-3.7,0-5.6
			c0.3-0.2,0.6-0.4,1-0.6c0,0.9,0,1.8,0,2.7c0.4-0.2,0.7-0.4,1.1-0.6c0-0.4,0-0.8,0-1.3c0.3-0.2,0.6-0.4,1.1-0.6c0-0.6,0-1,0-1.5
			l0,0c0.3-0.2,0.7-0.4,1-0.6c0,0.4,0,0.9,0.1,1.3c1-0.6,2-1.2,3.1-1.8c0-0.4,0-0.9,0.1-1.4C552.9-8.9,553.3-9.1,553.6-9.3
			L553.6-9.3z M553.6-6.4c-0.4,0.2-0.7,0.4-1,0.6c0,0.5,0,0.9,0,1.3c0.4-0.2,0.7-0.4,1-0.6C553.6-5.5,553.6-5.9,553.6-6.4z
			 M549.3-3.9c-0.4,0.2-0.7,0.4-1,0.6c0,0.5,0,0.9,0,1.3c0.4-0.2,0.7-0.4,1-0.6C549.3-3.1,549.3-3.5,549.3-3.9z"/>
		<path class="st2" d="M554.6-1.3c0.3-0.2,0.7-0.4,1-0.6c0,0.5,0,0.9,0,1.4c-0.3,0.2-0.6,0.4-1,0.6C554.7-0.5,554.7-0.9,554.6-1.3
			C554.7-1.4,554.6-1.3,554.6-1.3z"/>
		<path class="st2" d="M547.2,2.9c0,0.4,0,0.9,0,1.4c-0.3,0.2-0.7,0.4-1,0.6c0-0.4,0-0.8,0-1.3C546.5,3.3,546.9,3.1,547.2,2.9
			L547.2,2.9z"/>
		<path class="st2" d="M548.3-6.2c-0.3,0.2-0.7,0.4-1,0.6c0-0.4,0-0.9,0-1.3c0.3-0.2,0.6-0.4,1-0.6C548.3-7.1,548.3-6.6,548.3-6.2
			L548.3-6.2z"/>
		<path class="st2" d="M553.6-9.3c0-0.4,0-0.9,0-1.4c0.3-0.2,0.7-0.4,1-0.6c0,0.4,0,0.8,0,1.3C554.3-9.7,553.9-9.5,553.6-9.3
			L553.6-9.3z"/>
	</g>
	<g>
		<path class="st2" d="M569,74.3c0,0.4,0,0.9,0,1.4c0.4-0.2,0.7-0.3,1.1-0.5c0,0.4,0,0.8,0,1.3c0.4-0.2,0.7-0.4,1.1-0.6
			c0-0.9,0-1.8,0-2.7c0.4-0.2,0.7-0.4,1-0.6c0,1.8,0,3.7,0,5.6c-0.3,0.2-0.6,0.4-1,0.7c0,0.4,0,0.9,0,1.4c-0.3,0.2-0.6,0.4-1.1,0.6
			c0,0.6,0,1,0,1.5l0,0c-0.3,0.2-0.7,0.4-1,0.6c0-0.4,0-0.9-0.1-1.3c-1.8,1-3.5,2-5.3,3c0,0.4,0,0.9,0,1.4c-0.4,0.2-0.7,0.4-1.1,0.6
			l0,0c0-0.4,0-0.9,0-1.4c-0.4,0.2-0.7,0.3-1.1,0.5c0-0.4,0-0.8,0-1.3c-0.4,0.2-0.7,0.3-1,0.5c0-1.9,0-3.7,0-5.6
			c0.3-0.2,0.6-0.4,1-0.6c0,0.9,0,1.8,0,2.7c0.4-0.2,0.7-0.4,1.1-0.6c0-0.4,0-0.8,0-1.3c0.3-0.2,0.6-0.4,1.1-0.6c0-0.6,0-1,0-1.5
			l0,0c0.3-0.2,0.7-0.4,1-0.6c0,0.4,0,0.9,0.1,1.3c1-0.6,2-1.2,3.1-1.8c0-0.4,0-0.9,0.1-1.4C568.3,74.7,568.7,74.5,569,74.3
			L569,74.3z M569,77.2c-0.4,0.2-0.7,0.4-1,0.6c0,0.5,0,0.9,0,1.3c0.4-0.2,0.7-0.4,1-0.6C569,78.1,569,77.7,569,77.2z M564.7,79.7
			c-0.4,0.2-0.7,0.4-1,0.6c0,0.5,0,0.9,0,1.3c0.4-0.2,0.7-0.4,1-0.6C564.7,80.5,564.7,80.1,564.7,79.7z"/>
		<path class="st2" d="M570.1,82.2c0.3-0.2,0.7-0.4,1-0.6c0,0.5,0,0.9,0,1.4c-0.3,0.2-0.6,0.4-1,0.6
			C570.1,83.1,570.1,82.7,570.1,82.2L570.1,82.2z"/>
		<path class="st2" d="M562.6,86.5c0,0.4,0,0.9,0,1.4c-0.3,0.2-0.7,0.4-1,0.6c0-0.4,0-0.8,0-1.3C561.9,86.9,562.3,86.7,562.6,86.5
			L562.6,86.5z"/>
		<path class="st2" d="M563.7,77.4c-0.3,0.2-0.7,0.4-1,0.6c0-0.4,0-0.9,0-1.3c0.3-0.2,0.6-0.4,1-0.6C563.7,76.5,563.7,77,563.7,77.4
			L563.7,77.4z"/>
		<path class="st2" d="M569,74.3c0-0.4,0-0.9,0-1.4c0.3-0.2,0.7-0.4,1-0.6c0,0.4,0,0.8,0,1.3C569.7,73.9,569.3,74.1,569,74.3
			L569,74.3z"/>
	</g>
	<g class="st9">
		<path class="st2" d="M614.5,21.5c-0.3,0.2-0.7,0.4-1.1,0.6c0-0.9,0-1.8,0-2.8c-0.4,0.2-0.7,0.4-1,0.6c0,0.9,0,1.8,0,2.7
			c-0.4,0.2-0.7,0.4-1.1,0.6c0-1.4,0-2.7,0-4.2c0.3-0.2,0.6-0.4,1-0.6c0-0.5,0-0.9,0-1.4c0.4-0.3,0.7-0.5,1.1-0.7c0-0.4,0-0.8,0-1.3
			c0.4-0.2,0.7-0.4,1.1-0.6c0-0.6,0-1,0-1.5l0,0c0.3-0.2,0.7-0.4,1-0.6c0,0.4,0,0.9,0.1,1.3c1.1-0.6,2.1-1.2,3.2-1.8
			c0-0.4,0-0.9,0-1.4c0.4-0.2,0.7-0.4,1.1-0.6l0,0c0,0.4,0,0.9,0,1.4c0.4-0.2,0.7-0.3,1-0.5c0,0.4,0,0.8,0,1.3
			c0.3-0.2,0.6-0.3,1-0.5c0,0.4,0,0.8,0.1,1.3c0.3-0.2,0.7-0.3,1-0.5c0,1.4,0,2.7,0,4.2c-0.3,0.2-0.6,0.4-1,0.6c0-0.9,0-1.8,0-2.7
			c-0.4,0.2-0.7,0.4-1,0.6c0,0.9,0,1.8,0,2.8c-0.4,0.2-0.8,0.4-1.1,0.6l0,0c0-0.4,0-0.9,0-1.4c-1.8,1-3.5,2-5.3,3.1
			C614.5,20.6,614.5,21.1,614.5,21.5L614.5,21.5z M618.8,14.7c0.4-0.2,0.7-0.4,1-0.6c0-0.5,0-0.9,0-1.3c-0.3,0.2-0.7,0.4-1,0.6
			C618.8,13.8,618.8,14.2,618.8,14.7z M615.6,15.3c-0.4,0.2-0.7,0.4-1,0.6c0,0.5,0,0.9,0,1.3c0.4-0.2,0.7-0.4,1-0.6
			C615.6,16.2,615.6,15.8,615.6,15.3z"/>
		<path class="st2" d="M619.8,18.4c0,0.4,0,0.9,0,1.4c-0.7,0.4-1.4,0.8-2.1,1.2c0-0.4,0-0.8,0-1.3C618.5,19.2,619.2,18.8,619.8,18.4
			C619.9,18.4,619.8,18.4,619.8,18.4z"/>
		<path class="st2" d="M614.5,21.5c0.7-0.4,1.4-0.8,2.1-1.2c0,0.5,0,0.9,0,1.4c-0.7,0.4-1.3,0.8-2.1,1.2
			C614.5,22.4,614.5,21.9,614.5,21.5L614.5,21.5z"/>
		<path class="st2" d="M614.5,13c-0.3,0.2-0.7,0.4-1,0.6c0-0.4,0-0.9,0-1.4c0.3-0.2,0.6-0.4,1-0.6C614.5,12.1,614.5,12.5,614.5,13
			L614.5,13z"/>
		<path class="st2" d="M619.9,9.9c0-0.4,0-0.9,0-1.4c0.3-0.2,0.7-0.4,1-0.6c0,0.4,0,0.8,0,1.3C620.5,9.5,620.2,9.7,619.9,9.9
			C619.8,9.9,619.9,9.9,619.9,9.9z"/>
	</g>
	<g class="st7">
		<path class="st2" d="M522,178.3c-0.3,0.2-0.7,0.4-1.1,0.6c0-0.9,0-1.8,0-2.8c-0.4,0.2-0.7,0.4-1,0.6c0,0.9,0,1.8,0,2.7
			c-0.4,0.2-0.7,0.4-1.1,0.6c0-1.4,0-2.7,0-4.2c0.3-0.2,0.6-0.4,1-0.6c0-0.5,0-0.9,0-1.4c0.4-0.3,0.7-0.5,1.1-0.7c0-0.4,0-0.8,0-1.3
			c0.4-0.2,0.7-0.4,1.1-0.6c0-0.6,0-1,0-1.5l0,0c0.3-0.2,0.7-0.4,1-0.6c0,0.4,0,0.9,0.1,1.3c1.1-0.6,2.1-1.2,3.2-1.8
			c0-0.4,0-0.9,0-1.4c0.4-0.2,0.7-0.4,1.1-0.6l0,0c0,0.4,0,0.9,0,1.4c0.4-0.2,0.7-0.3,1-0.5c0,0.4,0,0.8,0,1.3
			c0.3-0.2,0.6-0.3,1-0.5c0,0.4,0,0.8,0.1,1.3c0.3-0.2,0.7-0.3,1-0.5c0,1.4,0,2.7,0,4.2c-0.3,0.2-0.6,0.4-1,0.6c0-0.9,0-1.8,0-2.7
			c-0.4,0.2-0.7,0.4-1,0.6c0,0.9,0,1.8,0,2.8c-0.4,0.2-0.8,0.4-1.1,0.6l0,0c0-0.4,0-0.9,0-1.4c-1.8,1-3.5,2-5.3,3.1
			C522,177.4,522,177.9,522,178.3L522,178.3z M526.3,171.5c0.4-0.2,0.7-0.4,1-0.6c0-0.5,0-0.9,0-1.3c-0.3,0.2-0.7,0.4-1,0.6
			C526.3,170.6,526.3,171,526.3,171.5z M523,172.1c-0.4,0.2-0.7,0.4-1,0.6c0,0.5,0,0.9,0,1.3c0.4-0.2,0.7-0.4,1-0.6
			C523,173,523,172.6,523,172.1z"/>
		<path class="st2" d="M527.3,175.2c0,0.4,0,0.9,0,1.4c-0.7,0.4-1.4,0.8-2.1,1.2c0-0.4,0-0.8,0-1.3
			C525.9,176,526.6,175.6,527.3,175.2L527.3,175.2z"/>
		<path class="st2" d="M522,178.3c0.7-0.4,1.4-0.8,2.1-1.2c0,0.5,0,0.9,0,1.4c-0.7,0.4-1.3,0.8-2.1,1.2
			C522,179.2,522,178.7,522,178.3L522,178.3z"/>
		<path class="st2" d="M522,169.8c-0.3,0.2-0.7,0.4-1,0.6c0-0.4,0-0.9,0-1.4c0.3-0.2,0.6-0.4,1-0.6C522,168.9,522,169.3,522,169.8
			L522,169.8z"/>
		<path class="st2" d="M527.3,166.7c0-0.4,0-0.9,0-1.4c0.3-0.2,0.7-0.4,1-0.6c0,0.4,0,0.8,0,1.3C528,166.3,527.6,166.5,527.3,166.7
			L527.3,166.7z"/>
	</g>
	<g class="st7">
		<path class="st2" d="M447.8,61.8c0-0.4,0-0.9,0-1.4c-0.7,0.4-1.4,0.8-2.1,1.2c0-1,0-1.9,0-2.8c0.3-0.2,0.6-0.4,1-0.6
			c0-0.5,0-0.9,0.1-1.4c0.3-0.2,0.7-0.4,1-0.7c0-0.4,0-0.8,0-1.3c0.4-0.2,0.7-0.4,1-0.6c0-0.5,0-1,0.1-1.4c0.7-0.4,1.4-0.8,2.1-1.2
			c0,0.4,0,0.9,0,1.3c0.4-0.2,0.7-0.3,1-0.5c0,0.4,0,0.9,0.1,1.3c0.3-0.2,0.6-0.4,1-0.6c0,0.5,0,0.9,0,1.4c0.4-0.2,0.7-0.3,1.1-0.5
			c0,0.9,0,1.8,0,2.8c-0.7,0.4-1.3,0.8-2.1,1.2c0,0.5,0,1,0,1.5l0,0c-0.4,0.2-0.7,0.4-1.1,0.6l0,0c0-0.5,0-0.9,0-1.4
			c-0.8,0.4-1.4,0.8-2.1,1.2c0,0.5,0,0.9,0,1.4l0,0C448.5,61.4,448.1,61.6,447.8,61.8L447.8,61.8z M451,55.7c0,0.5,0,0.9,0,1.3
			c0.4-0.2,0.7-0.4,1-0.6c0-0.5,0-0.9,0-1.3C451.7,55.3,451.4,55.5,451,55.7z M448.8,58.4c0-0.5,0-0.9,0-1.3c-0.4,0.2-0.7,0.4-1,0.6
			c0,0.5,0,0.9,0,1.3C448.2,58.7,448.5,58.5,448.8,58.4z"/>
		<path class="st2" d="M451,61.4c-0.7,0.4-1.4,0.8-2.1,1.2l0,0c0-0.5,0-1,0-1.4l0,0c0.7-0.4,1.4-0.8,2.1-1.2l0,0
			C451,60.4,451,60.9,451,61.4L451,61.4z"/>
		<path class="st2" d="M448.8,62.6c0,0.4,0,0.9,0,1.4c-0.3,0.2-0.7,0.4-1,0.6c0-0.5,0-0.9,0-1.4l0,0C448.1,63,448.5,62.8,448.8,62.6
			L448.8,62.6z"/>
		<path class="st2" d="M446.7,63.8c0,0.5,0,0.9,0,1.4c-0.3,0.2-0.6,0.4-1,0.6c0-0.4,0-0.8,0-1.4C446,64.2,446.3,64,446.7,63.8
			L446.7,63.8z"/>
		<path class="st2" d="M452,60.8c0,0.4,0,0.9,0,1.4c-0.3,0.2-0.7,0.4-1,0.6c0-0.5,0-0.9,0-1.4l0,0C451.3,61.2,451.7,61,452,60.8
			L452,60.8z"/>
		<path class="st2" d="M447.8,63.2c-0.4,0.2-0.7,0.4-1.1,0.6l0,0c0-0.4,0-0.9,0-1.4c0.4-0.2,0.7-0.4,1.1-0.6l0,0
			C447.8,62.3,447.8,62.8,447.8,63.2L447.8,63.2z"/>
		<path class="st2" d="M453.1,60.1c0,0.5,0,0.9,0,1.4c0.3-0.2,0.6-0.4,1-0.6c0-0.4,0-0.8,0-1.4C453.8,59.7,453.5,59.9,453.1,60.1
			L453.1,60.1z"/>
		<path class="st2" d="M452,60.8c0.4-0.2,0.7-0.4,1.1-0.7l0,0c0-0.4,0-0.9,0-1.4c-0.4,0.2-0.7,0.4-1.1,0.6l0,0
			C452.1,59.8,452.1,60.3,452,60.8C452.1,60.8,452,60.8,452,60.8z"/>
	</g>
	<g class="st10">
		<path class="st2" d="M583.6,25.2c0-0.4,0-0.9,0-1.4c-0.7,0.4-1.4,0.8-2.1,1.2c0-1,0-1.9,0-2.8c0.3-0.2,0.6-0.4,1-0.6
			c0-0.5,0-0.9,0.1-1.4c0.3-0.2,0.7-0.4,1-0.7c0-0.4,0-0.8,0-1.3c0.4-0.2,0.7-0.4,1-0.6c0-0.5,0-1,0.1-1.4c0.7-0.4,1.4-0.8,2.1-1.2
			c0,0.4,0,0.9,0,1.3c0.4-0.2,0.7-0.3,1-0.5c0,0.4,0,0.9,0.1,1.3c0.3-0.2,0.6-0.4,1-0.6c0,0.5,0,0.9,0,1.4c0.4-0.2,0.7-0.3,1.1-0.5
			c0,0.9,0,1.8,0,2.8c-0.7,0.4-1.3,0.8-2.1,1.2c0,0.5,0,1,0,1.5l0,0c-0.4,0.2-0.7,0.4-1.1,0.6l0,0c0-0.5,0-0.9,0-1.4
			c-0.8,0.4-1.4,0.8-2.1,1.2c0,0.5,0,0.9,0,1.4l0,0C584.3,24.7,584,24.9,583.6,25.2L583.6,25.2z M586.9,19.1c0,0.5,0,0.9,0,1.3
			c0.4-0.2,0.7-0.4,1-0.6c0-0.5,0-0.9,0-1.3C587.5,18.7,587.2,18.9,586.9,19.1z M584.7,21.7c0-0.5,0-0.9,0-1.3
			c-0.4,0.2-0.7,0.4-1,0.6c0,0.5,0,0.9,0,1.3C584,22.1,584.3,21.9,584.7,21.7z"/>
		<path class="st2" d="M586.8,24.7c-0.7,0.4-1.4,0.8-2.1,1.2l0,0c0-0.5,0-1,0-1.4l0,0c0.7-0.4,1.4-0.8,2.1-1.2l0,0
			C586.8,23.8,586.8,24.3,586.8,24.7L586.8,24.7z"/>
		<path class="st2" d="M584.7,26c0,0.4,0,0.9,0,1.4c-0.3,0.2-0.7,0.4-1,0.6c0-0.5,0-0.9,0-1.4l0,0C584,26.4,584.3,26.2,584.7,26
			L584.7,26z"/>
		<path class="st2" d="M582.5,27.2c0,0.5,0,0.9,0,1.4c-0.3,0.2-0.6,0.4-1,0.6c0-0.4,0-0.8,0-1.4C581.9,27.6,582.2,27.4,582.5,27.2
			C582.6,27.2,582.5,27.2,582.5,27.2z"/>
		<path class="st2" d="M587.9,24.1c0,0.4,0,0.9,0,1.4c-0.3,0.2-0.7,0.4-1,0.6c0-0.5,0-0.9,0-1.4l0,0
			C587.2,24.5,587.5,24.3,587.9,24.1L587.9,24.1z"/>
		<path class="st2" d="M583.6,26.6c-0.4,0.2-0.7,0.4-1.1,0.6l0,0c0-0.4,0-0.9,0-1.4c0.4-0.2,0.7-0.4,1.1-0.6l0,0
			C583.6,25.6,583.6,26.1,583.6,26.6L583.6,26.6z"/>
		<path class="st2" d="M589,23.4c0,0.5,0,0.9,0,1.4c0.3-0.2,0.6-0.4,1-0.6c0-0.4,0-0.8,0-1.4C589.7,23.1,589.3,23.3,589,23.4
			C589,23.5,589,23.4,589,23.4z"/>
		<path class="st2" d="M587.9,24.1c0.4-0.2,0.7-0.4,1.1-0.7l0,0c0-0.4,0-0.9,0-1.4c-0.4,0.2-0.7,0.4-1.1,0.6l0,0
			C587.9,23.2,587.9,23.6,587.9,24.1L587.9,24.1z"/>
	</g>
	<g class="st11">
		<path class="st2" d="M377,162.1c0-0.4,0-0.9-0.1-1.4c-0.3,0.2-0.6,0.3-1,0.5c0-0.9,0-1.8,0-2.8c0.3-0.2,0.6-0.4,1-0.6
			c0-0.4,0-0.9,0.1-1.4c0.3-0.2,0.6-0.4,1-0.7c0-0.5,0-0.9,0.1-1.4c0.3-0.2,0.6-0.4,1-0.6c0-0.5,0-0.9,0-1.4
			c0.7-0.4,1.4-0.8,2.1-1.2c0,0.4,0,0.8,0,1.3c0.4-0.2,0.7-0.4,1-0.6c0,0.5,0,0.9,0.1,1.4c0.3-0.2,0.6-0.4,1-0.6c0,0.5,0,0.9,0,1.4
			c0.4-0.2,0.7-0.3,1.1-0.5c0,0.9,0,1.8,0,2.8c-0.3,0.2-0.6,0.4-1,0.7c0,0.5,0,0.9,0,1.4l0,0c-0.3,0.2-0.7,0.4-1,0.6
			c0-0.4,0-0.9-0.1-1.3c-0.3,0.2-0.7,0.4-1,0.6c0,0.4,0,0.8,0,1.3c-0.7,0.4-1.4,0.8-2.1,1.2c0-0.4,0-0.8-0.1-1.3
			c-0.3,0.2-0.7,0.4-1,0.6c0,0.4,0,0.8,0,1.3C377.7,161.7,377.3,161.9,377,162.1L377,162.1z M381.2,156.8c0.4-0.2,0.7-0.4,1-0.6
			c0-0.5,0-0.9,0-1.3c-0.4,0.2-0.7,0.4-1,0.6C381.2,155.9,381.2,156.3,381.2,156.8z M378.1,157.2c0,0.5,0,0.9,0,1.3
			c0.4-0.2,0.7-0.4,1-0.6c0-0.5,0-0.9,0-1.3C378.7,156.9,378.4,157,378.1,157.2z"/>
		<path class="st2" d="M376.9,163.6c0.3-0.2,0.7-0.4,1-0.6c0,0.4,0,0.9,0,1.3c-0.3,0.2-0.6,0.4-1,0.6C377,164.4,377,164,376.9,163.6
			L376.9,163.6z"/>
		<path class="st2" d="M383.3,159.8c0,0.5,0,0.9,0,1.4c-0.3,0.2-0.6,0.4-1,0.6c0-0.4,0-0.8,0-1.4C382.6,160.2,383,160,383.3,159.8
			C383.3,159.9,383.3,159.8,383.3,159.8z"/>
		<path class="st2" d="M383.3,158.5c0.3-0.2,0.7-0.4,1-0.6c0,0.4,0,0.9,0,1.4c-0.3,0.2-0.7,0.4-1.1,0.6l0,0
			C383.3,159.4,383.3,158.9,383.3,158.5C383.3,158.4,383.3,158.5,383.3,158.5z"/>
		<path class="st2" d="M377,163.5c-0.3,0.2-0.7,0.4-1,0.6c0-0.4,0-0.9,0-1.4c0.3-0.2,0.7-0.4,1-0.6l0,0
			C377,162.6,377,163.1,377,163.5C376.9,163.6,377,163.5,377,163.5z"/>
	</g>
	<g>
		<path class="st2" d="M425.3,241.3c0-0.4,0-0.9-0.1-1.4c-0.3,0.2-0.6,0.3-1,0.5c0-0.9,0-1.8,0-2.8c0.3-0.2,0.6-0.4,1-0.6
			c0-0.4,0-0.9,0.1-1.4c0.3-0.2,0.6-0.4,1-0.7c0-0.5,0-0.9,0.1-1.4c0.3-0.2,0.6-0.4,1-0.6c0-0.5,0-0.9,0-1.4
			c0.7-0.4,1.4-0.8,2.1-1.2c0,0.4,0,0.8,0,1.3c0.4-0.2,0.7-0.4,1-0.6c0,0.5,0,0.9,0.1,1.4c0.3-0.2,0.6-0.4,1-0.6c0,0.5,0,0.9,0,1.4
			c0.4-0.2,0.7-0.3,1.1-0.5c0,0.9,0,1.8,0,2.8c-0.3,0.2-0.6,0.4-1,0.7c0,0.5,0,0.9,0,1.4l0,0c-0.3,0.2-0.7,0.4-1,0.6
			c0-0.4,0-0.9-0.1-1.3c-0.3,0.2-0.7,0.4-1,0.6c0,0.4,0,0.8,0,1.3c-0.7,0.4-1.4,0.8-2.1,1.2c0-0.4,0-0.8-0.1-1.3
			c-0.3,0.2-0.7,0.4-1,0.6c0,0.4,0,0.8,0,1.3C426,240.8,425.6,241.1,425.3,241.3L425.3,241.3z M429.6,235.9c0.4-0.2,0.7-0.4,1-0.6
			c0-0.5,0-0.9,0-1.3c-0.4,0.2-0.7,0.4-1,0.6C429.6,235.1,429.6,235.5,429.6,235.9z M426.4,236.4c0,0.5,0,0.9,0,1.3
			c0.4-0.2,0.7-0.4,1-0.6c0-0.5,0-0.9,0-1.3C427,236,426.7,236.2,426.4,236.4z"/>
		<path class="st2" d="M425.3,242.7c0.3-0.2,0.7-0.4,1-0.6c0,0.4,0,0.9,0,1.3c-0.3,0.2-0.6,0.4-1,0.6
			C425.3,243.6,425.3,243.1,425.3,242.7L425.3,242.7z"/>
		<path class="st2" d="M431.6,239c0,0.5,0,0.9,0,1.4c-0.3,0.2-0.6,0.4-1,0.6c0-0.4,0-0.8,0-1.4C431,239.4,431.3,239.2,431.6,239
			C431.7,239,431.6,239,431.6,239z"/>
		<path class="st2" d="M431.7,237.6c0.3-0.2,0.7-0.4,1-0.6c0,0.4,0,0.9,0,1.4c-0.3,0.2-0.7,0.4-1.1,0.6l0,0
			C431.7,238.5,431.7,238,431.7,237.6L431.7,237.6z"/>
		<path class="st2" d="M425.3,242.7c-0.3,0.2-0.7,0.4-1,0.6c0-0.4,0-0.9,0-1.4c0.3-0.2,0.7-0.4,1-0.6l0,0
			C425.3,241.8,425.3,242.2,425.3,242.7L425.3,242.7z"/>
	</g>
</g>
<g>
	<line class="st12" x1="428.3" y1="108.9" x2="419.1" y2="114.3"/>
	<g>
		<g>
			<path class="st13" d="M556,15.6v121.2l-141.8,81.8V97.5L556,15.6 M558.1,12l-146,84.3v126.1l146-84.3V12L558.1,12z"/>
		</g>
		<line class="st12" x1="558.1" y1="41.7" x2="413.2" y2="125.4"/>
		<g>
			<line class="st12" x1="440.4" y1="89.8" x2="448.2" y2="96.8"/>
			<line class="st12" x1="448.2" y1="85.3" x2="440.4" y2="101.4"/>
		</g>
		<line class="st12" x1="434.3" y1="84.3" x2="434.3" y2="113.2"/>
		<line class="st12" x1="454.1" y1="73.4" x2="454.1" y2="102"/>
	</g>
	<line class="st14" x1="487" y1="139.3" x2="497" y2="133.5"/>
	<g>
		<line class="st14" x1="424.3" y1="153.7" x2="463.1" y2="131.3"/>
		<line class="st15" x1="424.3" y1="137.2" x2="463.1" y2="114.7"/>
		<line class="st14" x1="424.3" y1="161" x2="463.1" y2="138.6"/>
		<line class="st14" x1="424.3" y1="168.3" x2="463.1" y2="145.8"/>
		<line class="st14" x1="424.3" y1="175.6" x2="463.1" y2="153.1"/>
		<line class="st14" x1="424.3" y1="182.8" x2="463.1" y2="160.4"/>
		<line class="st14" x1="424.3" y1="190.1" x2="449.9" y2="175.3"/>
		<line class="st14" x1="487" y1="117.5" x2="502.9" y2="108.3"/>
		<line class="st14" x1="487" y1="124.8" x2="500.2" y2="117.2"/>
		<line class="st14" x1="487" y1="132" x2="506.2" y2="121"/>
		<line class="st14" x1="487" y1="146.6" x2="500.9" y2="138.6"/>
		<line class="st14" x1="487" y1="153.9" x2="502.9" y2="144.7"/>
		<line class="st14" x1="515.4" y1="137.5" x2="523.7" y2="132.7"/>
		<line class="st14" x1="515.4" y1="130.2" x2="522.3" y2="126.3"/>
		<line class="st14" x1="515.4" y1="123" x2="525.4" y2="117.2"/>
		<line class="st14" x1="515.4" y1="115.7" x2="520.6" y2="112.7"/>
		<line class="st14" x1="515.4" y1="108.4" x2="522.6" y2="104.2"/>
		<line class="st14" x1="515.4" y1="101.1" x2="523.7" y2="96.3"/>
		<line class="st14" x1="535.5" y1="125.9" x2="543.8" y2="121.1"/>
		<line class="st14" x1="535.5" y1="118.6" x2="542.4" y2="114.6"/>
		<line class="st14" x1="535.5" y1="111.3" x2="545.5" y2="105.5"/>
		<line class="st14" x1="535.5" y1="104.1" x2="540.7" y2="101"/>
		<line class="st14" x1="535.5" y1="96.8" x2="542.8" y2="92.6"/>
		<line class="st15" x1="487" y1="100.9" x2="500.2" y2="93.3"/>
		<line class="st15" x1="515.4" y1="84.6" x2="522.6" y2="80.4"/>
		<line class="st15" x1="535.5" y1="72.9" x2="542.8" y2="68.7"/>
		<line class="st14" x1="535.5" y1="89.5" x2="543.8" y2="84.7"/>
	</g>
	<g>
		<g>
			<line class="st16" x1="494" y1="175" x2="494" y2="175.2"/>
			<line class="st17" x1="494" y1="179.3" x2="494" y2="225.8"/>
			<line class="st16" x1="494" y1="227.8" x2="494" y2="228"/>
		</g>
	</g>
	<g>
		<path class="st2" d="M470.8,84.5c-0.5,0.8-1.3,1.6-2.3,2.1c-1.6,0.9-2.6,0.6-3.4,0c-1.1-1-1.5-2.5-1.5-4.5c0-2.6,0.7-4.8,1.5-6.4
			c0.9-1.9,2.1-3.1,3.4-3.8c0.6-0.4,1.4-0.6,2.3-0.4v3.2c-0.8-1-1.9-0.5-2.2-0.3c-1.8,1.1-3,4.1-3,6.7c0,3.1,1.6,3.9,3.1,3
			c0.9-0.5,1.6-1.5,2.1-2.8V84.5z"/>
		<path class="st2" d="M476,82.1l-1.3,0.8l-3.2-12.3l1.9-1.1l2,8.4l2.2-11l1-0.6l2.1,8.5L483,64l1.9-1.1L481.5,79l-1.3,0.8l-2-7.8
			L476,82.1z"/>
		<path class="st2" d="M488.6,60.7c1-0.6,1.7-0.8,2.4-0.3c0.7,0.6,0.9,1.8,0.9,2.9c0,0.5-0.1,2.1-0.8,3.6c-0.5,1.1-1.3,2-2.3,2.6
			l-1.2,0.7v5.2l-1.8,1V62.3L488.6,60.7z M487.7,67.7l0.7-0.4c0.3-0.2,0.8-0.5,1.2-1.1c0.3-0.6,0.5-1.3,0.5-1.9
			c0-0.8-0.2-1.2-0.5-1.3c-0.4-0.2-0.8,0-1.3,0.3l-0.6,0.4L487.7,67.7L487.7,67.7z"/>
		<path class="st2" d="M498.2,55.1v11.7l2.8-1.6v2.4l-4.6,2.7V56.2L498.2,55.1z"/>
		<path class="st2" d="M502.9,52c0.5-0.3,1,0.1,1,1s-0.5,1.8-1,2.1s-1-0.1-1-1S502.4,52.3,502.9,52z M503.7,56.9v9.2l-1.7,1v-9.2
			L503.7,56.9z"/>
		<path class="st2" d="M505.3,56l1.7-1v1.2c0.3-0.9,0.9-2,1.8-2.5c0.5-0.3,1.3-0.5,1.8,0.1c0.4,0.5,0.5,1.4,0.5,2.3v5.8l-1.7,1v-5
			c0-0.5,0-1.3-0.3-1.6s-0.6-0.1-0.8,0c-0.4,0.3-0.8,0.7-1,1.4s-0.3,1.4-0.3,1.9v4.7l-1.7,1V56z"/>
		<path class="st2" d="M514.3,50.8V56c0,0.5,0,1.1,0.4,1.4c0.2,0.2,0.5,0.2,0.9,0c0.3-0.2,0.6-0.6,0.9-1c0.3-0.7,0.4-1.3,0.4-1.8
			v-5.2l1.7-1V54c0,0.8-0.1,2-0.7,3.2c-0.5,1.1-1.4,1.9-2.2,2.3c-0.7,0.4-1.6,0.6-2.2,0.2c-0.7-0.5-0.7-1.6-0.7-2.4v-5.6L514.3,50.8
			z"/>
		<path class="st2" d="M522,50.6l-2.3-2.8l2.1-1.2l1.2,1.7l1.2-3.1l2.1-1.2l-2.3,5.5l2.8,3.4l-2.1,1.2l-1.7-2.2l-1.7,4.2l-2.1,1.2
			L522,50.6z"/>
		<path class="st2" d="M540.5,37.8c0,4.3-2,8.5-4.9,10.2c-2.9,1.7-4.9-0.2-4.9-4.5s2-8.5,4.9-10.2C538.5,31.6,540.5,33.5,540.5,37.8
			z M538.6,38.9c0-2.9-1.3-4.2-3.1-3.1s-3.1,3.8-3.1,6.6c0,2.9,1.3,4.1,3.1,3.1S538.6,41.7,538.6,38.9z"/>
		<path class="st2" d="M546.6,30.4c-0.5-0.8-1.2-0.5-1.5-0.3c-1,0.6-1.3,1.7-1.3,2.4c0,0.3,0.1,0.6,0.3,0.8c0.2,0.2,0.5,0.2,1.1,0.2
			c0.7,0,1.4,0,1.9,0.3c0.4,0.3,0.8,1.1,0.8,2.5c0,2.7-1.3,5.4-3.2,6.5c-1.7,1-2.7,0-3.2-0.8l1.2-2.4c0.4,1.1,1.3,1.1,1.9,0.8
			c0.8-0.5,1.4-1.6,1.4-2.8c0-0.5-0.1-0.8-0.4-1.1s-0.9-0.2-1.4-0.2s-1.1,0-1.5-0.3c-0.3-0.2-0.7-0.8-0.7-2.2c0-2.1,0.9-4.7,2.9-5.8
			c0.6-0.3,1.7-0.8,2.6,0.2L546.6,30.4z"/>
	</g>
</g>
<g>
	<polygon points="365.5,379.2 365.5,373.4 390,387.8 390,393.6 	"/>
	<path class="st2" d="M366,374.2l23.5,13.8v4.7L366,378.9V374.2 M365,372.5v7l25.5,15v-7L365,372.5L365,372.5z"/>
</g>
<g>
	<g>
		<g>
			<polygon points="339.5,392.7 339.5,387.8 364.5,379.4 389.3,387.6 389.3,392.6 364.2,407 			"/>
			<path class="st2" d="M364.5,380.5l23.7,7.9v3.6l-24,13.8l-23.7-13.7v-3.6L364.5,380.5 M364.5,378.3l-26.1,8.8v6.3l25.8,14.9
				l26.1-15.1v-6.3L364.5,378.3L364.5,378.3z"/>
		</g>
		<g>
			<polygon points="340.5,387 364.5,373.2 388.2,386.9 364.2,400.7 			"/>
			<path class="st2" d="M364.5,374.4l21.6,12.5l-21.9,12.6L342.6,387L364.5,374.4 M364.5,372l-26.1,15l25.8,14.9l26.1-15.1
				L364.5,372L364.5,372z"/>
		</g>
		<line class="st18" x1="364.4" y1="400.1" x2="364.4" y2="406"/>
	</g>
	<g>
		<polygon points="200.9,458.5 200.9,447 341.9,378.3 396.6,397.4 396.6,408.8 255.7,490.1 		"/>
		<path class="st2" d="M341.9,379.4l53.6,18.7v10.1l-139.8,80.7l-53.7-31v-10.2L341.9,379.4 M341.8,377.2l-141.9,69.1v12.8
			l55.9,32.3l141.9-81.9v-12.8L341.8,377.2L341.8,377.2z"/>
	</g>
	<g>
		<polygon points="202,446.3 341.8,365.6 395.5,396.6 255.7,477.3 		"/>
		<path class="st2" d="M341.8,366.8l51.6,29.8l-137.7,79.5l-51.6-29.8L341.8,366.8 M341.8,364.4l-141.9,81.9l55.9,32.3l141.9-81.9
			L341.8,364.4L341.8,364.4z"/>
	</g>
	<g>
		<g>
			<path class="st2" d="M256.7,452.3c0.1,0,0.1-0.1,0.2-0.1c0,0,0,0,0.1-0.1c0.5-0.4,0.4-1.1-0.3-1.5c-0.7-0.4-1.4-0.8-2.1-1.2
				c-0.1-0.1-0.1-0.1-0.1-0.2c0.4-0.4,0.8-0.9,0.9-1.5c0-0.1,0.1-0.2,0.1-0.3c0.1,0,0.1,0.1,0.2,0.1c0.6,0.3,1.2,0.7,1.8,1
				c0.9,0.5,2.3,0.5,3-0.1c0.6-0.5,0.3-1.1-0.5-1.6c-2.5-1.5-5.1-2.9-7.6-4.4c-0.4-0.2-0.9-0.5-1.3-0.7c-1.4-0.6-2.9-1-4.6-1.2
				c-0.3,0-0.7-0.1-1-0.1l0,0c0,0.1,0,0.2,0.1,0.4c0.1,0.7,0.2,1.3,0.2,2c3.4,0.2,5.7,1.9,5.8,3.5c0.1,1.5-1.9,2.7-4.5,2.7
				c-1.4,0-2.8-0.3-3.9-0.8c-1.4-0.7-2.1-1.5-2.3-2.5c-1.4-0.1-2.7-0.1-4.1-0.2c0.1,0.5,0.2,1,0.5,1.4c0.6,0.9,1.4,1.8,2.7,2.5
				c2.6,1.5,5.2,3,7.8,4.5c0.4,0.3,0.9,0.4,1.5,0.4c0.9,0,1.5-0.2,1.8-0.7c0.3-0.4,0.1-0.9-0.6-1.3c-0.6-0.4-1.2-0.7-1.8-1
				c0,0-0.1-0.1-0.2-0.1c1.2-0.1,2.3-0.3,3.3-0.6c0.1,0,0.1,0.1,0.2,0.1c0.7,0.4,1.4,0.8,2.1,1.2c0.6,0.4,1.4,0.5,2.1,0.4
				C256.3,452.5,256.5,452.4,256.7,452.3z"/>
		</g>
		<g>
			<path class="st2" d="M247.8,447.1c0.8-0.5,0.7-1.4-0.2-1.9c-1.1-0.6-2.5-0.6-3.4-0.1c-0.8,0.5-0.7,1.4,0.3,1.9
				S246.9,447.6,247.8,447.1z"/>
		</g>
	</g>
	<g>
		<path class="st2" d="M250.6,419.4l51.6,29.8l-3.7,2.2l-51.6-29.8L250.6,419.4 M250.6,416.9l-8,4.6l55.9,32.3l8-4.6L250.6,416.9
			L250.6,416.9z"/>
	</g>
	<line class="st18" x1="291.3" y1="394.2" x2="344.3" y2="424.9"/>
	<polyline class="st18" points="337.8,368.5 390.7,399.2 390.7,411.6 	"/>
	<g>
		<path class="st2" d="M338.8,388.3c4.6,0,9.1,1.1,12.6,3.1c3,1.8,4.8,4,4.8,6s-1.7,3.4-3.1,4.2c-2.4,1.4-5.7,2.1-9.4,2.1
			c-4.6,0-9.1-1.1-12.6-3.1c-3-1.8-4.8-4-4.8-6s1.7-3.4,3.1-4.2C331.7,389.1,335.1,388.3,338.8,388.3 M338.8,386.2
			c-3.9,0-7.7,0.8-10.5,2.4c-6.2,3.6-5.4,9.8,1.7,13.9c3.9,2.3,8.9,3.4,13.6,3.4c3.9,0,7.7-0.8,10.5-2.4c6.2-3.6,5.4-9.8-1.7-13.9
			C348.5,387.3,343.5,386.2,338.8,386.2L338.8,386.2z"/>
	</g>
	<line class="st18" x1="255.7" y1="477.3" x2="255.7" y2="489.6"/>
	<g>
		<g>
			<path class="st13" d="M291.4,400.8l43.2,24.9l-30.1,17.2L261.3,418L291.4,400.8 M291.4,398.4L257,418l47.4,27.4l34.3-19.6
				L291.4,398.4L291.4,398.4z"/>
		</g>
		<g>
			<line class="st12" x1="324.7" y1="427" x2="288.8" y2="406.2"/>
			<path class="st12" d="M291.4,415.2c-4.8-2.8-2.7-1.6-7.5-4.3"/>
			<path class="st12" d="M317.8,430.4c-4-2.3-12.9-7.4-16.9-9.8"/>
			<path class="st12" d="M286.5,417.4c-4.8-2.8-4.7-2.7-9.5-5.5"/>
			<path class="st12" d="M312.9,432.7c-4-2.3-8.9-5.1-12.9-7.4"/>
			<path class="st12" d="M282.5,420.1c-4.8-2.8-1.9-1.1-6.7-3.9"/>
			<path class="st12" d="M308.9,435.4c-4-2.3-15.5-8.9-19.5-11.3"/>
		</g>
	</g>
</g>
</svg>
