<?xml version="1.0" encoding="utf-8"?>
<!-- Generator: Adobe Illustrator 22.0.0, SVG Export Plug-In . SVG Version: 6.00 Build 0)  -->
<svg version="1.1" id="Слой_1" xmlns="http://www.w3.org/2000/svg" xmlns:xlink="http://www.w3.org/1999/xlink" x="0px" y="0px"
	 viewBox="0 0 1000 1000" style="enable-background:new 0 0 1000 1000;" xml:space="preserve">
<style type="text/css">
	.st0{stroke:#FFFFFF;stroke-width:3.5232;stroke-linejoin:round;stroke-miterlimit:10;}
	.st1{fill:none;stroke:#1210FF;stroke-width:2.1139;stroke-miterlimit:10;}
	.st2{fill:#FFFFFF;}
	.st3{stroke:#FFFFFF;stroke-width:3.5232;stroke-miterlimit:10;}
	.st4{stroke:#FFFFFF;stroke-width:1.4042;stroke-linejoin:round;stroke-miterlimit:10;}
	.st5{stroke:#FFFFFF;stroke-width:1.5;stroke-linejoin:round;stroke-miterlimit:10;}
	.st6{opacity:0.3;}
	.st7{opacity:0.8;}
	.st8{opacity:0.4;}
	.st9{opacity:0.2;}
	.st10{opacity:0.7;}
	.st11{opacity:0.5;}
	.st12{fill:none;stroke:#00C9FF;stroke-width:2.1139;stroke-miterlimit:10;}
	.st13{fill:#00C9FF;}
	.st14{fill:none;stroke:#00C9FF;stroke-width:1.7616;stroke-miterlimit:10;}
	.st15{fill:none;stroke:#00C9FF;stroke-width:3.5232;stroke-miterlimit:10;}
	.st16{fill:none;stroke:#00C9FF;stroke-width:2.1139;stroke-linecap:round;stroke-linejoin:round;}
	.st17{fill:none;stroke:#00C9FF;stroke-width:2.1139;stroke-linecap:round;stroke-linejoin:round;stroke-dasharray:0.3392,4.0701;}
	.st18{stroke:#FFFFFF;stroke-width:2.1139;stroke-miterlimit:10;}
	.st19{fill:none;stroke:#FFFFFF;stroke-width:2.1139;stroke-miterlimit:10;}
</style>
<g>
	<g>
		<g>
			<path class="st0" d="M444.9,269.7L131.6,450.9l-0.5-251.4c0-9.2,5.7-20.1,12.6-24.1L432.3,8.8c6.9-4,12.6,0.3,12.6,9.5V269.7z"/>
			<path class="st1" d="M438.5,256.4L137.5,430.2V203.2c0-5.2,3.2-11.3,7.1-13.6L431.4,24c3.9-2.3,7.1,0.2,7.1,5.4V256.4z"/>
		</g>
	</g>
	<g>
		<ellipse transform="matrix(0.3916 -0.9202 0.9202 0.3916 83.2988 325.7792)" class="st2" cx="288" cy="99.9" rx="3" ry="1.7"/>
	</g>
</g>
<g>
	<path class="st3" d="M131.6,463.9v-13.5l313.8-167.6l187.6,95.8c8,4.6,5.5,22.7-1.5,26.7L342.8,571.8c-6.9,4-19.1,3.5-27.1-1.1
		L131.6,463.9z"/>
	<g>
		<path class="st0" d="M131.6,450.4l313.8-181.2l184.1,106.8c8,4.6,8.9,11.7,1.9,15.7L342.8,558.3c-6.9,4-19.1,3.5-27.1-1.1
			L131.6,450.4z"/>
		<g id="F2AOKh.tif_2_">
			<g>
				<path class="st4" d="M461.6,298.1c0.8,1.7-0.3,2.8-2.1,3.9c-16.2,9.3-32.4,18.7-48.6,28c-3.1,1.8-5.2,1.7-8.8-0.4
					c-4.4-2.5-8.7-5-13-7.5c-3-1.7-3.2-3.1-0.6-4.6c16.6-9.6,33.1-19.1,49.7-28.7c1.7-1,3.7-1.1,6.1-0.7
					C450,291.3,455.8,294.7,461.6,298.1z"/>
				<path class="st4" d="M518.2,330.7c1.1,1.6,0.3,2.7-1.5,3.8c-15.1,8.6-30.1,17.3-45.1,26c-3,1.7-5.1,1.6-8.6-0.4
					c-4.2-2.4-8.4-4.8-12.6-7.2c-3.7-2.2-3.9-3.3-0.7-5.1c15-8.6,30-17.3,44.9-26c1.8-1.1,3.8-1.5,6.5-0.9
					C506.8,324.2,512.5,327.4,518.2,330.7z"/>
				<path class="st4" d="M222,481.2c-1-1.7-0.1-2.8,1.9-3.9c13.2-7.5,26.3-15.2,39.5-22.7c3.1-1.8,5.1-1.7,8.8,0.4
					c4.4,2.5,8.7,5,13.1,7.5c2.9,1.7,3.1,3.1,0.6,4.5c-13.5,7.8-27,15.6-40.4,23.4c-1.8,1-3.8,1.2-6.2,0.7
					C233.4,487.8,227.7,484.5,222,481.2z"/>
				<path class="st4" d="M489,313.9c1.2,1.6,0.4,2.7-1.4,3.8c-10.5,6-20.9,12-31.3,18.1c-3,1.7-5.1,1.6-8.6-0.4
					c-4.4-2.5-8.8-5.1-13.2-7.6c-2.9-1.7-3.1-3-0.6-4.5c10.5-6.1,21.1-12.1,31.5-18.3c1.8-1.1,3.8-1.5,6.5-1
					C477.6,307.3,483.3,310.6,489,313.9z"/>
				<path class="st4" d="M193.5,464.8c-1-1.6-0.2-2.7,1.7-3.8c9.7-5.5,19.3-11.1,29-16.7c2.8-1.6,5-1.5,8.3,0.4
					c4.5,2.6,9,5.2,13.5,7.8c2.7,1.6,2.9,3,0.6,4.3c-9.9,5.8-19.9,11.5-29.8,17.2c-1.7,1-3.7,1.2-6.1,0.6
					C204.9,471.4,199.2,468.1,193.5,464.8z"/>
				<path class="st4" d="M165.4,448.6c-1.2-1.6-0.7-2.8,1.3-3.9c3.9-2.1,7.7-4.4,11.5-6.6c2.7-1.5,4.9-1.5,7.9,0.3
					c4.6,2.6,9.1,5.3,13.7,7.9c2.8,1.6,3,3,0.6,4.4c-3.8,2.2-7.7,4.4-11.4,6.6c-1.9,1.2-4,1.6-6.9,0.9
					C176.5,455,170.9,451.8,165.4,448.6z"/>
				<path class="st4" d="M409.7,428.9c-22.8,13.1-45.5,26.3-68.3,39.4c-3,1.7-5.1,1.7-8.6-0.3c-4.2-2.4-8.4-4.8-12.6-7.2
					c-3.8-2.2-4-3.3-0.7-5.2c27.2-15.7,54.3-31.4,81.5-47c18.2-10.5,36.4-21,54.7-31.6c3.3-1.9,5.3-1.8,9.1,0.4
					c4.3,2.5,8.6,5,12.9,7.4c3,1.7,3.2,3.1,0.6,4.6C455.4,402.6,432.5,415.8,409.7,428.9z"/>
				<path class="st4" d="M532.7,357.9c-4,2.3-8,4.6-12,6.9c-2.7,1.5-4.9,1.5-7.9-0.3c-4.6-2.6-9.2-5.3-13.7-7.9
					c-2.8-1.6-3-3-0.5-4.4c8.2-4.8,16.4-9.5,24.6-14.2c2.5-1.4,4.9-1.3,7.7,0.3c4.6,2.7,9.3,5.3,13.9,8c2.8,1.6,3,3,0.5,4.4
					C541.1,353.1,536.9,355.5,532.7,357.9z"/>
				<path class="st4" d="M287.4,500.1c-4,2.3-8,4.6-12,6.9c-2.9,1.6-5,1.6-8.3-0.3c-4.5-2.6-9-5.2-13.5-7.8c-2.8-1.6-3-3-0.5-4.4
					c8.2-4.7,16.4-9.5,24.6-14.2c2.5-1.5,4.8-1.4,7.8,0.4c4.6,2.6,9.2,5.3,13.7,7.9c2.8,1.6,3,3,0.5,4.4
					C295.6,495.4,291.5,497.7,287.4,500.1z"/>
				<path class="st4" d="M499.4,377.1c-2.9,1.7-5.8,3.4-8.7,5c-2.2,1.3-4.8,1.2-7.3-0.3c-4.8-2.7-9.5-5.5-14.2-8.2
					c-2.5-1.5-2.7-3-0.5-4.2c5.8-3.4,11.6-6.7,17.4-10c2.3-1.3,4.8-1.2,7.5,0.4c4.6,2.7,9.3,5.3,13.9,8c2.8,1.6,2.9,3,0.5,4.4
					C505.1,373.9,502.3,375.5,499.4,377.1z"/>
				<path class="st4" d="M319.9,480.8c-2.9,1.6-5.7,3.3-8.6,4.9c-2.3,1.3-4.7,1.3-7.3-0.2c-4.8-2.8-9.6-5.5-14.4-8.3
					c-2.4-1.4-2.6-2.8-0.5-4.1c5.9-3.4,11.7-6.8,17.7-10.2c2.1-1.2,4.6-1.1,7,0.3c4.9,2.8,9.7,5.6,14.6,8.4c2.3,1.3,2.4,2.8,0.5,4
					C325.9,477.4,322.9,479.1,319.9,480.8z"/>
				<path class="st4" d="M295.5,370.7c2.1-1.2,4.1-2.4,6.2-3.6c2.1-1.2,4.6-1.1,7,0.2c4.9,2.8,9.7,5.6,14.5,8.4
					c2.4,1.4,2.5,2.8,0.5,4.1c-4.1,2.5-8.3,4.9-12.6,7.3c-2.2,1.2-4.7,1.1-7.2-0.3c-4.8-2.7-9.5-5.4-14.2-8.2
					c-2.6-1.5-2.7-2.9-0.5-4.2C291.3,373.1,293.4,371.9,295.5,370.7z"/>
				<path class="st4" d="M243.6,425.8c-2.1,1.2-4.2,2.5-6.4,3.7c-2.1,1.2-4.6,1.1-7-0.3c-4.9-2.8-9.7-5.6-14.5-8.4
					c-2.4-1.4-2.5-2.8-0.5-4.1c4.1-2.5,8.3-4.9,12.6-7.3c2.1-1.2,4.6-1.1,7,0.3c4.9,2.8,9.7,5.6,14.5,8.4c2.4,1.4,2.4,2.8,0.4,4
					C247.8,423.5,245.7,424.6,243.6,425.8z"/>
				<path class="st4" d="M265.3,446.2c-2.1,1.2-4.1,2.4-6.2,3.6c-2.2,1.2-4.7,1.2-7.2-0.3c-4.8-2.7-9.6-5.5-14.4-8.3
					c-2.4-1.4-2.6-2.9-0.5-4.1c4.1-2.4,8.3-4.8,12.4-7.2c2.2-1.2,4.7-1.1,7.2,0.3c4.8,2.7,9.6,5.5,14.4,8.3c2.5,1.4,2.6,2.9,0.4,4.1
					C269.5,443.8,267.4,445,265.3,446.2z"/>
				<path class="st4" d="M329.8,442.2c-2.1,1.2-4.1,2.4-6.2,3.6c-2.2,1.2-4.7,1.2-7.2-0.3c-4.8-2.7-9.6-5.5-14.4-8.3
					c-2.5-1.4-2.6-2.9-0.5-4.2c4.1-2.4,8.3-4.8,12.4-7.2c2.2-1.2,4.7-1.1,7.2,0.3c4.8,2.7,9.6,5.5,14.4,8.3c2.5,1.4,2.6,2.9,0.5,4.1
					C334,439.8,331.9,441,329.8,442.2z"/>
				<path class="st4" d="M378.8,413.9c-2.1,1.2-4.2,2.5-6.4,3.7c-2,1.1-4.6,1.1-6.8-0.2c-5-2.8-9.9-5.6-14.7-8.5
					c-2.3-1.3-2.5-2.8-0.5-4c4.2-2.5,8.4-4.9,12.7-7.4c2.1-1.2,4.6-1.1,7,0.3c4.8,2.7,9.6,5.5,14.4,8.3c2.5,1.5,2.6,2.9,0.4,4.2
					C382.9,411.6,380.9,412.7,378.8,413.9z"/>
				<path class="st4" d="M391.3,341c-2.1,1.2-4.1,2.4-6.2,3.6c-2.2,1.2-4.7,1.2-7.2-0.2c-4.9-2.8-9.7-5.6-14.5-8.4
					c-2.3-1.3-2.5-2.8-0.5-4c4.2-2.5,8.5-5,12.9-7.4c2-1.1,4.5-1,6.7,0.3c5,2.8,10,5.7,14.9,8.6c2.2,1.3,2.2,2.7,0.4,3.8
					C395.6,338.6,393.4,339.8,391.3,341z"/>
				<path class="st4" d="M388.5,375.4c-2.1,1.2-4.1,2.4-6.2,3.6c-2.2,1.2-4.7,1.2-7.1-0.2c-4.9-2.8-9.7-5.6-14.5-8.4
					c-2.3-1.3-2.5-2.8-0.6-4c4.2-2.5,8.5-5,12.9-7.4c1.9-1.1,4.5-0.9,6.7,0.3c5,2.8,10,5.7,14.9,8.6c2.1,1.3,2.2,2.8,0.4,3.9
					C392.7,373,390.6,374.2,388.5,375.4z"/>
				<path class="st4" d="M345.9,354.2c-2.3-1.4-4.7-2.7-7-4.1c-2.4-1.4-2.6-2.8-0.6-4.1c4.2-2.5,8.4-4.9,12.7-7.4c2-1.1,4.7-1,7,0.4
					c4.8,2.8,9.6,5.5,14.4,8.3c2.4,1.4,2.6,2.9,0.4,4.1c-4.1,2.4-8.3,4.8-12.5,7.2c-2.2,1.2-4.6,1.1-7.2-0.3
					C350.8,357.1,348.3,355.7,345.9,354.2z"/>
				<path class="st4" d="M341.9,376.8c2-1.2,4-2.4,6.1-3.5c2.3-1.3,4.7-1.2,7.3,0.3c4.8,2.7,9.5,5.5,14.2,8.2
					c2.5,1.4,2.7,2.9,0.5,4.1c-4.1,2.4-8.3,4.8-12.4,7.2c-2.2,1.3-4.8,1.1-7.3-0.3c-4.8-2.7-9.5-5.5-14.2-8.2
					c-2.5-1.4-2.6-2.9-0.5-4.1C337.6,379.3,339.8,378.1,341.9,376.8z"/>
				<path class="st4" d="M317.2,391c2.1-1.2,4.1-2.4,6.2-3.6c2.2-1.2,4.6-1.1,7.2,0.3c4.8,2.7,9.6,5.5,14.4,8.3
					c2.5,1.4,2.6,2.9,0.4,4.1c-4.1,2.4-8.3,4.8-12.4,7.2c-2.2,1.2-4.7,1.1-7.2-0.3c-4.8-2.7-9.6-5.5-14.4-8.3
					c-2.4-1.4-2.5-2.9-0.4-4.1C313,393.4,315.1,392.2,317.2,391z"/>
				<path class="st4" d="M284.5,455.5c-2.4-1.4-4.8-2.8-7.2-4.2c-2.5-1.5-2.6-2.9-0.5-4.1c4.1-2.4,8.3-4.8,12.4-7.2
					c2.2-1.2,4.7-1.1,7.2,0.3c4.8,2.7,9.6,5.5,14.4,8.3c2.4,1.4,2.6,2.9,0.5,4.2c-4.1,2.4-8.3,4.8-12.4,7.2
					c-2.2,1.2-4.6,1.1-7.2-0.3C289.3,458.3,286.9,456.9,284.5,455.5z"/>
				<path class="st4" d="M354.1,428.1c-2.1,1.2-4.1,2.4-6.2,3.6c-2.1,1.2-4.6,1.1-7-0.3c-4.9-2.8-9.7-5.6-14.5-8.4
					c-2.3-1.4-2.5-2.8-0.5-4c4.2-2.4,8.4-4.9,12.6-7.3c2.1-1.2,4.7-1.1,7,0.3c4.9,2.8,9.7,5.6,14.5,8.4c2.3,1.4,2.4,2.9,0.4,4.1
					C358.4,425.7,356.3,426.9,354.1,428.1z"/>
				<path class="st4" d="M342,369.4c-2.1,1.2-4.1,2.4-6.2,3.6c-2.1,1.2-4.7,1.1-7.2-0.3c-4.8-2.7-9.5-5.5-14.2-8.2
					c-2.6-1.5-2.7-3-0.5-4.2c4.1-2.4,8.3-4.8,12.5-7.2c2.1-1.2,4.7-1.1,7.2,0.3c4.8,2.8,9.6,5.5,14.4,8.3c2.4,1.4,2.5,2.8,0.5,4
					C346.3,366.9,344.1,368.1,342,369.4z"/>
				<path class="st4" d="M217.6,428.2c2.3,1.4,4.7,2.7,7,4.1c2.5,1.5,2.7,2.9,0.5,4.2c-4.1,2.4-8.2,4.7-12.3,7.1
					c-2.3,1.3-4.7,1.2-7.3-0.3c-4.8-2.7-9.5-5.5-14.2-8.2c-2.6-1.5-2.8-2.9-0.5-4.2c4.1-2.4,8.2-4.8,12.3-7.1
					c2.3-1.3,4.8-1.2,7.5,0.4C212.9,425.5,215.3,426.8,217.6,428.2z"/>
				<path class="st4" d="M403.4,399.7c-2.1,1.2-4.2,2.5-6.4,3.7c-2.1,1.2-4.6,1.1-7-0.3c-4.8-2.8-9.6-5.5-14.4-8.3
					c-2.4-1.4-2.7-2.9-0.5-4.1c4.1-2.4,8.3-4.8,12.4-7.2c2.3-1.3,4.7-1.2,7.3,0.3c4.8,2.7,9.5,5.5,14.2,8.2c2.5,1.4,2.6,2.9,0.5,4.1
					C407.6,397.4,405.5,398.5,403.4,399.7z"/>
				<path class="st4" d="M413.1,361.3c-2.1,1.2-4.2,2.5-6.4,3.7c-2,1.1-4.5,1.1-6.8-0.2c-5-2.8-9.9-5.6-14.7-8.5
					c-2.2-1.3-2.4-2.7-0.5-3.9c4.2-2.5,8.5-5,12.9-7.5c2-1.1,4.5-1,6.9,0.3c4.9,2.8,9.8,5.6,14.6,8.4c2.4,1.4,2.5,2.8,0.4,4
					C417.2,358.9,415.1,360.1,413.1,361.3z"/>
				<path class="st4" d="M430.6,358.8c2.1-1.2,4.2-2.5,6.4-3.7c2-1.1,4.5-1.1,6.8,0.2c5,2.8,10,5.7,14.9,8.6
					c2.1,1.2,2.3,2.7,0.5,3.8c-4.3,2.5-8.6,5.1-13,7.5c-1.9,1.1-4.5,1-6.7-0.3c-5-2.8-9.9-5.6-14.7-8.5c-2.3-1.4-2.4-2.8-0.3-4
					C426.5,361.2,428.6,360,430.6,358.8z"/>
				<path class="st4" d="M288.4,420.1c2.5,1.4,4.9,2.8,7.4,4.3c2.4,1.4,2.6,2.8,0.5,4c-4.2,2.4-8.4,4.9-12.6,7.3
					c-2.2,1.2-4.6,1.1-7.2-0.4c-4.7-2.7-9.4-5.4-14.1-8.1c-2.6-1.5-2.9-2.9-0.7-4.2c4.1-2.4,8.3-4.8,12.5-7.2
					c2.3-1.3,4.7-1.1,7.3,0.4C283.8,417.4,286.1,418.8,288.4,420.1z"/>
				<path class="st4" d="M292.8,397.6c-2.1,1.2-4.1,2.4-6.2,3.6c-2.2,1.2-4.6,1.2-7.1-0.3c-4.8-2.8-9.6-5.5-14.4-8.3
					c-2.4-1.4-2.6-2.8-0.5-4c4.2-2.4,8.4-4.9,12.6-7.3c2.1-1.2,4.6-1.1,7,0.3c4.9,2.8,9.7,5.6,14.6,8.4c2.3,1.3,2.4,2.8,0.4,4
					C297.1,395.2,294.9,396.4,292.8,397.6z"/>
				<path class="st4" d="M268,411.8c-2,1.1-3.9,2.3-6,3.4c-2.3,1.3-4.7,1.2-7.3-0.3c-4.8-2.7-9.5-5.5-14.2-8.2
					c-2.5-1.4-2.7-2.9-0.5-4.1c4.1-2.4,8.3-4.8,12.5-7.2c2.3-1.3,4.7-1.2,7.3,0.4c4.7,2.7,9.4,5.4,14.1,8.1c2.6,1.5,2.8,2.9,0.5,4.2
					C272.2,409.4,270.1,410.6,268,411.8z"/>
				<path class="st4" d="M314.5,417.9c-2,1.2-4,2.4-6.1,3.5c-2.3,1.3-4.7,1.2-7.3-0.3c-4.8-2.7-9.5-5.5-14.2-8.2
					c-2.5-1.5-2.7-2.9-0.6-4.1c4.1-2.4,8.3-4.8,12.5-7.2c2.2-1.3,4.7-1.2,7.3,0.3c4.7,2.7,9.4,5.4,14.1,8.1c2.6,1.5,2.8,2.9,0.5,4.2
					C318.7,415.5,316.6,416.7,314.5,417.9z"/>
				<path class="st4" d="M437.7,347.2c-2.1,1.2-4.2,2.5-6.4,3.7c-2.1,1.2-4.6,1.1-7-0.3c-4.8-2.8-9.6-5.5-14.4-8.3
					c-2.4-1.4-2.6-2.8-0.6-4c4.2-2.5,8.5-4.9,12.8-7.4c2-1.1,4.5-1,6.8,0.3c4.9,2.8,9.7,5.6,14.6,8.4c2.4,1.4,2.5,2.8,0.4,4
					C441.9,344.8,439.8,346,437.7,347.2z"/>
				<path class="st4" d="M428,385.6c-2.1,1.2-4.1,2.4-6.2,3.6c-2.2,1.2-4.6,1.2-7.1-0.3c-4.8-2.8-9.6-5.5-14.4-8.3
					c-2.4-1.4-2.6-2.8-0.5-4c4.2-2.5,8.4-4.9,12.6-7.3c2.1-1.2,4.6-1.1,7,0.3c4.8,2.8,9.6,5.5,14.4,8.3c2.5,1.4,2.6,2.9,0.5,4.1
					C432.2,383.2,430.1,384.4,428,385.6z"/>
			</g>
		</g>
		<path class="st5" d="M522.6,441.1l-86.8,50.1c-5.7,3.3-15.8,2.9-22.4-0.9L380.9,471c-6.6-3.8-7.3-9.6-1.6-12.9l86.8-50.1
			c5.7-3.3,15.8-2.9,22.4,0.9l32.6,19.3C527.6,432,528.3,437.8,522.6,441.1z"/>
	</g>
</g>
<g>
	<g class="st6">
		<path class="st2" d="M159.7,221.4c-0.3,0.2-0.7,0.4-1,0.6c0,0.5,0,0.9-0.1,1.5c-0.7,0.4-1.4,0.8-2.1,1.2l0,0c0-0.4,0-0.9,0-1.4
			c0.3-0.2,0.7-0.4,1-0.7c0-0.4,0-0.8,0-1.3c-1,0.6-2,1.2-3.1,1.8c0-1.5,0-2.8,0-4.3c0.3-0.2,0.6-0.4,1-0.6c0-0.5,0-0.9,0-1.4
			c1.1-0.6,2.1-1.2,3.2-1.8c0-0.5,0.1-1,0.1-1.4c1.4-0.8,2.8-1.6,4.2-2.4c0,0.4,0,0.9,0,1.3c1.1-0.6,2.1-1.2,3.2-1.8
			c0,0.5,0,0.9,0.1,1.4c0.3-0.2,0.6-0.4,1-0.6c0,1.4,0,2.8,0,4.3c-1,0.6-2.1,1.2-3.1,1.8c0,0.5,0,0.9,0,1.4c0.3-0.2,0.6-0.4,1-0.6
			c0,0.5,0,1,0,1.5l0,0c-0.7,0.4-1.4,0.8-2.1,1.2c0-0.4,0-0.9-0.1-1.4c-0.4,0.2-0.7,0.4-1,0.6l0,0c0-0.5,0-0.9,0-1.4
			c-0.8,0.4-1.4,0.8-2.1,1.2C159.7,220.6,159.7,221,159.7,221.4L159.7,221.4z M159.7,217.3c-0.7,0.4-1.4,0.8-2.1,1.2
			c0,0.5,0,0.9,0,1.3c0.7-0.4,1.4-0.8,2.1-1.2C159.7,218.1,159.7,217.7,159.7,217.3z M161.9,217.3c0.7-0.4,1.4-0.8,2.1-1.2
			c0-0.5,0-0.9,0-1.3c-0.7,0.4-1.4,0.8-2.1,1.2C161.9,216.5,161.9,216.9,161.9,217.3z"/>
		<path class="st2" d="M165,219.8c0.7-0.4,1.4-0.8,2.1-1.2c0,0.5,0,0.9,0,1.4c-0.7,0.4-1.3,0.8-2.1,1.2
			C165.1,220.7,165.1,220.3,165,219.8C165.1,219.8,165,219.8,165,219.8z"/>
		<path class="st2" d="M156.5,224.7c0,0.4,0,0.9,0,1.4c-0.7,0.4-1.4,0.8-2.1,1.2c0-0.4,0-0.8,0-1.3
			C155.2,225.5,155.9,225.1,156.5,224.7C156.6,224.7,156.5,224.7,156.5,224.7z"/>
		<path class="st2" d="M161.9,220.2c0,0.4,0,0.9,0,1.4c-0.7,0.4-1.4,0.8-2.1,1.2c0-0.5,0-0.9,0-1.4l0,0
			C160.4,221.1,161.2,220.7,161.9,220.2L161.9,220.2z"/>
	</g>
	<g class="st6">
		<path class="st2" d="M283.5,331.7c-0.3,0.2-0.7,0.4-1,0.6c0,0.5,0,0.9-0.1,1.5c-0.7,0.4-1.4,0.8-2.1,1.2l0,0c0-0.4,0-0.9,0-1.4
			c0.3-0.2,0.7-0.4,1-0.7c0-0.4,0-0.8,0-1.3c-1,0.6-2,1.2-3.1,1.8c0-1.5,0-2.8,0-4.3c0.3-0.2,0.6-0.4,1-0.6c0-0.5,0-0.9,0-1.4
			c1.1-0.6,2.1-1.2,3.2-1.8c0-0.5,0.1-1,0.1-1.4c1.4-0.8,2.8-1.6,4.2-2.4c0,0.4,0,0.9,0,1.3c1.1-0.6,2.1-1.2,3.2-1.8
			c0,0.5,0,0.9,0.1,1.4c0.3-0.2,0.6-0.4,1-0.6c0,1.4,0,2.8,0,4.3c-1,0.6-2.1,1.2-3.1,1.8c0,0.5,0,0.9,0,1.4c0.3-0.2,0.6-0.4,1-0.6
			c0,0.5,0,1,0,1.5l0,0c-0.7,0.4-1.4,0.8-2.1,1.2c0-0.4,0-0.9-0.1-1.4c-0.4,0.2-0.7,0.4-1,0.6l0,0c0-0.5,0-0.9,0-1.4
			c-0.8,0.4-1.4,0.8-2.1,1.2C283.5,330.9,283.5,331.3,283.5,331.7L283.5,331.7z M283.4,327.6c-0.7,0.4-1.4,0.8-2.1,1.2
			c0,0.5,0,0.9,0,1.3c0.7-0.4,1.4-0.8,2.1-1.2C283.4,328.4,283.4,328,283.4,327.6z M285.6,327.6c0.7-0.4,1.4-0.8,2.1-1.2
			c0-0.5,0-0.9,0-1.3c-0.7,0.4-1.4,0.8-2.1,1.2C285.6,326.8,285.6,327.2,285.6,327.6z"/>
		<path class="st2" d="M288.8,330.1c0.7-0.4,1.4-0.8,2.1-1.2c0,0.5,0,0.9,0,1.4c-0.7,0.4-1.3,0.8-2.1,1.2
			C288.8,331,288.8,330.5,288.8,330.1C288.8,330.1,288.8,330.1,288.8,330.1z"/>
		<path class="st2" d="M280.3,335c0,0.4,0,0.9,0,1.4c-0.7,0.4-1.4,0.8-2.1,1.2c0-0.4,0-0.8,0-1.3C278.9,335.8,279.6,335.4,280.3,335
			C280.3,335,280.3,335,280.3,335z"/>
		<path class="st2" d="M285.6,330.5c0,0.4,0,0.9,0,1.4c-0.7,0.4-1.4,0.8-2.1,1.2c0-0.5,0-0.9,0-1.4l0,0
			C284.2,331.4,284.9,330.9,285.6,330.5L285.6,330.5z"/>
	</g>
	<g class="st7">
		<path class="st2" d="M383.4,225.8c-0.3,0.2-0.7,0.4-1,0.6c0,0.5,0,0.9-0.1,1.5c-0.7,0.4-1.4,0.8-2.1,1.2l0,0c0-0.4,0-0.9,0-1.4
			c0.3-0.2,0.7-0.4,1-0.7c0-0.4,0-0.8,0-1.3c-1,0.6-2,1.2-3.1,1.8c0-1.5,0-2.8,0-4.3c0.3-0.2,0.6-0.4,1-0.6c0-0.5,0-0.9,0-1.4
			c1.1-0.6,2.1-1.2,3.2-1.8c0-0.5,0.1-1,0.1-1.4c1.4-0.8,2.8-1.6,4.2-2.4c0,0.4,0,0.9,0,1.3c1.1-0.6,2.1-1.2,3.2-1.8
			c0,0.5,0,0.9,0.1,1.4c0.3-0.2,0.6-0.4,1-0.6c0,1.4,0,2.8,0,4.3c-1,0.6-2.1,1.2-3.1,1.8c0,0.5,0,0.9,0,1.4c0.3-0.2,0.6-0.4,1-0.6
			c0,0.5,0,1,0,1.5l0,0c-0.7,0.4-1.4,0.8-2.1,1.2c0-0.4,0-0.9-0.1-1.4c-0.4,0.2-0.7,0.4-1,0.6l0,0c0-0.5,0-0.9,0-1.4
			c-0.8,0.4-1.4,0.8-2.1,1.2C383.4,225,383.4,225.4,383.4,225.8L383.4,225.8z M383.4,221.7c-0.7,0.4-1.4,0.8-2.1,1.2
			c0,0.5,0,0.9,0,1.3c0.7-0.4,1.4-0.8,2.1-1.2C383.4,222.5,383.4,222.1,383.4,221.7z M385.5,221.7c0.7-0.4,1.4-0.8,2.1-1.2
			c0-0.5,0-0.9,0-1.3c-0.7,0.4-1.4,0.8-2.1,1.2C385.5,220.9,385.5,221.3,385.5,221.7z"/>
		<path class="st2" d="M388.7,224.2c0.7-0.4,1.4-0.8,2.1-1.2c0,0.5,0,0.9,0,1.4c-0.7,0.4-1.3,0.8-2.1,1.2
			C388.7,225.1,388.7,224.6,388.7,224.2C388.7,224.2,388.7,224.2,388.7,224.2z"/>
		<path class="st2" d="M380.2,229.1c0,0.4,0,0.9,0,1.4c-0.7,0.4-1.4,0.8-2.1,1.2c0-0.4,0-0.8,0-1.3
			C378.8,229.9,379.5,229.5,380.2,229.1C380.2,229.1,380.2,229.1,380.2,229.1z"/>
		<path class="st2" d="M385.5,224.6c0,0.4,0,0.9,0,1.4c-0.7,0.4-1.4,0.8-2.1,1.2c0-0.5,0-0.9,0-1.4l0,0
			C384.1,225.5,384.8,225,385.5,224.6L385.5,224.6z"/>
	</g>
	<g class="st7">
		<path class="st2" d="M206.4,321.6c-0.7,0.4-1.4,0.8-2.1,1.2c0,0.5,0,0.9,0,1.4c0.3-0.2,0.6-0.3,1-0.5c0,0.4,0,0.8,0,1.3
			c-0.7,0.4-1.3,0.8-2.1,1.2c0-0.4,0-0.8,0-1.3c-0.3,0.2-0.6,0.3-1,0.5c0-0.4,0-0.9,0-1.3c0.3-0.2,0.6-0.4,1-0.6c0-0.4,0-0.8,0-1.4
			c-0.7,0.4-1.3,0.8-2,1.2c0-1.5,0-2.8,0-4.3c0.3-0.2,0.6-0.4,1-0.6c0-0.5,0-0.9,0.1-1.5c1-0.6,2.1-1.2,3.1-1.8c0-0.5,0-0.9,0-1.4
			c1.4-0.8,2.8-1.6,4.2-2.5c0,0.4,0,0.8,0.1,1.3c1-0.6,2.1-1.2,3.1-1.8c0,0.5,0,0.9,0.1,1.4c0.3-0.2,0.7-0.3,1-0.5
			c0,1.4,0,2.7,0,4.2c-0.7,0.4-1.3,0.8-2.1,1.2c0,0.5,0,0.9,0,1.4c0.3-0.2,0.6-0.4,1-0.6c0,0.5,0,0.9,0,1.4c-0.3,0.2-0.6,0.4-1,0.7
			c0,0.4,0,0.8,0,1.3c-0.7,0.4-1.4,0.8-2.1,1.2c0-0.4,0-0.8,0-1.3c0.3-0.2,0.6-0.4,1-0.6c0-0.5,0-0.9,0-1.5
			c-0.7,0.4-1.4,0.8-2.1,1.2l0,0c0-0.5,0-0.9,0-1.4c-0.8,0.4-1.4,0.8-2.1,1.2C206.4,320.8,206.4,321.2,206.4,321.6L206.4,321.6z
			 M208.5,317.5c0.7-0.4,1.4-0.8,2.1-1.2c0-0.5,0-0.9,0-1.3c-0.7,0.4-1.4,0.8-2.1,1.2C208.5,316.7,208.5,317.1,208.5,317.5z
			 M204.3,320c0.7-0.4,1.4-0.8,2.1-1.2c0-0.5,0-0.9,0-1.3c-0.7,0.4-1.4,0.8-2.1,1.2C204.3,319.2,204.3,319.5,204.3,320z"/>
		<path class="st2" d="M208.5,320.4c0,0.4,0,0.9,0,1.4c-0.7,0.4-1.4,0.8-2.1,1.2c0-0.5,0-0.9,0-1.4l0,0
			C207.1,321.3,207.8,320.9,208.5,320.4L208.5,320.4z"/>
	</g>
	<g class="st8">
		<path class="st2" d="M408,244.6c-0.7,0.4-1.4,0.8-2.1,1.2c0,0.5,0,0.9,0,1.4c0.3-0.2,0.6-0.3,1-0.5c0,0.4,0,0.8,0,1.3
			c-0.7,0.4-1.3,0.8-2.1,1.2c0-0.4,0-0.8,0-1.3c-0.3,0.2-0.6,0.3-1,0.5c0-0.4,0-0.9,0-1.3c0.3-0.2,0.6-0.4,1-0.6c0-0.4,0-0.8,0-1.4
			c-0.7,0.4-1.3,0.8-2,1.2c0-1.5,0-2.8,0-4.3c0.3-0.2,0.6-0.4,1-0.6c0-0.5,0-0.9,0.1-1.5c1-0.6,2.1-1.2,3.1-1.8c0-0.5,0-0.9,0-1.4
			c1.4-0.8,2.8-1.6,4.2-2.5c0,0.4,0,0.8,0.1,1.3c1-0.6,2.1-1.2,3.1-1.8c0,0.5,0,0.9,0.1,1.4c0.3-0.2,0.7-0.3,1-0.5
			c0,1.4,0,2.7,0,4.2c-0.7,0.4-1.3,0.8-2.1,1.2c0,0.5,0,0.9,0,1.4c0.3-0.2,0.6-0.4,1-0.6c0,0.5,0,0.9,0,1.4c-0.3,0.2-0.6,0.4-1,0.7
			c0,0.4,0,0.8,0,1.3c-0.7,0.4-1.4,0.8-2.1,1.2c0-0.4,0-0.8,0-1.3c0.3-0.2,0.6-0.4,1-0.6c0-0.5,0-0.9,0-1.5
			c-0.7,0.4-1.4,0.8-2.1,1.2l0,0c0-0.5,0-0.9,0-1.4c-0.8,0.4-1.4,0.8-2.1,1.2C407.9,243.8,407.9,244.2,408,244.6L408,244.6z
			 M410.1,240.5c0.7-0.4,1.4-0.8,2.1-1.2c0-0.5,0-0.9,0-1.3c-0.7,0.4-1.4,0.8-2.1,1.2C410.1,239.7,410.1,240.1,410.1,240.5z
			 M405.8,243c0.7-0.4,1.4-0.8,2.1-1.2c0-0.5,0-0.9,0-1.3c-0.7,0.4-1.4,0.8-2.1,1.2C405.8,242.1,405.8,242.5,405.8,243z"/>
		<path class="st2" d="M410.1,243.4c0,0.4,0,0.9,0,1.4c-0.7,0.4-1.4,0.8-2.1,1.2c0-0.5,0-0.9,0-1.4l0,0
			C408.7,244.2,409.4,243.8,410.1,243.4L410.1,243.4z"/>
	</g>
	<g class="st9">
		<path class="st2" d="M157.1,398.3c0,0.4,0,0.9,0,1.4c0.4-0.2,0.7-0.3,1.1-0.5c0,0.4,0,0.8,0,1.3c0.4-0.2,0.7-0.4,1.1-0.6
			c0-0.9,0-1.8,0-2.7c0.4-0.2,0.7-0.4,1-0.6c0,1.8,0,3.7,0,5.6c-0.3,0.2-0.6,0.4-1,0.7c0,0.4,0,0.9,0,1.4c-0.3,0.2-0.6,0.4-1.1,0.6
			c0,0.6,0,1,0,1.5l0,0c-0.3,0.2-0.7,0.4-1,0.6c0-0.4,0-0.9-0.1-1.3c-1.8,1-3.5,2-5.3,3c0,0.4,0,0.9,0,1.4c-0.4,0.2-0.7,0.4-1.1,0.6
			l0,0c0-0.4,0-0.9,0-1.4c-0.4,0.2-0.7,0.3-1.1,0.5c0-0.4,0-0.8,0-1.3c-0.4,0.2-0.7,0.3-1,0.5c0-1.9,0-3.7,0-5.6
			c0.3-0.2,0.6-0.4,1-0.6c0,0.9,0,1.8,0,2.7c0.4-0.2,0.7-0.4,1.1-0.6c0-0.4,0-0.8,0-1.3c0.3-0.2,0.6-0.4,1.1-0.6c0-0.6,0-1,0-1.5
			l0,0c0.3-0.2,0.7-0.4,1-0.6c0,0.4,0,0.9,0.1,1.3c1-0.6,2-1.2,3.1-1.8c0-0.4,0-0.9,0.1-1.4C156.4,398.7,156.8,398.5,157.1,398.3
			L157.1,398.3z M157.1,401.2c-0.4,0.2-0.7,0.4-1,0.6c0,0.5,0,0.9,0,1.3c0.4-0.2,0.7-0.4,1-0.6C157.1,402,157.1,401.6,157.1,401.2z
			 M152.8,403.6c-0.4,0.2-0.7,0.4-1,0.6c0,0.5,0,0.9,0,1.3c0.4-0.2,0.7-0.4,1-0.6C152.8,404.5,152.8,404.1,152.8,403.6z"/>
		<path class="st2" d="M158.2,406.2c0.3-0.2,0.7-0.4,1-0.6c0,0.5,0,0.9,0,1.4c-0.3,0.2-0.6,0.4-1,0.6
			C158.2,407.1,158.2,406.6,158.2,406.2C158.2,406.2,158.2,406.2,158.2,406.2z"/>
		<path class="st2" d="M150.7,410.5c0,0.4,0,0.9,0,1.4c-0.3,0.2-0.7,0.4-1,0.6c0-0.4,0-0.8,0-1.3
			C150.1,410.9,150.4,410.7,150.7,410.5C150.8,410.5,150.7,410.5,150.7,410.5z"/>
		<path class="st2" d="M151.8,401.3c-0.3,0.2-0.7,0.4-1,0.6c0-0.4,0-0.9,0-1.3c0.3-0.2,0.6-0.4,1-0.6
			C151.8,400.5,151.8,400.9,151.8,401.3C151.8,401.4,151.8,401.3,151.8,401.3z"/>
		<path class="st2" d="M157.1,398.3c0-0.4,0-0.9,0-1.4c0.3-0.2,0.7-0.4,1-0.6c0,0.4,0,0.8,0,1.3
			C157.8,397.9,157.5,398.1,157.1,398.3C157.1,398.3,157.1,398.3,157.1,398.3z"/>
	</g>
	<g class="st8">
		<path class="st2" d="M359.6,94.7c0,0.4,0,0.9,0,1.4c0.4-0.2,0.7-0.3,1.1-0.5c0,0.4,0,0.8,0,1.3c0.4-0.2,0.7-0.4,1.1-0.6
			c0-0.9,0-1.8,0-2.7c0.4-0.2,0.7-0.4,1-0.6c0,1.8,0,3.7,0,5.6c-0.3,0.2-0.6,0.4-1,0.7c0,0.4,0,0.9,0,1.4c-0.3,0.2-0.6,0.4-1.1,0.6
			c0,0.6,0,1,0,1.5l0,0c-0.3,0.2-0.7,0.4-1,0.6c0-0.4,0-0.9-0.1-1.3c-1.8,1-3.5,2-5.3,3c0,0.4,0,0.9,0,1.4c-0.4,0.2-0.7,0.4-1.1,0.6
			l0,0c0-0.4,0-0.9,0-1.4c-0.4,0.2-0.7,0.3-1.1,0.5c0-0.4,0-0.8,0-1.3c-0.4,0.2-0.7,0.3-1,0.5c0-1.9,0-3.7,0-5.6
			c0.3-0.2,0.6-0.4,1-0.6c0,0.9,0,1.8,0,2.7c0.4-0.2,0.7-0.4,1.1-0.6c0-0.4,0-0.8,0-1.3c0.3-0.2,0.6-0.4,1.1-0.6c0-0.6,0-1,0-1.5
			l0,0c0.3-0.2,0.7-0.4,1-0.6c0,0.4,0,0.9,0.1,1.3c1-0.6,2-1.2,3.1-1.8c0-0.4,0-0.9,0.1-1.4C358.9,95.1,359.3,94.9,359.6,94.7
			L359.6,94.7z M359.6,97.6c-0.4,0.2-0.7,0.4-1,0.6c0,0.5,0,0.9,0,1.3c0.4-0.2,0.7-0.4,1-0.6C359.6,98.5,359.6,98.1,359.6,97.6z
			 M355.3,100.1c-0.4,0.2-0.7,0.4-1,0.6c0,0.5,0,0.9,0,1.3c0.4-0.2,0.7-0.4,1-0.6C355.3,100.9,355.3,100.5,355.3,100.1z"/>
		<path class="st2" d="M360.6,102.7c0.3-0.2,0.7-0.4,1-0.6c0,0.5,0,0.9,0,1.4c-0.3,0.2-0.6,0.4-1,0.6
			C360.7,103.5,360.7,103.1,360.6,102.7C360.7,102.6,360.6,102.7,360.6,102.7z"/>
		<path class="st2" d="M353.2,106.9c0,0.4,0,0.9,0,1.4c-0.3,0.2-0.7,0.4-1,0.6c0-0.4,0-0.8,0-1.3
			C352.5,107.3,352.9,107.1,353.2,106.9C353.2,106.9,353.2,106.9,353.2,106.9z"/>
		<path class="st2" d="M354.3,97.8c-0.3,0.2-0.7,0.4-1,0.6c0-0.4,0-0.9,0-1.3c0.3-0.2,0.6-0.4,1-0.6
			C354.3,96.9,354.3,97.4,354.3,97.8C354.3,97.8,354.3,97.8,354.3,97.8z"/>
		<path class="st2" d="M359.6,94.7c0-0.4,0-0.9,0-1.4c0.3-0.2,0.7-0.4,1-0.6c0,0.4,0,0.8,0,1.3C360.3,94.3,359.9,94.5,359.6,94.7
			C359.6,94.7,359.6,94.7,359.6,94.7z"/>
	</g>
	<g>
		<path class="st2" d="M375,178.3c0,0.4,0,0.9,0,1.4c0.4-0.2,0.7-0.3,1.1-0.5c0,0.4,0,0.8,0,1.3c0.4-0.2,0.7-0.4,1.1-0.6
			c0-0.9,0-1.8,0-2.7c0.4-0.2,0.7-0.4,1-0.6c0,1.8,0,3.7,0,5.6c-0.3,0.2-0.6,0.4-1,0.7c0,0.4,0,0.9,0,1.4c-0.3,0.2-0.6,0.4-1.1,0.6
			c0,0.6,0,1,0,1.5l0,0c-0.3,0.2-0.7,0.4-1,0.6c0-0.4,0-0.9-0.1-1.3c-1.8,1-3.5,2-5.3,3c0,0.4,0,0.9,0,1.4c-0.4,0.2-0.7,0.4-1.1,0.6
			l0,0c0-0.4,0-0.9,0-1.4c-0.4,0.2-0.7,0.3-1.1,0.5c0-0.4,0-0.8,0-1.3c-0.4,0.2-0.7,0.3-1,0.5c0-1.9,0-3.7,0-5.6
			c0.3-0.2,0.6-0.4,1-0.6c0,0.9,0,1.8,0,2.7c0.4-0.2,0.7-0.4,1.1-0.6c0-0.4,0-0.8,0-1.3c0.3-0.2,0.6-0.4,1.1-0.6c0-0.6,0-1,0-1.5
			l0,0c0.3-0.2,0.7-0.4,1-0.6c0,0.4,0,0.9,0.1,1.3c1-0.6,2-1.2,3.1-1.8c0-0.4,0-0.9,0.1-1.4C374.3,178.7,374.7,178.5,375,178.3
			L375,178.3z M375,181.2c-0.4,0.2-0.7,0.4-1,0.6c0,0.5,0,0.9,0,1.3c0.4-0.2,0.7-0.4,1-0.6C375,182.1,375,181.7,375,181.2z
			 M370.7,183.7c-0.4,0.2-0.7,0.4-1,0.6c0,0.5,0,0.9,0,1.3c0.4-0.2,0.7-0.4,1-0.6C370.7,184.5,370.7,184.1,370.7,183.7z"/>
		<path class="st2" d="M376.1,186.2c0.3-0.2,0.7-0.4,1-0.6c0,0.5,0,0.9,0,1.4c-0.3,0.2-0.6,0.4-1,0.6
			C376.1,187.1,376.1,186.7,376.1,186.2C376.1,186.2,376.1,186.2,376.1,186.2z"/>
		<path class="st2" d="M368.6,190.5c0,0.4,0,0.9,0,1.4c-0.3,0.2-0.7,0.4-1,0.6c0-0.4,0-0.8,0-1.3
			C367.9,190.9,368.3,190.7,368.6,190.5C368.6,190.5,368.6,190.5,368.6,190.5z"/>
		<path class="st2" d="M369.7,181.4c-0.3,0.2-0.7,0.4-1,0.6c0-0.4,0-0.9,0-1.3c0.3-0.2,0.6-0.4,1-0.6
			C369.7,180.5,369.7,181,369.7,181.4C369.7,181.4,369.7,181.4,369.7,181.4z"/>
		<path class="st2" d="M375,178.3c0-0.4,0-0.9,0-1.4c0.3-0.2,0.7-0.4,1-0.6c0,0.4,0,0.8,0,1.3C375.7,177.9,375.3,178.1,375,178.3
			C375,178.3,375,178.3,375,178.3z"/>
	</g>
	<g class="st9">
		<path class="st2" d="M420.5,125.5c-0.3,0.2-0.7,0.4-1.1,0.6c0-0.9,0-1.8,0-2.8c-0.4,0.2-0.7,0.4-1,0.6c0,0.9,0,1.8,0,2.7
			c-0.4,0.2-0.7,0.4-1.1,0.6c0-1.4,0-2.7,0-4.2c0.3-0.2,0.6-0.4,1-0.6c0-0.5,0-0.9,0-1.4c0.4-0.3,0.7-0.5,1.1-0.7c0-0.4,0-0.8,0-1.3
			c0.4-0.2,0.7-0.4,1.1-0.6c0-0.6,0-1,0-1.5l0,0c0.3-0.2,0.7-0.4,1-0.6c0,0.4,0,0.9,0.1,1.3c1.1-0.6,2.1-1.2,3.2-1.8
			c0-0.4,0-0.9,0-1.4c0.4-0.2,0.7-0.4,1.1-0.6l0,0c0,0.4,0,0.9,0,1.4c0.4-0.2,0.7-0.3,1-0.5c0,0.4,0,0.8,0,1.3
			c0.3-0.2,0.6-0.3,1-0.5c0,0.4,0,0.8,0.1,1.3c0.3-0.2,0.7-0.3,1-0.5c0,1.4,0,2.7,0,4.2c-0.3,0.2-0.6,0.4-1,0.6c0-0.9,0-1.8,0-2.7
			c-0.4,0.2-0.7,0.4-1,0.6c0,0.9,0,1.8,0,2.8c-0.4,0.2-0.8,0.4-1.1,0.6l0,0c0-0.4,0-0.9,0-1.4c-1.8,1-3.5,2-5.3,3.1
			C420.5,124.6,420.5,125.1,420.5,125.5L420.5,125.5z M424.8,118.7c0.4-0.2,0.7-0.4,1-0.6c0-0.5,0-0.9,0-1.3c-0.3,0.2-0.7,0.4-1,0.6
			C424.8,117.8,424.8,118.2,424.8,118.7z M421.6,119.3c-0.4,0.2-0.7,0.4-1,0.6c0,0.5,0,0.9,0,1.3c0.4-0.2,0.7-0.4,1-0.6
			C421.6,120.2,421.6,119.8,421.6,119.3z"/>
		<path class="st2" d="M425.8,122.4c0,0.4,0,0.9,0,1.4c-0.7,0.4-1.4,0.8-2.1,1.2c0-0.4,0-0.8,0-1.3
			C424.5,123.2,425.2,122.8,425.8,122.4C425.9,122.4,425.8,122.4,425.8,122.4z"/>
		<path class="st2" d="M420.5,125.5c0.7-0.4,1.4-0.8,2.1-1.2c0,0.5,0,0.9,0,1.4c-0.7,0.4-1.3,0.8-2.1,1.2
			C420.5,126.4,420.5,125.9,420.5,125.5C420.5,125.5,420.5,125.5,420.5,125.5z"/>
		<path class="st2" d="M420.5,117c-0.3,0.2-0.7,0.4-1,0.6c0-0.4,0-0.9,0-1.4c0.3-0.2,0.6-0.4,1-0.6
			C420.5,116.1,420.5,116.5,420.5,117C420.5,117,420.5,117,420.5,117z"/>
		<path class="st2" d="M425.9,113.9c0-0.4,0-0.9,0-1.4c0.3-0.2,0.7-0.4,1-0.6c0,0.4,0,0.8,0,1.3
			C426.5,113.5,426.2,113.7,425.9,113.9C425.8,113.9,425.9,113.9,425.9,113.9z"/>
	</g>
	<g class="st7">
		<path class="st2" d="M328,282.3c-0.3,0.2-0.7,0.4-1.1,0.6c0-0.9,0-1.8,0-2.8c-0.4,0.2-0.7,0.4-1,0.6c0,0.9,0,1.8,0,2.7
			c-0.4,0.2-0.7,0.4-1.1,0.6c0-1.4,0-2.7,0-4.2c0.3-0.2,0.6-0.4,1-0.6c0-0.5,0-0.9,0-1.4c0.4-0.3,0.7-0.5,1.1-0.7c0-0.4,0-0.8,0-1.3
			c0.4-0.2,0.7-0.4,1.1-0.6c0-0.6,0-1,0-1.5l0,0c0.3-0.2,0.7-0.4,1-0.6c0,0.4,0,0.9,0.1,1.3c1.1-0.6,2.1-1.2,3.2-1.8
			c0-0.4,0-0.9,0-1.4c0.4-0.2,0.7-0.4,1.1-0.6l0,0c0,0.4,0,0.9,0,1.4c0.4-0.2,0.7-0.3,1-0.5c0,0.4,0,0.8,0,1.3
			c0.3-0.2,0.6-0.3,1-0.5c0,0.4,0,0.8,0.1,1.3c0.3-0.2,0.7-0.3,1-0.5c0,1.4,0,2.7,0,4.2c-0.3,0.2-0.6,0.4-1,0.6c0-0.9,0-1.8,0-2.7
			c-0.4,0.2-0.7,0.4-1,0.6c0,0.9,0,1.8,0,2.8c-0.4,0.2-0.8,0.4-1.1,0.6l0,0c0-0.4,0-0.9,0-1.4c-1.8,1-3.5,2-5.3,3.1
			C328,281.4,328,281.9,328,282.3L328,282.3z M332.3,275.5c0.4-0.2,0.7-0.4,1-0.6c0-0.5,0-0.9,0-1.3c-0.3,0.2-0.7,0.4-1,0.6
			C332.3,274.6,332.3,275,332.3,275.5z M329,276.1c-0.4,0.2-0.7,0.4-1,0.6c0,0.5,0,0.9,0,1.3c0.4-0.2,0.7-0.4,1-0.6
			C329,277,329,276.6,329,276.1z"/>
		<path class="st2" d="M333.3,279.2c0,0.4,0,0.9,0,1.4c-0.7,0.4-1.4,0.8-2.1,1.2c0-0.4,0-0.8,0-1.3
			C331.9,280,332.6,279.6,333.3,279.2C333.3,279.2,333.3,279.2,333.3,279.2z"/>
		<path class="st2" d="M328,282.3c0.7-0.4,1.4-0.8,2.1-1.2c0,0.5,0,0.9,0,1.4c-0.7,0.4-1.3,0.8-2.1,1.2
			C328,283.2,328,282.7,328,282.3C328,282.3,328,282.3,328,282.3z"/>
		<path class="st2" d="M328,273.8c-0.3,0.2-0.7,0.4-1,0.6c0-0.4,0-0.9,0-1.4c0.3-0.2,0.6-0.4,1-0.6C328,272.9,328,273.3,328,273.8
			C328,273.8,328,273.8,328,273.8z"/>
		<path class="st2" d="M333.3,270.7c0-0.4,0-0.9,0-1.4c0.3-0.2,0.7-0.4,1-0.6c0,0.4,0,0.8,0,1.3C334,270.3,333.6,270.5,333.3,270.7
			C333.3,270.7,333.3,270.7,333.3,270.7z"/>
	</g>
	<g class="st7">
		<path class="st2" d="M253.8,165.8c0-0.4,0-0.9,0-1.4c-0.7,0.4-1.4,0.8-2.1,1.2c0-1,0-1.9,0-2.8c0.3-0.2,0.6-0.4,1-0.6
			c0-0.5,0-0.9,0.1-1.4c0.3-0.2,0.7-0.4,1-0.7c0-0.4,0-0.8,0-1.3c0.4-0.2,0.7-0.4,1-0.6c0-0.5,0-1,0.1-1.4c0.7-0.4,1.4-0.8,2.1-1.2
			c0,0.4,0,0.9,0,1.3c0.4-0.2,0.7-0.3,1-0.5c0,0.4,0,0.9,0.1,1.3c0.3-0.2,0.6-0.4,1-0.6c0,0.5,0,0.9,0,1.4c0.4-0.2,0.7-0.3,1.1-0.5
			c0,0.9,0,1.8,0,2.8c-0.7,0.4-1.3,0.8-2.1,1.2c0,0.5,0,1,0,1.5c0,0,0,0,0,0c-0.4,0.2-0.7,0.4-1.1,0.6l0,0c0-0.5,0-0.9,0-1.4
			c-0.8,0.4-1.4,0.8-2.1,1.2c0,0.5,0,0.9,0,1.4l0,0C254.5,165.4,254.1,165.6,253.8,165.8L253.8,165.8z M257,159.7c0,0.5,0,0.9,0,1.3
			c0.4-0.2,0.7-0.4,1-0.6c0-0.5,0-0.9,0-1.3C257.7,159.3,257.4,159.5,257,159.7z M254.8,162.4c0-0.5,0-0.9,0-1.3
			c-0.4,0.2-0.7,0.4-1,0.6c0,0.5,0,0.9,0,1.3C254.2,162.7,254.5,162.5,254.8,162.4z"/>
		<path class="st2" d="M257,165.4c-0.7,0.4-1.4,0.8-2.1,1.2l0,0c0-0.5,0-1,0-1.4l0,0c0.7-0.4,1.4-0.8,2.1-1.2l0,0
			C257,164.4,257,164.9,257,165.4L257,165.4z"/>
		<path class="st2" d="M254.8,166.6c0,0.4,0,0.9,0,1.4c-0.3,0.2-0.7,0.4-1,0.6c0-0.5,0-0.9,0-1.4l0,0
			C254.1,167,254.5,166.8,254.8,166.6L254.8,166.6z"/>
		<path class="st2" d="M252.7,167.8c0,0.5,0,0.9,0,1.4c-0.3,0.2-0.6,0.4-1,0.6c0-0.4,0-0.8,0-1.4C252,168.2,252.3,168,252.7,167.8
			C252.7,167.8,252.7,167.8,252.7,167.8z"/>
		<path class="st2" d="M258,164.8c0,0.4,0,0.9,0,1.4c-0.3,0.2-0.7,0.4-1,0.6c0-0.5,0-0.9,0-1.4l0,0C257.3,165.2,257.7,165,258,164.8
			L258,164.8z"/>
		<path class="st2" d="M253.8,167.2c-0.4,0.2-0.7,0.4-1.1,0.6c0,0,0,0,0,0c0-0.4,0-0.9,0-1.4c0.4-0.2,0.7-0.4,1.1-0.6l0,0
			C253.8,166.3,253.8,166.8,253.8,167.2C253.8,167.2,253.8,167.2,253.8,167.2z"/>
		<path class="st2" d="M259.1,164.1c0,0.5,0,0.9,0,1.4c0.3-0.2,0.6-0.4,1-0.6c0-0.4,0-0.8,0-1.4
			C259.8,163.7,259.5,163.9,259.1,164.1C259.1,164.1,259.1,164.1,259.1,164.1z"/>
		<path class="st2" d="M258,164.8c0.4-0.2,0.7-0.4,1.1-0.7c0,0,0,0,0,0c0-0.4,0-0.9,0-1.4c-0.4,0.2-0.7,0.4-1.1,0.6l0,0
			C258.1,163.8,258.1,164.3,258,164.8C258.1,164.8,258,164.8,258,164.8z"/>
	</g>
	<g class="st10">
		<path class="st2" d="M389.6,129.2c0-0.4,0-0.9,0-1.4c-0.7,0.4-1.4,0.8-2.1,1.2c0-1,0-1.9,0-2.8c0.3-0.2,0.6-0.4,1-0.6
			c0-0.5,0-0.9,0.1-1.4c0.3-0.2,0.7-0.4,1-0.7c0-0.4,0-0.8,0-1.3c0.4-0.2,0.7-0.4,1-0.6c0-0.5,0-1,0.1-1.4c0.7-0.4,1.4-0.8,2.1-1.2
			c0,0.4,0,0.9,0,1.3c0.4-0.2,0.7-0.3,1-0.5c0,0.4,0,0.9,0.1,1.3c0.3-0.2,0.6-0.4,1-0.6c0,0.5,0,0.9,0,1.4c0.4-0.2,0.7-0.3,1.1-0.5
			c0,0.9,0,1.8,0,2.8c-0.7,0.4-1.3,0.8-2.1,1.2c0,0.5,0,1,0,1.5l0,0c-0.4,0.2-0.7,0.4-1.1,0.6l0,0c0-0.5,0-0.9,0-1.4
			c-0.8,0.4-1.4,0.8-2.1,1.2c0,0.5,0,0.9,0,1.4l0,0C390.3,128.7,390,128.9,389.6,129.2L389.6,129.2z M392.9,123.1c0,0.5,0,0.9,0,1.3
			c0.4-0.2,0.7-0.4,1-0.6c0-0.5,0-0.9,0-1.3C393.5,122.7,393.2,122.9,392.9,123.1z M390.7,125.7c0-0.5,0-0.9,0-1.3
			c-0.4,0.2-0.7,0.4-1,0.6c0,0.5,0,0.9,0,1.3C390,126.1,390.3,125.9,390.7,125.7z"/>
		<path class="st2" d="M392.8,128.7c-0.7,0.4-1.4,0.8-2.1,1.2l0,0c0-0.5,0-1,0-1.4l0,0c0.7-0.4,1.4-0.8,2.1-1.2l0,0
			C392.8,127.8,392.8,128.3,392.8,128.7L392.8,128.7z"/>
		<path class="st2" d="M390.7,130c0,0.4,0,0.9,0,1.4c-0.3,0.2-0.7,0.4-1,0.6c0-0.5,0-0.9,0-1.4l0,0C390,130.4,390.3,130.2,390.7,130
			L390.7,130z"/>
		<path class="st2" d="M388.5,131.2c0,0.5,0,0.9,0,1.4c-0.3,0.2-0.6,0.4-1,0.6c0-0.4,0-0.8,0-1.4
			C387.9,131.6,388.2,131.4,388.5,131.2C388.6,131.2,388.5,131.2,388.5,131.2z"/>
		<path class="st2" d="M393.9,128.1c0,0.4,0,0.9,0,1.4c-0.3,0.2-0.7,0.4-1,0.6c0-0.5,0-0.9,0-1.4l0,0
			C393.2,128.5,393.5,128.3,393.9,128.1L393.9,128.1z"/>
		<path class="st2" d="M389.6,130.6c-0.4,0.2-0.7,0.4-1.1,0.6c0,0,0,0,0,0c0-0.4,0-0.9,0-1.4c0.4-0.2,0.7-0.4,1.1-0.6l0,0
			C389.6,129.6,389.6,130.1,389.6,130.6C389.6,130.6,389.6,130.6,389.6,130.6z"/>
		<path class="st2" d="M395,127.4c0,0.5,0,0.9,0,1.4c0.3-0.2,0.6-0.4,1-0.6c0-0.4,0-0.8,0-1.4C395.7,127.1,395.3,127.3,395,127.4
			C395,127.5,395,127.4,395,127.4z"/>
		<path class="st2" d="M393.9,128.1c0.4-0.2,0.7-0.4,1.1-0.7c0,0,0,0,0,0c0-0.4,0-0.9,0-1.4c-0.4,0.2-0.7,0.4-1.1,0.6l0,0
			C393.9,127.2,393.9,127.6,393.9,128.1C393.9,128.1,393.9,128.1,393.9,128.1z"/>
	</g>
	<g class="st11">
		<path class="st2" d="M183,266.1c0-0.4,0-0.9-0.1-1.4c-0.3,0.2-0.6,0.3-1,0.5c0-0.9,0-1.8,0-2.8c0.3-0.2,0.6-0.4,1-0.6
			c0-0.4,0-0.9,0.1-1.4c0.3-0.2,0.6-0.4,1-0.7c0-0.5,0-0.9,0.1-1.4c0.3-0.2,0.6-0.4,1-0.6c0-0.5,0-0.9,0-1.4
			c0.7-0.4,1.4-0.8,2.1-1.2c0,0.4,0,0.8,0,1.3c0.4-0.2,0.7-0.4,1-0.6c0,0.5,0,0.9,0.1,1.4c0.3-0.2,0.6-0.4,1-0.6c0,0.5,0,0.9,0,1.4
			c0.4-0.2,0.7-0.3,1.1-0.5c0,0.9,0,1.8,0,2.8c-0.3,0.2-0.6,0.4-1,0.7c0,0.5,0,0.9,0,1.4l0,0c-0.3,0.2-0.7,0.4-1,0.6
			c0-0.4,0-0.9-0.1-1.3c-0.3,0.2-0.7,0.4-1,0.6c0,0.4,0,0.8,0,1.3c-0.7,0.4-1.4,0.8-2.1,1.2c0-0.4,0-0.8-0.1-1.3
			c-0.3,0.2-0.7,0.4-1,0.6c0,0.4,0,0.8,0,1.3C183.7,265.7,183.3,265.9,183,266.1C183,266.1,183,266.1,183,266.1z M187.2,260.8
			c0.4-0.2,0.7-0.4,1-0.6c0-0.5,0-0.9,0-1.3c-0.4,0.2-0.7,0.4-1,0.6C187.2,259.9,187.2,260.3,187.2,260.8z M184.1,261.2
			c0,0.5,0,0.9,0,1.3c0.4-0.2,0.7-0.4,1-0.6c0-0.5,0-0.9,0-1.3C184.7,260.9,184.4,261,184.1,261.2z"/>
		<path class="st2" d="M182.9,267.6c0.3-0.2,0.7-0.4,1-0.6c0,0.4,0,0.9,0,1.3c-0.3,0.2-0.6,0.4-1,0.6C183,268.4,183,268,182.9,267.6
			L182.9,267.6z"/>
		<path class="st2" d="M189.3,263.8c0,0.5,0,0.9,0,1.4c-0.3,0.2-0.6,0.4-1,0.6c0-0.4,0-0.8,0-1.4C188.6,264.2,189,264,189.3,263.8
			C189.3,263.9,189.3,263.8,189.3,263.8z"/>
		<path class="st2" d="M189.3,262.5c0.3-0.2,0.7-0.4,1-0.6c0,0.4,0,0.9,0,1.4c-0.3,0.2-0.7,0.4-1.1,0.6c0,0,0,0,0,0
			C189.3,263.4,189.3,262.9,189.3,262.5C189.3,262.4,189.3,262.5,189.3,262.5z"/>
		<path class="st2" d="M183,267.5c-0.3,0.2-0.7,0.4-1,0.6c0-0.4,0-0.9,0-1.4c0.3-0.2,0.7-0.4,1-0.6c0,0,0,0,0,0
			C183,266.6,183,267.1,183,267.5C182.9,267.6,183,267.5,183,267.5z"/>
	</g>
	<g>
		<path class="st2" d="M231.3,345.3c0-0.4,0-0.9-0.1-1.4c-0.3,0.2-0.6,0.3-1,0.5c0-0.9,0-1.8,0-2.8c0.3-0.2,0.6-0.4,1-0.6
			c0-0.4,0-0.9,0.1-1.4c0.3-0.2,0.6-0.4,1-0.7c0-0.5,0-0.9,0.1-1.4c0.3-0.2,0.6-0.4,1-0.6c0-0.5,0-0.9,0-1.4
			c0.7-0.4,1.4-0.8,2.1-1.2c0,0.4,0,0.8,0,1.3c0.4-0.2,0.7-0.4,1-0.6c0,0.5,0,0.9,0.1,1.4c0.3-0.2,0.6-0.4,1-0.6c0,0.5,0,0.9,0,1.4
			c0.4-0.2,0.7-0.3,1.1-0.5c0,0.9,0,1.8,0,2.8c-0.3,0.2-0.6,0.4-1,0.7c0,0.5,0,0.9,0,1.4l0,0c-0.3,0.2-0.7,0.4-1,0.6
			c0-0.4,0-0.9-0.1-1.3c-0.3,0.2-0.7,0.4-1,0.6c0,0.4,0,0.8,0,1.3c-0.7,0.4-1.4,0.8-2.1,1.2c0-0.4,0-0.8-0.1-1.3
			c-0.3,0.2-0.7,0.4-1,0.6c0,0.4,0,0.8,0,1.3C232,344.8,231.6,345.1,231.3,345.3C231.3,345.3,231.3,345.3,231.3,345.3z M235.6,339.9
			c0.4-0.2,0.7-0.4,1-0.6c0-0.5,0-0.9,0-1.3c-0.4,0.2-0.7,0.4-1,0.6C235.6,339.1,235.6,339.5,235.6,339.9z M232.4,340.4
			c0,0.5,0,0.9,0,1.3c0.4-0.2,0.7-0.4,1-0.6c0-0.5,0-0.9,0-1.3C233,340,232.7,340.2,232.4,340.4z"/>
		<path class="st2" d="M231.3,346.7c0.3-0.2,0.7-0.4,1-0.6c0,0.4,0,0.9,0,1.3c-0.3,0.2-0.6,0.4-1,0.6
			C231.3,347.6,231.3,347.1,231.3,346.7L231.3,346.7z"/>
		<path class="st2" d="M237.6,343c0,0.5,0,0.9,0,1.4c-0.3,0.2-0.6,0.4-1,0.6c0-0.4,0-0.8,0-1.4C237,343.4,237.3,343.2,237.6,343
			C237.7,343,237.6,343,237.6,343z"/>
		<path class="st2" d="M237.7,341.6c0.3-0.2,0.7-0.4,1-0.6c0,0.4,0,0.9,0,1.4c-0.3,0.2-0.7,0.4-1.1,0.6c0,0,0,0,0,0
			C237.7,342.5,237.7,342,237.7,341.6C237.7,341.6,237.7,341.6,237.7,341.6z"/>
		<path class="st2" d="M231.3,346.7c-0.3,0.2-0.7,0.4-1,0.6c0-0.4,0-0.9,0-1.4c0.3-0.2,0.7-0.4,1-0.6c0,0,0,0,0,0
			C231.3,345.8,231.3,346.2,231.3,346.7C231.3,346.7,231.3,346.7,231.3,346.7z"/>
	</g>
</g>
<g>
	<line class="st12" x1="234.3" y1="212.9" x2="225.1" y2="218.3"/>
	<g>
		<g>
			<path class="st13" d="M362,119.6v121.2l-141.8,81.8V201.5L362,119.6 M364.1,116l-146,84.3v126.1l146-84.3V116L364.1,116z"/>
		</g>
		<line class="st12" x1="364.1" y1="145.7" x2="219.2" y2="229.4"/>
		<g>
			<line class="st12" x1="246.4" y1="193.8" x2="254.2" y2="200.8"/>
			<line class="st12" x1="254.2" y1="189.3" x2="246.4" y2="205.4"/>
		</g>
		<line class="st12" x1="240.3" y1="188.3" x2="240.3" y2="217.2"/>
		<line class="st12" x1="260.1" y1="177.4" x2="260.1" y2="206"/>
	</g>
	<line class="st14" x1="293" y1="243.3" x2="303" y2="237.5"/>
	<g>
		<line class="st14" x1="230.3" y1="257.7" x2="269.1" y2="235.3"/>
		<line class="st15" x1="230.3" y1="241.2" x2="269.1" y2="218.7"/>
		<line class="st14" x1="230.3" y1="265" x2="269.1" y2="242.6"/>
		<line class="st14" x1="230.3" y1="272.3" x2="269.1" y2="249.8"/>
		<line class="st14" x1="230.3" y1="279.6" x2="269.1" y2="257.1"/>
		<line class="st14" x1="230.3" y1="286.8" x2="269.1" y2="264.4"/>
		<line class="st14" x1="230.3" y1="294.1" x2="255.9" y2="279.3"/>
		<line class="st14" x1="293" y1="221.5" x2="308.9" y2="212.3"/>
		<line class="st14" x1="293" y1="228.8" x2="306.2" y2="221.2"/>
		<line class="st14" x1="293" y1="236" x2="312.2" y2="225"/>
		<line class="st14" x1="293" y1="250.6" x2="306.9" y2="242.6"/>
		<line class="st14" x1="293" y1="257.9" x2="308.9" y2="248.7"/>
		<line class="st14" x1="321.4" y1="241.5" x2="329.7" y2="236.7"/>
		<line class="st14" x1="321.4" y1="234.2" x2="328.3" y2="230.3"/>
		<line class="st14" x1="321.4" y1="227" x2="331.4" y2="221.2"/>
		<line class="st14" x1="321.4" y1="219.7" x2="326.6" y2="216.7"/>
		<line class="st14" x1="321.4" y1="212.4" x2="328.6" y2="208.2"/>
		<line class="st14" x1="321.4" y1="205.1" x2="329.7" y2="200.3"/>
		<line class="st14" x1="341.5" y1="229.9" x2="349.8" y2="225.1"/>
		<line class="st14" x1="341.5" y1="222.6" x2="348.4" y2="218.6"/>
		<line class="st14" x1="341.5" y1="215.3" x2="351.5" y2="209.5"/>
		<line class="st14" x1="341.5" y1="208.1" x2="346.7" y2="205"/>
		<line class="st14" x1="341.5" y1="200.8" x2="348.8" y2="196.6"/>
		<line class="st15" x1="293" y1="204.9" x2="306.2" y2="197.3"/>
		<line class="st15" x1="321.4" y1="188.6" x2="328.6" y2="184.4"/>
		<line class="st15" x1="341.5" y1="176.9" x2="348.8" y2="172.7"/>
		<line class="st14" x1="341.5" y1="193.5" x2="349.8" y2="188.7"/>
	</g>
	<g>
		<g>
			<line class="st16" x1="300" y1="279" x2="300" y2="279.2"/>
			<line class="st17" x1="300" y1="283.3" x2="300" y2="329.8"/>
			<line class="st16" x1="300" y1="331.8" x2="300" y2="332"/>
		</g>
	</g>
	<g>
		<path class="st2" d="M276.8,188.5c-0.5,0.8-1.3,1.6-2.3,2.1c-1.6,0.9-2.6,0.6-3.4,0c-1.1-1-1.5-2.5-1.5-4.5c0-2.6,0.7-4.8,1.5-6.4
			c0.9-1.9,2.1-3.1,3.4-3.8c0.6-0.4,1.4-0.6,2.3-0.4v3.2c-0.8-1-1.9-0.5-2.2-0.3c-1.8,1.1-3,4.1-3,6.7c0,3.1,1.6,3.9,3.1,3
			c0.9-0.5,1.6-1.5,2.1-2.8V188.5z"/>
		<path class="st2" d="M282,186.1l-1.3,0.8l-3.2-12.3l1.9-1.1l2,8.4l2.2-11l1-0.6l2.1,8.5L289,168l1.9-1.1l-3.4,16.1l-1.3,0.8
			l-2-7.8L282,186.1z"/>
		<path class="st2" d="M294.6,164.7c1-0.6,1.7-0.8,2.4-0.3c0.7,0.6,0.9,1.8,0.9,2.9c0,0.5-0.1,2.1-0.8,3.6c-0.5,1.1-1.3,2-2.3,2.6
			l-1.2,0.7v5.2l-1.8,1v-14.1L294.6,164.7z M293.7,171.7l0.7-0.4c0.3-0.2,0.8-0.5,1.2-1.1c0.3-0.6,0.5-1.3,0.5-1.9
			c0-0.8-0.2-1.2-0.5-1.3c-0.4-0.2-0.8,0-1.3,0.3l-0.6,0.4V171.7z"/>
		<path class="st2" d="M304.2,159.1v11.7l2.8-1.6v2.4l-4.6,2.7v-14.1L304.2,159.1z"/>
		<path class="st2" d="M308.9,156c0.5-0.3,1,0.1,1,1s-0.5,1.8-1,2.1s-1-0.1-1-1S308.4,156.3,308.9,156z M309.7,160.9v9.2l-1.7,1
			v-9.2L309.7,160.9z"/>
		<path class="st2" d="M311.3,160l1.7-1v1.2c0.3-0.9,0.9-2,1.8-2.5c0.5-0.3,1.3-0.5,1.8,0.1c0.4,0.5,0.5,1.4,0.5,2.3v5.8l-1.7,1v-5
			c0-0.5,0-1.3-0.3-1.6c-0.3-0.3-0.6-0.1-0.8,0c-0.4,0.3-0.8,0.7-1,1.4c-0.2,0.7-0.3,1.4-0.3,1.9v4.7l-1.7,1V160z"/>
		<path class="st2" d="M320.3,154.8v5.2c0,0.5,0,1.1,0.4,1.4c0.2,0.2,0.5,0.2,0.9,0c0.3-0.2,0.6-0.6,0.9-1c0.3-0.7,0.4-1.3,0.4-1.8
			v-5.2l1.7-1v5.6c0,0.8-0.1,2-0.7,3.2c-0.5,1.1-1.4,1.9-2.2,2.3c-0.7,0.4-1.6,0.6-2.2,0.2c-0.7-0.5-0.7-1.6-0.7-2.4v-5.6
			L320.3,154.8z"/>
		<path class="st2" d="M328,154.6l-2.3-2.8l2.1-1.2l1.2,1.7l1.2-3.1l2.1-1.2l-2.3,5.5l2.8,3.4l-2.1,1.2l-1.7-2.2l-1.7,4.2l-2.1,1.2
			L328,154.6z"/>
		<path class="st2" d="M346.5,141.8c0,4.3-2,8.5-4.9,10.2s-4.9-0.2-4.9-4.5c0-4.3,2-8.5,4.9-10.2S346.5,137.5,346.5,141.8z
			 M344.6,142.9c0-2.9-1.3-4.2-3.1-3.1s-3.1,3.8-3.1,6.6c0,2.9,1.3,4.1,3.1,3.1S344.6,145.7,344.6,142.9z"/>
		<path class="st2" d="M352.6,134.4c-0.5-0.8-1.2-0.5-1.5-0.3c-1,0.6-1.3,1.7-1.3,2.4c0,0.3,0.1,0.6,0.3,0.8
			c0.2,0.2,0.5,0.2,1.1,0.2c0.7,0,1.4,0,1.9,0.3c0.4,0.3,0.8,1.1,0.8,2.5c0,2.7-1.3,5.4-3.2,6.5c-1.7,1-2.7,0-3.2-0.8l1.2-2.4
			c0.4,1.1,1.3,1.1,1.9,0.8c0.8-0.5,1.4-1.6,1.4-2.8c0-0.5-0.1-0.8-0.4-1.1c-0.3-0.3-0.9-0.2-1.4-0.2c-0.5,0-1.1,0-1.5-0.3
			c-0.3-0.2-0.7-0.8-0.7-2.2c0-2.1,0.9-4.7,2.9-5.8c0.6-0.3,1.7-0.8,2.6,0.2L352.6,134.4z"/>
	</g>
</g>
<g>
	<polygon points="171.5,483.2 171.5,477.4 196,491.8 196,497.6 	"/>
	<path class="st2" d="M172,478.2l23.5,13.8v4.7L172,482.9V478.2 M171,476.5v7l25.5,15v-7L171,476.5L171,476.5z"/>
</g>
<g>
	<g>
		<g>
			<polygon points="145.5,496.7 145.5,491.8 170.5,483.4 195.3,491.6 195.3,496.6 170.2,511 			"/>
			<path class="st2" d="M170.5,484.5l23.7,7.9v3.6l-24,13.8l-23.7-13.7v-3.6L170.5,484.5 M170.5,482.3l-26.1,8.8v6.3l25.8,14.9
				l26.1-15.1v-6.3L170.5,482.3L170.5,482.3z"/>
		</g>
		<g>
			<polygon points="146.5,491 170.5,477.2 194.2,490.9 170.2,504.7 			"/>
			<path class="st2" d="M170.5,478.4l21.6,12.5l-21.9,12.6L148.6,491L170.5,478.4 M170.5,476L144.4,491l25.8,14.9l26.1-15.1
				L170.5,476L170.5,476z"/>
		</g>
		<line class="st18" x1="170.4" y1="504.1" x2="170.4" y2="510"/>
	</g>
	<g>
		<polygon points="6.9,562.5 6.9,551 147.9,482.3 202.6,501.4 202.6,512.8 61.7,594.1 		"/>
		<path class="st2" d="M147.9,483.4l53.6,18.7v10.1L61.7,592.9L8,561.9v-10.2L147.9,483.4 M147.8,481.2L5.9,550.3v12.8l55.9,32.3
			l141.9-81.9v-12.8L147.8,481.2L147.8,481.2z"/>
	</g>
	<g>
		<polygon points="8,550.3 147.8,469.6 201.5,500.6 61.7,581.3 		"/>
		<path class="st2" d="M147.8,470.8l51.6,29.8L61.7,580.1l-51.6-29.8L147.8,470.8 M147.8,468.4L5.9,550.3l55.9,32.3l141.9-81.9
			L147.8,468.4L147.8,468.4z"/>
	</g>
	<g>
		<g>
			<path class="st2" d="M62.7,556.3c0.1,0,0.1-0.1,0.2-0.1c0,0,0,0,0.1-0.1c0.5-0.4,0.4-1.1-0.3-1.5c-0.7-0.4-1.4-0.8-2.1-1.2
				c-0.1-0.1-0.1-0.1-0.1-0.2c0.4-0.4,0.8-0.9,0.9-1.5c0-0.1,0.1-0.2,0.1-0.3c0.1,0,0.1,0.1,0.2,0.1c0.6,0.3,1.2,0.7,1.8,1
				c0.9,0.5,2.3,0.5,3-0.1c0.6-0.5,0.3-1.1-0.5-1.6c-2.5-1.5-5.1-2.9-7.6-4.4c-0.4-0.2-0.9-0.5-1.3-0.7c-1.4-0.6-2.9-1-4.6-1.2
				c-0.3,0-0.7-0.1-1-0.1c0,0,0,0,0,0c0,0.1,0,0.2,0.1,0.4c0.1,0.7,0.2,1.3,0.2,2c3.4,0.2,5.7,1.9,5.8,3.5c0.1,1.5-1.9,2.7-4.5,2.7
				c-1.4,0-2.8-0.3-3.9-0.8c-1.4-0.7-2.1-1.5-2.3-2.5c-1.4-0.1-2.7-0.1-4.1-0.2c0.1,0.5,0.2,1,0.5,1.4c0.6,0.9,1.4,1.8,2.7,2.5
				c2.6,1.5,5.2,3,7.8,4.5c0.4,0.3,0.9,0.4,1.5,0.4c0.9,0,1.5-0.2,1.8-0.7c0.3-0.4,0.1-0.9-0.6-1.3c-0.6-0.4-1.2-0.7-1.8-1
				c0,0-0.1-0.1-0.2-0.1c1.2-0.1,2.3-0.3,3.3-0.6c0.1,0,0.1,0.1,0.2,0.1c0.7,0.4,1.4,0.8,2.1,1.2c0.6,0.4,1.4,0.5,2.1,0.4
				C62.3,556.5,62.5,556.4,62.7,556.3z"/>
		</g>
		<g>
			<path class="st2" d="M53.8,551.1c0.8-0.5,0.7-1.4-0.2-1.9c-1.1-0.6-2.5-0.6-3.4-0.1c-0.8,0.5-0.7,1.4,0.3,1.9
				C51.5,551.5,52.9,551.6,53.8,551.1z"/>
		</g>
	</g>
	<g>
		<path class="st2" d="M56.6,523.4l51.6,29.8l-3.7,2.2l-51.6-29.8L56.6,523.4 M56.6,520.9l-8,4.6l55.9,32.3l8-4.6L56.6,520.9
			L56.6,520.9z"/>
	</g>
	<line class="st19" x1="97.3" y1="498.2" x2="150.3" y2="528.9"/>
	<polyline class="st19" points="143.8,472.5 196.7,503.2 196.7,515.6 	"/>
	<g>
		<path class="st2" d="M144.8,492.3c4.6,0,9.1,1.1,12.6,3.1c3,1.8,4.8,4,4.8,6c0,2-1.7,3.4-3.1,4.2c-2.4,1.4-5.7,2.1-9.4,2.1
			c-4.6,0-9.1-1.1-12.6-3.1c-3-1.8-4.8-4-4.8-6c0-2,1.7-3.4,3.1-4.2C137.7,493.1,141.1,492.3,144.8,492.3 M144.8,490.2
			c-3.9,0-7.7,0.8-10.5,2.4c-6.2,3.6-5.4,9.8,1.7,13.9c3.9,2.3,8.9,3.4,13.6,3.4c3.9,0,7.7-0.8,10.5-2.4c6.2-3.6,5.4-9.8-1.7-13.9
			C154.5,491.3,149.5,490.2,144.8,490.2L144.8,490.2z"/>
	</g>
	<line class="st18" x1="61.7" y1="581.3" x2="61.7" y2="593.6"/>
	<g>
		<g>
			<path class="st13" d="M97.4,504.8l43.2,24.9l-30.1,17.2L67.3,522L97.4,504.8 M97.4,502.4L63,522l47.4,27.4l34.3-19.6L97.4,502.4
				L97.4,502.4z"/>
		</g>
		<g>
			<line class="st12" x1="130.7" y1="531" x2="94.8" y2="510.2"/>
			<path class="st12" d="M97.4,519.2c-4.8-2.8-2.7-1.6-7.5-4.3"/>
			<path class="st12" d="M123.8,534.4c-4-2.3-12.9-7.4-16.9-9.8"/>
			<path class="st12" d="M92.5,521.4c-4.8-2.8-4.7-2.7-9.5-5.5"/>
			<path class="st12" d="M118.9,536.7c-4-2.3-8.9-5.1-12.9-7.4"/>
			<path class="st12" d="M88.5,524.1c-4.8-2.8-1.9-1.1-6.7-3.9"/>
			<path class="st12" d="M114.9,539.4c-4-2.3-15.5-8.9-19.5-11.3"/>
		</g>
	</g>
</g>
</svg>
