<?xml version="1.0" encoding="utf-8"?>
<!-- Generator: Adobe Illustrator 19.1.1, SVG Export Plug-In . SVG Version: 6.00 Build 0)  -->
<svg version="1.1" id="Layer_1" xmlns="http://www.w3.org/2000/svg" xmlns:xlink="http://www.w3.org/1999/xlink" x="0px" y="0px"
	 viewBox="1389.6 -273 508.9 828.7" style="enable-background:new 1389.6 -273 508.9 828.7;" xml:space="preserve">
<style type="text/css">
	.st0{opacity:0.6;}
	.st1{clip-path:url(#SVGID_2_);fill:#FFFFFF;}
	.st2{opacity:0.45;}
	.st3{clip-path:url(#SVGID_4_);fill:#FFFFFF;}
	.st4{opacity:0.8;}
	.st5{clip-path:url(#SVGID_6_);fill:#FFFFFF;}
	.st6{clip-path:url(#SVGID_8_);fill:#FFFFFF;}
	.st7{clip-path:url(#SVGID_10_);fill:#FFFFFF;}
</style>
<g class="st0">
	<g>
		<defs>
			<rect id="SVGID_1_" x="1389.6" y="33.4" width="508.7" height="266"/>
		</defs>
		<clipPath id="SVGID_2_">
			<use xlink:href="#SVGID_1_"  style="overflow:visible;"/>
		</clipPath>
		<path class="st1" d="M1644,33.4l-254.4,115.7L1644,299.4l254.3-150.3L1644,33.4z"/>
	</g>
</g>
<g class="st2">
	<g>
		<defs>
			<rect id="SVGID_3_" x="1389.6" y="-273" width="254.4" height="572.4"/>
		</defs>
		<clipPath id="SVGID_4_">
			<use xlink:href="#SVGID_3_"  style="overflow:visible;"/>
		</clipPath>
		<path class="st3" d="M1389.6,149.1L1644,299.4V-273L1389.6,149.1z"/>
	</g>
</g>
<g class="st4">
	<g>
		<defs>
			<rect id="SVGID_5_" x="1644" y="-273" width="254.4" height="572.4"/>
		</defs>
		<clipPath id="SVGID_6_">
			<use xlink:href="#SVGID_5_"  style="overflow:visible;"/>
		</clipPath>
		<path class="st5" d="M1644-273v572.4l254.3-150.3L1644-273z"/>
	</g>
</g>
<g class="st2">
	<g>
		<defs>
			<rect id="SVGID_7_" x="1389.6" y="197.3" width="254.4" height="358.4"/>
		</defs>
		<clipPath id="SVGID_8_">
			<use xlink:href="#SVGID_7_"  style="overflow:visible;"/>
		</clipPath>
		<path class="st6" d="M1389.6,197.3L1644,555.7V347.6L1389.6,197.3z"/>
	</g>
</g>
<g class="st4">
	<g>
		<defs>
			<rect id="SVGID_9_" x="1644" y="197.3" width="254.5" height="358.4"/>
		</defs>
		<clipPath id="SVGID_10_">
			<use xlink:href="#SVGID_9_"  style="overflow:visible;"/>
		</clipPath>
		<path class="st7" d="M1644,347.6v208.1l254.5-358.4L1644,347.6z"/>
	</g>
</g>
</svg>
