<?xml version="1.0" encoding="utf-8"?>
<!-- Generator: Adobe Illustrator 22.0.0, SVG Export Plug-In . SVG Version: 6.00 Build 0)  -->
<svg version="1.1" xmlns="http://www.w3.org/2000/svg" xmlns:xlink="http://www.w3.org/1999/xlink" x="0px" y="0px"
	 viewBox="0 0 600 400" style="enable-background:new 0 0 600 400;" xml:space="preserve">
<style type="text/css">
	.st0{fill:none;stroke:#FFFFFF;stroke-width:3;stroke-linecap:round;stroke-linejoin:round;stroke-miterlimit:10;}
	.st1{fill:none;stroke:#FFFFFF;stroke-width:1.5;stroke-linecap:round;stroke-linejoin:round;stroke-miterlimit:10;}
	.st2{fill:none;stroke:#1210FF;stroke-width:3;stroke-linecap:round;stroke-linejoin:round;stroke-miterlimit:10;}
	
		.st3{fill:none;stroke:#FFFFFF;stroke-width:3;stroke-linecap:round;stroke-linejoin:round;stroke-miterlimit:10;stroke-dasharray:4;}
	
		.st4{fill:none;stroke:#FFFFFF;stroke-width:2.69;stroke-linecap:round;stroke-linejoin:round;stroke-miterlimit:10;stroke-dasharray:3.5866,5.38;}
	.st5{fill:none;stroke:#FFFFFF;stroke-width:2.69;stroke-linecap:round;stroke-linejoin:round;stroke-miterlimit:10;}
	.st6{fill:#1210FF;}
	.st7{font-family:'Futura-Medium';}
	.st8{font-size:20.7846px;}
	.st9{font-size:18px;}
	.st10{fill:#FFFFFF;}
	.st11{font-family:'Arial-BoldMT';}
	.st12{font-size:23.4302px;}
</style>
<g id="Слой_2">
</g>
<g id="Слой_1">
	<g>
		<polygon class="st0" points="235.5,304 72.5,211 72.5,66 235.5,159 		"/>
		<polyline class="st0" points="72.5,66 82.8,60.6 245.8,153.6 245.8,298.6 235.5,304 		"/>
		<line class="st0" x1="235.5" y1="159" x2="245.8" y2="153.6"/>
		<path class="st0" d="M134.9,248.6c0,7.1-3.9,13.6-10.1,16.9l-6.2,3.3l38.6,23.8l9.3-5.2c6.1-3.4,9.9-9.8,9.9-16.8"/>
		<path class="st0" d="M260.2,229.8l84.7-48.5c15.9-9,35.3-8.9,51.1,0.2l56.8,33c15.6,8.9,15.7,31.4,0.1,40.4l-14.6,8.1"/>
		<path class="st0" d="M246.4,231l10.9-5.8c0,0,4.1,3.9,0.1,12.8l-11.1,5.5"/>
		<g>
			<g>
				<polygon class="st0" points="317.5,315 406.5,265 458.5,295 370.5,345 				"/>
				<polyline class="st0" points="317.5,315 317.5,323.5 370.5,353.5 458.5,303.5 458.5,295 				"/>
				<line class="st0" x1="370.5" y1="345" x2="370.5" y2="353.5"/>
				<polygon class="st1" points="427.7,290.4 434.6,286.4 449.4,294.9 442.8,298.9 				"/>
			</g>
			<path class="st0" d="M416.5,269.7l13.2-7.2c0,0,2.7-1.7,7.4,1.1c4.7,2.8,3.4,4.9,3.4,4.9l-13.9,7.8"/>
			<line class="st2" x1="397.5" y1="278.7" x2="435.4" y2="300.9"/>
			<line class="st2" x1="382.2" y1="287.8" x2="420.1" y2="310"/>
			<line class="st2" x1="377" y1="290.7" x2="414.9" y2="313"/>
			<line class="st2" x1="372.1" y1="293.7" x2="410" y2="315.9"/>
			<line class="st2" x1="401" y1="316.5" x2="405.3" y2="319"/>
			<line class="st2" x1="386.3" y1="307.9" x2="396.1" y2="313.6"/>
			<line class="st2" x1="367.4" y1="296.8" x2="376.7" y2="302.2"/>
			<line class="st2" x1="391.7" y1="317" x2="400" y2="321.9"/>
			<line class="st2" x1="362.1" y1="299.7" x2="384.7" y2="313"/>
			<line class="st2" x1="376.1" y1="313.7" x2="395.1" y2="324.9"/>
			<line class="st2" x1="357.2" y1="302.7" x2="365.4" y2="307.5"/>
			<polyline class="st3" points="344.1,308.4 365.2,320.8 382,330.6 			"/>
			<line class="st3" x1="338.8" y1="311.4" x2="376.7" y2="333.6"/>
			<line class="st3" x1="334" y1="314.3" x2="371.9" y2="336.5"/>
			<line class="st2" x1="392.7" y1="281.6" x2="419.7" y2="297.8"/>
			<line class="st0" x1="367.1" y1="339.9" x2="356.6" y2="333.8"/>
		</g>
		<line class="st1" x1="234.8" y1="277" x2="73.4" y2="184.4"/>
		<g>
			<line class="st2" x1="102.9" y1="104.8" x2="206.5" y2="163.3"/>
			<line class="st2" x1="102.9" y1="132.1" x2="206.5" y2="190.5"/>
			<line class="st2" x1="102.9" y1="140.2" x2="206.5" y2="198.7"/>
			<line class="st2" x1="102.9" y1="149.2" x2="206.5" y2="207.6"/>
			<line class="st2" x1="191.9" y1="210.1" x2="206.5" y2="218.4"/>
			<line class="st2" x1="156" y1="189.9" x2="182" y2="204.6"/>
			<line class="st2" x1="102.9" y1="159.9" x2="147.1" y2="184.9"/>
			<line class="st2" x1="175.5" y1="209" x2="206.5" y2="226.6"/>
			<line class="st2" x1="102.9" y1="168.1" x2="164.3" y2="202.7"/>
			<line class="st2" x1="132.6" y1="192.8" x2="206.5" y2="234.5"/>
			<line class="st2" x1="102.9" y1="176" x2="116.7" y2="183.8"/>
			<line class="st2" x1="102.9" y1="112.7" x2="188.9" y2="161.5"/>
		</g>
		<g>
			<g>
				<polygon class="st0" points="58.3,257.8 180.8,328.6 132.3,363.8 9.3,292.8 				"/>
				<polyline class="st0" points="180.8,328.6 180.8,339.8 133.5,369.8 9.1,297.8 9.1,292.9 				"/>
				<line class="st0" x1="132.3" y1="363.8" x2="133.3" y2="369.8"/>
			</g>
			<g>
				<line class="st4" x1="164.8" y1="332.7" x2="54.5" y2="269"/>
				<line class="st4" x1="156.1" y1="338.2" x2="45.8" y2="274.6"/>
				<line class="st4" x1="150.5" y1="341.8" x2="40.3" y2="278.2"/>
				<line class="st4" x1="145.2" y1="345.6" x2="34.9" y2="282"/>
				<line class="st4" x1="139.7" y1="349.5" x2="29.4" y2="285.8"/>
			</g>
			<line class="st5" x1="100.4" y1="326.8" x2="57.6" y2="302.1"/>
		</g>
		<text transform="matrix(0.75 0.433 0 1 82.1431 47.4202)" class="st6 st7 st8">TV, PC, Mac or monitor</text>
		<text transform="matrix(0.866 0.5 0 1 401.2749 169.908)" class="st6 st7 st9">Image</text>
		<text transform="matrix(0.866 0.5 0 1 412.353 159.6449)" class="st10 st11 st12">←</text>
		<text transform="matrix(-0.866 -0.5 0 -1 428.4009 227.3838)" class="st10 st11 st12">←</text>
		<text transform="matrix(0.866 0.5 0 1 452.3589 281.2649)" class="st6 st7 st9">CWP Microcomputer</text>
		<g>
			<g>
				<polygon class="st6" points="407.8,204.8 403.3,197.6 404,197.2 408.6,204.4 				"/>
				<polygon class="st6" points="404.1,206.4 399.5,199.2 400.3,198.8 404.8,206 				"/>
				<polygon class="st6" points="403.3,205.1 407.8,203.2 408.6,204.4 404,206.4 				"/>
				<polygon class="st6" points="399.5,199.2 404,197.2 404.8,198.5 400.3,200.4 				"/>
			</g>
			<polygon class="st6" points="407.4,203.2 412,205.9 412,207 407.4,204.3 			"/>
			<path class="st6" d="M417.6,210.9l1.5,0.9c-0.6,1.2-2,1.4-3.8,0.4c-2.2-1.3-4-4.1-4-6.3c0-2.2,1.8-3,4-1.7c1.8,1,3.3,3.1,3.8,5
				l-1.4-0.8c-0.4-1.1-1.3-2.3-2.4-2.9c-1.5-0.9-2.7-0.3-2.7,1.1s1.2,3.4,2.7,4.2C416.3,211.4,417.1,211.4,417.6,210.9z"/>
			<polygon class="st6" points="415.9,208.1 423.2,212.3 423.2,213.4 415.9,209.2 			"/>
			<g>
				<polygon class="st6" points="430.3,217.7 425.7,210.5 426.5,210.2 431.1,217.4 				"/>
				<polygon class="st6" points="426.5,219.3 422,212.1 422.7,211.8 427.3,219 				"/>
				<polygon class="st6" points="422,212.1 426.5,210.2 427.3,211.4 422.7,213.4 				"/>
				<polygon class="st6" points="425.7,218.1 430.3,216.2 431.1,217.4 426.5,219.3 				"/>
			</g>
			
				<ellipse transform="matrix(0.7992 -0.6011 0.6011 0.7992 -41.7471 291.4747)" class="st6" cx="415.3" cy="208.2" rx="1.1" ry="2"/>
			<polygon class="st6" points="405.9,202.7 402.3,200.6 402.3,200.9 405.9,203 			"/>
			<polygon class="st6" points="428,215.5 425,213.7 425,214 428,215.8 			"/>
			<polygon class="st6" points="403.8,202.9 404.3,203.2 404.3,200.7 403.8,200.4 			"/>
		</g>
	</g>
</g>
</svg>
