<?xml version="1.0" encoding="utf-8"?>
<!-- Generator: Adobe Illustrator 22.0.0, SVG Export Plug-In . SVG Version: 6.00 Build 0)  -->
<svg version="1.1" xmlns="http://www.w3.org/2000/svg" xmlns:xlink="http://www.w3.org/1999/xlink" x="0px" y="0px"
	 viewBox="0 0 600 400" style="enable-background:new 0 0 600 400;" xml:space="preserve">
<style type="text/css">
	.st0{fill:none;stroke:#1210FF;stroke-width:1.5;stroke-linecap:round;stroke-linejoin:round;stroke-miterlimit:10;}
	.st1{fill:#0E0F0F;stroke:#1210FF;stroke-width:2;stroke-miterlimit:10;}
	.st2{fill:#1210FF;}
	.st3{fill:none;stroke:#FFFFFF;stroke-width:4.5431;stroke-linecap:round;stroke-linejoin:round;stroke-miterlimit:10;}
	.st4{fill:none;stroke:#FFFFFF;stroke-width:3;stroke-linecap:round;stroke-linejoin:round;stroke-miterlimit:10;}
	.st5{fill:none;stroke:#FFFFFF;stroke-width:1.5;stroke-linecap:round;stroke-linejoin:round;stroke-miterlimit:10;}
	.st6{font-family:'Futura-Medium';}
	.st7{font-size:14.6885px;}
	.st8{font-size:14.7426px;}
	.st9{font-size:10.6875px;}
	.st10{font-size:16.1223px;}
	.st11{font-size:11.9877px;}
</style>
<g id="Слой_2">
</g>
<g id="Слой_1">
	<g>
		<polyline class="st0" points="353.9,267.5 379.7,282 379.4,309 		"/>
		<polyline class="st0" points="357.7,265.4 383.5,279.8 383.2,306.9 		"/>
		<g>
			
				<ellipse transform="matrix(0.121 -0.9927 0.9927 0.121 20.1255 658.9044)" class="st1" cx="382.1" cy="318.1" rx="11.9" ry="21.1"/>
			<path class="st2" d="M390.7,324.4c-0.9-0.5-1.8-1-2.7-1.6c-1.2,0.7-2.3,1.3-3.5,2c-1.1-0.6-2.2-1.2-3.1-1.9
				c-0.2-0.2-0.3-0.5-0.4-0.7c-0.6-2.3-1.1-4.6-1.7-6.8c0,0,0-0.1,0-0.1c-1.8,1-3.6,2.1-5.4,3.1c-1.1-0.6-2.2-1.3-3.3-1.9
				c1.1-0.6,2.1-1.2,3.2-1.9c-0.9-0.5-1.8-1.1-2.7-1.6c0.9-0.5,1.9-1.1,2.8-1.6c0.9,0.5,1.8,1,2.7,1.5c1.2-0.7,2.3-1.4,3.5-2
				c1.1,0.6,2.2,1.1,3.1,1.9c0.2,0.2,0.3,0.4,0.4,0.6c0.6,2.3,1.1,4.7,1.7,7c0,0,0,0.1,0,0.1c1.9-1.1,3.7-2.2,5.6-3.2
				c1.1,0.6,2.2,1.3,3.3,1.9c-1.2,0.7-2.3,1.3-3.5,2c1,0.5,1.9,1,2.9,1.5C392.6,323.3,391.7,323.8,390.7,324.4z"/>
		</g>
		<polyline class="st0" points="361,263.6 386.9,278 386.9,296 		"/>
		<polyline class="st0" points="395.6,244.3 428.3,264 497.4,223.7 496.3,194.9 		"/>
		<polyline class="st0" points="399,242.1 428.4,259.8 493.9,221.6 492.8,192.8 		"/>
		<polyline class="st0" points="439.4,249.3 490.2,219.6 489,190.9 		"/>
		<polyline class="st0" points="227,212.1 191,233.6 162.2,217 		"/>
		<polyline class="st0" points="245.5,220.7 196.8,249 196.8,282.5 		"/>
		<polyline class="st0" points="251.5,223.4 202.3,252.1 202.3,279.9 		"/>
		<polyline class="st0" points="240.7,217.1 191.7,245.7 150.6,222.3 		"/>
		<polyline class="st0" points="234.7,214 191.3,239.7 156.8,220 		"/>
		<g>
			
				<ellipse transform="matrix(0.121 -0.9927 0.9927 0.121 -86.0523 323.7049)" class="st1" cx="139.7" cy="210.4" rx="17.6" ry="31.1"/>
			<path class="st2" d="M154.3,216.2c-1.2-0.7-2.3-1.3-3.5-2c-0.1-0.1-0.2-0.1-0.1-0.2c0.3-0.2,0.6-0.5,1-0.7
				c0.8-0.6,1.5-1.2,1.9-1.9c0.4-0.8,0.4-1.5-0.1-2.3c-0.8-1.1-2.1-2-3.9-2.7c-1.3-0.5-2.6-0.6-3.9-0.4c-0.6,0.1-1.2,0.2-1.8,0.4
				c0,0,0-0.1,0-0.1c0.2-0.6,0.1-1.2-0.4-1.8c-0.4-0.5-1.1-0.9-1.8-1.3c-1-0.5-2.2-0.9-3.5-0.9c-1.2,0-2.2,0.1-3.2,0.4
				c-0.9,0.3-1.7,0.6-2.5,0.9c-0.1,0.1-0.2,0.1-0.3,0c-0.2-0.1-0.3-0.2-0.5-0.3c-1-0.6-2.1-1.2-3.1-1.8c-0.1-0.1-0.2-0.1-0.3,0
				c-0.6,0.4-1.2,0.7-1.9,1.1c-0.1,0.1-0.1,0.1,0,0.2c0.7,0.4,1.4,0.8,2,1.2c0.5,0.3,1.1,0.6,1.6,0.9c-0.5,0.3-1.1,0.6-1.6,0.9
				c-0.1-0.1-0.2-0.1-0.3-0.1c-1.1-0.7-2.3-1.3-3.4-2c-0.2-0.1-0.3-0.1-0.4,0c-0.6,0.3-1.1,0.7-1.7,1c-0.2,0.1-0.2,0.1,0,0.3
				c1.1,0.6,2.1,1.2,3.2,1.8c0.2,0.1,0.3,0.2,0.5,0.3c-0.2,0.1-0.4,0.3-0.6,0.4c-1.1,0.6-2.2,1.3-3.4,1.9c-0.2,0.1-0.2,0.2,0,0.3
				c0.7,0.4,1.4,0.8,2.1,1.2c0.2,0.1,0.3,0.1,0.5,0c0.5-0.3,1-0.6,1.5-0.9c0.7-0.3,1.5-0.3,2.2,0.1c3.5,2,7.1,4.1,10.6,6.1
				c0.5,0.3,0.6,0.7,0.1,0.9c-0.5,0.3-0.9,0.5-1.4,0.8c-0.1,0.1-0.2,0.1,0,0.3c0.4,0.3,0.7,0.6,1.1,0.9c0.4,0.3,0.8,0.6,1.2,0.9
				c1.4-0.8,2.8-1.6,4.2-2.4c0.1,0.1,0.2,0.1,0.2,0.1c1.2,0.7,2.4,1.4,3.5,2c0.2,0.1,0.3,0.1,0.5,0c0.5-0.3,1.1-0.6,1.7-1
				c0.2-0.1,0.2-0.1,0-0.3c-1.2-0.7-2.3-1.3-3.5-2c-0.2-0.1-0.2-0.2,0-0.2c0.4-0.2,0.8-0.5,1.2-0.7c0.1-0.1,0.2-0.1,0.4,0
				c1.2,0.7,2.3,1.4,3.5,2c0.2,0.1,0.3,0.1,0.4,0c0.6-0.3,1.1-0.7,1.7-1C154.6,216.4,154.6,216.4,154.3,216.2z M135.8,209.8
				c-1.4-0.8-2.7-1.6-4.1-2.4c-0.2-0.1-0.2-0.2-0.1-0.3c0.8-0.5,1.7-1,2.7-1.4c0.7-0.2,1.4-0.4,2.2-0.5c1.6,0,3.6,1,2.9,2.2
				c-0.1,0.2-0.3,0.4-0.4,0.7c-0.7,0.6-1.6,1.2-2.5,1.7C136.2,210.1,136.2,210,135.8,209.8z M148,211.4c-0.2,0.5-0.7,1-1.3,1.4
				c-0.8,0.6-1.7,1.1-2.6,1.6c0,0-0.1,0-0.2,0.1c-0.8-0.4-1.5-0.9-2.3-1.3c-0.9-0.5-1.8-1-2.7-1.5c-0.3-0.2-0.3-0.2,0-0.3
				c1-0.6,1.9-1.2,3.1-1.7c0.6-0.3,1.3-0.5,2.2-0.6c1.1-0.1,2.1,0,3,0.6C148.1,210.2,148.2,210.8,148,211.4z"/>
		</g>
		<g>
			<path class="st1" d="M502,160.3c-12.5-4.7-27-4.8-37.5-1.1l-11.7,22.2c3,4.8,8.9,9.3,17.2,12.4c17.4,6.5,38.8,4.3,47.6-5
				C526.4,179.5,519.5,166.8,502,160.3z"/>
			<g>
				<path class="st2" d="M489.7,169.7c-5.9,3.4-11.8,6.8-17.7,10.2c-0.3-0.3-0.5-0.5-0.7-0.7c-0.9-0.9-1.7-1.8-2.6-2.7
					c-0.2-0.2-0.2-0.3,0.1-0.5c6.5-3.7,12.9-7.5,19.4-11.2c1.9-1.1,4.8-0.9,7,0.6c1,0.7,1.8,1.6,2.6,2.4c1.8,1.9,3.6,3.7,5.4,5.6
					c1.8,1.9,1.5,5-1,6.4c-6.3,3.5-12.5,7.2-18.7,10.7c-0.2,0.1-0.4,0.2-0.7,0.4c-0.2-0.1-0.3-0.2-0.4-0.4c-1-1-1.9-2-2.9-2.9
					c-0.3-0.3-0.3-0.5,0.1-0.7c5.6-3.2,11.2-6.4,16.8-9.7c0.4-0.2,0.5-0.4,0.1-0.8c-2.2-2.2-4.3-4.4-6.4-6.6
					C490,169.9,489.9,169.8,489.7,169.7z"/>
				<path class="st2" d="M481.7,177.4c0.7,0.7,1.3,1.4,2,2c0.4,0.4,0.8,0.8,1.1,1.2c0.1,0.1,0.1,0.3,0,0.3c-3.4,2-6.8,3.9-10.2,5.9
					c0,0-0.1,0-0.2,0c-0.2-0.2-0.3-0.3-0.5-0.5c-0.8-0.9-1.6-1.8-2.5-2.6c-0.2-0.2-0.2-0.3,0-0.5c3.3-1.9,6.7-3.8,10-5.8
					C481.5,177.5,481.6,177.5,481.7,177.4z"/>
			</g>
		</g>
		<line class="st3" x1="388.8" y1="231.7" x2="405.8" y2="222.3"/>
		<line class="st0" x1="227.3" y1="127.2" x2="268.7" y2="151.6"/>
		<line class="st0" x1="223.9" y1="130" x2="265.2" y2="154.4"/>
		<line class="st0" x1="232.2" y1="125.4" x2="273.6" y2="149.8"/>
		<g>
			<g>
				<g>
					<polygon class="st4" points="420.9,217.1 285.9,141.5 207,186.9 340.5,262.5 					"/>
					<polyline class="st4" points="420.9,217.1 420.9,230 340.5,275.3 207,199.7 207,186.9 					"/>
					<line class="st4" x1="340.5" y1="262.5" x2="340.5" y2="275.3"/>
				</g>
			</g>
			<polyline class="st4" points="420.9,230 430.6,225.5 476.3,135.6 329.7,54.3 291.7,143.5 			"/>
			<polyline class="st5" points="407.3,221.5 397.2,216 379.2,225.9 379.2,229.1 387.2,234 			"/>
			<g>
				<polygon class="st5" points="340.1,177.5 285.3,147.8 262.1,161.4 314.8,191.6 				"/>
				<polyline class="st5" points="340.1,177.7 340.1,181.2 314.8,195.3 262.1,165.1 262.1,161.6 				"/>
				<g>
					<path class="st5" d="M316.7,192.7c0,0,3,0.5,2.3,3.5"/>
					<path class="st5" d="M320.8,190.4c0,0,3,0.5,2.3,3.5"/>
					<path class="st5" d="M324.8,188.2c0,0,3,0.5,2.3,3.5"/>
					<path class="st5" d="M328.9,185.9c0,0,3,0.5,2.3,3.5"/>
					<path class="st5" d="M332.9,183.6c0,0,3,0.5,2.3,3.5"/>
					<path class="st5" d="M337,181.4c0,0,3,0.5,2.3,3.5"/>
				</g>
			</g>
			<polygon class="st5" points="264.2,174.1 247.4,164.4 219.5,180.3 235.8,190 			"/>
			<polyline class="st5" points="264.2,174.1 264.2,178.1 235.8,193.9 216.6,182.7 			"/>
			<line class="st5" x1="235.8" y1="193.9" x2="235.8" y2="190"/>
			<g>
				<g>
					<polygon class="st5" points="307.1,196.3 274.4,178.4 244.6,195.4 276.8,213.3 					"/>
					<polyline class="st5" points="307.1,196.5 307.1,199.4 276.8,216.3 244.6,198.4 244.6,195.5 					"/>
					<g>
						<path class="st5" d="M278.4,214.2c0,0,2.4,0.4,1.9,2.9"/>
						<path class="st5" d="M281.7,212.4c0,0,2.4,0.4,1.9,2.9"/>
						<path class="st5" d="M285.1,210.5c0,0,2.4,0.4,1.9,2.9"/>
						<path class="st5" d="M288.4,208.6c0,0,2.4,0.4,1.9,2.9"/>
						<path class="st5" d="M291.8,206.8c0,0,2.4,0.4,1.9,2.9"/>
						<path class="st5" d="M295.1,204.9c0,0,2.4,0.4,1.9,2.9"/>
						<path class="st5" d="M298.5,203.1c0,0,2.4,0.4,1.9,2.9"/>
						<path class="st5" d="M301.8,201.2c0,0,2.4,0.4,1.9,2.9"/>
						<path class="st5" d="M305.2,199.4c0,0,2.4,0.4,1.9,2.9"/>
					</g>
				</g>
				<text transform="matrix(0.75 -0.433 0.866 0.5 269.6866 204.4268)" class="st2 st6 st7">CPU</text>
			</g>
			<g>
				<g>
					<polygon class="st5" points="339.7,214.4 321.3,203.8 290.7,221.2 308.6,231.8 					"/>
					<polyline class="st5" points="339.7,214.5 339.7,217.5 308.6,234.9 290.7,224.3 290.7,221.3 					"/>
					<g>
						<path class="st5" d="M310.2,232.8c0,0,2.5,0.4,2,3"/>
						<path class="st5" d="M313.6,230.9c0,0,2.5,0.4,2,3"/>
						<path class="st5" d="M317.1,229c0,0,2.5,0.4,2,3"/>
						<path class="st5" d="M320.5,227c0,0,2.5,0.4,2,3"/>
						<path class="st5" d="M324,225.1c0,0,2.5,0.4,2,3"/>
						<path class="st5" d="M327.4,223.2c0,0,2.5,0.4,2,3"/>
						<path class="st5" d="M330.8,221.3c0,0,2.5,0.4,2,3"/>
						<path class="st5" d="M334.3,219.4c0,0,2.5,0.4,2,3"/>
						<path class="st5" d="M337.7,217.5c0,0,2.5,0.4,2,3"/>
					</g>
				</g>
				<g>
					<polygon class="st5" points="365.5,229.8 347.1,219.1 316.5,236.6 334.4,247.2 					"/>
					<polyline class="st5" points="365.5,229.9 365.5,232.9 334.4,250.3 316.5,239.7 316.5,236.7 					"/>
					<g>
						<path class="st5" d="M336,248.1c0,0,2.5,0.4,2,3"/>
						<path class="st5" d="M339.4,246.2c0,0,2.5,0.4,2,3"/>
						<path class="st5" d="M342.9,244.3c0,0,2.5,0.4,2,3"/>
						<path class="st5" d="M346.3,242.4c0,0,2.5,0.4,2,3"/>
						<path class="st5" d="M349.8,240.5c0,0,2.5,0.4,2,3"/>
						<path class="st5" d="M353.2,238.6c0,0,2.5,0.4,2,3"/>
						<path class="st5" d="M356.6,236.7c0,0,2.5,0.4,2,3"/>
						<path class="st5" d="M360.1,234.8c0,0,2.5,0.4,2,3"/>
						<path class="st5" d="M363.5,232.9c0,0,2.5,0.4,2,3"/>
					</g>
				</g>
				<text transform="matrix(0.75 -0.433 0.866 0.5 334.1605 242.9903)" class="st2 st6 st8">RAM</text>
				<text transform="matrix(0.75 -0.433 0.866 0.5 307.9164 227.7331)" class="st2 st6 st8">RAM</text>
			</g>
			<text transform="matrix(0.75 -0.433 0.866 0.5 235.7211 185.4851)" class="st2 st6 st9">HDMI</text>
			<text transform="matrix(0.75 0.433 -0.866 0.5 278.8788 163.5411)" class="st2 st6 st10">Flash</text>
			<text transform="matrix(0.75 0.433 -0.866 0.5 336.0994 193.7302)" class="st2 st6 st11">Fingerprint</text>
		</g>
		<g>
			
				<ellipse transform="matrix(0.121 -0.9927 0.9927 0.121 66.3903 296.065)" class="st1" cx="200.4" cy="110.5" rx="23.5" ry="41.5"/>
			<g id="oO4Dbh.tif_1_">
				<g>
					<path class="st2" d="M178.4,97.9c0.6,0.1,0.9,0.1,1.3,0.2c10.3,1.8,20.6,3.7,30.8,5.5c0.8,0.1,1,0.3,0.8,0.8
						c-1.1,3.4-2.2,6.8-3.2,10.2c-0.1,0.3-0.3,0.4-0.8,0.4c-5.8,0.6-11.6,1.2-17.4,1.8c-0.4,0-0.7,0-1.2,0.1
						C185.4,110.6,181.9,104.3,178.4,97.9z"/>
					<path class="st2" d="M214.3,105.6c2.3,5.6,4.7,11.3,7.1,17c-10-1.4-19.8-2.7-29.6-4.1c0,0,0-0.1,0-0.1c0.6-0.1,1.2-0.1,1.9-0.2
						c5.4-0.6,10.8-1.2,16.2-1.8c0.5-0.1,0.8-0.2,0.9-0.5c1.1-3.5,2.2-6.9,3.3-10.4C214.1,105.6,214.2,105.6,214.3,105.6z"/>
				</g>
			</g>
		</g>
		<g>
			
				<ellipse transform="matrix(0.121 -0.9927 0.9927 0.121 -114.4301 452.4969)" class="st1" cx="198.3" cy="290.9" rx="12.8" ry="22.6"/>
			<path class="st2" d="M192.4,285.4c1.4,1.3,2.8,2.6,4.3,3.9c0.3-0.4,0.6-0.9,0.9-1.3c0.2,0.1,0.3,0.3,0.4,0.4
				c0.3,0.3,0.6,0.5,0.8,0.8c0.1,0.1,0.1,0.1,0,0.2c-0.2,0.4-0.5,0.8-0.8,1.1c-0.1,0.1-0.1,0.2,0,0.3c0.7,0.6,1.4,1.3,2.1,1.9
				c0.1,0.1,0.3,0.3,0.5,0.4c2-1.1,4-2.3,6-3.4c0.3,0.2,0.5,0.5,0.8,0.7c0.4,0.3,0.7,0.7,1.1,1c0.1,0.1,0.1,0.2,0,0.2
				c-0.7,0.4-1.4,0.8-2.1,1.2c-2.4,1.4-4.8,2.8-7.2,4.2c-0.1,0-0.1,0.1-0.2,0.1c-1.1-1-2.2-2-3.4-3.1c-0.3,0.4-0.5,0.8-0.8,1.2
				c-0.5-0.4-0.9-0.8-1.3-1.2c0,0,0-0.1,0-0.1c0.2-0.3,0.4-0.6,0.7-1c0.1-0.1,0-0.1-0.1-0.2c-0.8-0.7-1.6-1.5-2.4-2.2
				c-1-0.9-2-1.8-3-2.8c-0.1-0.1-0.1-0.1,0-0.2c1.1-0.6,2.3-1.3,3.4-2C192.3,285.4,192.4,285.4,192.4,285.4z"/>
		</g>
	</g>
</g>
</svg>
