<?xml version="1.0" encoding="utf-8"?>
<!-- Generator: Adobe Illustrator 22.0.0, SVG Export Plug-In . SVG Version: 6.00 Build 0)  -->
<svg version="1.1" xmlns="http://www.w3.org/2000/svg" xmlns:xlink="http://www.w3.org/1999/xlink" x="0px" y="0px"
	 viewBox="0 0 600 400" style="enable-background:new 0 0 600 400;" xml:space="preserve">
<style type="text/css">
	.st0{fill:#0E0F0F;stroke:#FFFFFF;stroke-width:3;stroke-miterlimit:10;}
	.st1{fill:none;stroke:#FFFFFF;stroke-width:1.5;stroke-linecap:round;stroke-linejoin:round;stroke-miterlimit:10;}
	.st2{fill:none;stroke:#FFFFFF;stroke-width:3;stroke-linecap:round;stroke-linejoin:round;stroke-miterlimit:10;}
	.st3{fill:#1210FF;}
	.st4{fill:#FFFFFF;}
	.st5{opacity:0.82;fill:#0E0F0F;stroke:#FFFFFF;stroke-width:3;stroke-miterlimit:10;}
	.st6{fill:none;stroke:#1210FF;stroke-miterlimit:10;}
	.st7{fill:#141426;stroke:#1210FF;stroke-width:3;stroke-miterlimit:10;}
</style>
<g id="Слой_2">
</g>
<g id="Слой_1">
	<g>
		<g>
			<polygon class="st0" points="305.1,172.9 491.8,282 491.8,115.8 305.1,6.8 			"/>
			<line class="st1" x1="440.6" y1="86.5" x2="440.6" y2="252.5"/>
			<g>
				<line class="st1" x1="492.2" y1="156.8" x2="441.4" y2="126.2"/>
				<line class="st2" x1="474.3" y1="130.9" x2="459.9" y2="122.2"/>
				<line class="st1" x1="475.1" y1="137.1" x2="454.7" y2="124.8"/>
				
					<ellipse transform="matrix(0.9407 -0.3392 0.3392 0.9407 -18.3824 171.9398)" class="st3" cx="482.7" cy="138.6" rx="3.6" ry="6.2"/>
			</g>
			<g>
				<line class="st1" x1="492.2" y1="181.7" x2="441.4" y2="151"/>
				<line class="st2" x1="474.3" y1="155.7" x2="459.9" y2="147"/>
				<line class="st1" x1="475.1" y1="161.9" x2="454.7" y2="149.6"/>
				
					<ellipse transform="matrix(0.9407 -0.3392 0.3392 0.9407 -26.8105 173.4128)" class="st3" cx="482.7" cy="163.4" rx="3.6" ry="6.2"/>
			</g>
			<g>
				<line class="st1" x1="492.2" y1="207" x2="441.4" y2="176.3"/>
				<line class="st2" x1="474.3" y1="181" x2="459.9" y2="172.3"/>
				<line class="st1" x1="475.1" y1="187.2" x2="454.7" y2="174.9"/>
				
					<ellipse transform="matrix(0.9407 -0.3392 0.3392 0.9407 -35.3939 174.9129)" class="st3" cx="482.7" cy="188.7" rx="3.6" ry="6.2"/>
			</g>
			<g>
				<line class="st1" x1="492.2" y1="231.8" x2="441.4" y2="201.2"/>
				<line class="st2" x1="474.3" y1="205.9" x2="459.9" y2="197.2"/>
				<line class="st1" x1="475.1" y1="212.1" x2="454.7" y2="199.8"/>
				
					<ellipse transform="matrix(0.9407 -0.3392 0.3392 0.9407 -43.822 176.3859)" class="st3" cx="482.7" cy="213.6" rx="3.6" ry="6.2"/>
			</g>
			<g>
				<line class="st1" x1="492.2" y1="257.7" x2="441.4" y2="227.1"/>
				<line class="st2" x1="474.3" y1="231.7" x2="459.9" y2="223.1"/>
				<line class="st1" x1="475.1" y1="237.9" x2="454.7" y2="225.6"/>
				
					<ellipse transform="matrix(0.9407 -0.3392 0.3392 0.9407 -52.5959 177.9194)" class="st3" cx="482.7" cy="239.4" rx="3.6" ry="6.2"/>
			</g>
			<g>
				<line class="st1" x1="492.2" y1="130.5" x2="305.3" y2="19.4"/>
				<line class="st1" x1="440.8" y1="226.8" x2="305.3" y2="146.2"/>
				<line class="st2" x1="474.3" y1="256.6" x2="459.9" y2="247.9"/>
				<line class="st1" x1="475.1" y1="262.8" x2="454.7" y2="250.5"/>
				
					<ellipse transform="matrix(0.9407 -0.3392 0.3392 0.9407 -61.024 179.3923)" class="st3" cx="482.7" cy="264.3" rx="3.6" ry="6.2"/>
			</g>
			<g>
				<g>
					<path class="st3" d="M369,147.4l49.2,28.4c6.7,3.9,12.1-0.3,12.1-9.2v0c0-8.9-5.5-19.3-12.1-23.2L369,115
						c-6.7-3.9-12.1,0.3-12.1,9.2v0C356.9,133.1,362.3,143.5,369,147.4z"/>
					<path class="st3" d="M427.8,195.2c0,0-7.8-5.7-7.8-18.4s-8.6-17.7-8.6-17.7l0.6,13.1C411.9,172.2,413.7,187,427.8,195.2z"/>
				</g>
				<g>
					<path class="st4" d="M417.7,156.5l-49.6-28.6c-0.7-0.4-1.3-1.5-1.3-2.5c0-1,0.6-1.4,1.3-1l49.6,28.6c0.7,0.4,1.3,1.5,1.3,2.5
						C419,156.5,418.4,157,417.7,156.5z"/>
				</g>
				<g>
					<path class="st4" d="M417.8,165.5L382.3,145c-0.7-0.4-1.3-1.5-1.3-2.5c0-1,0.6-1.4,1.3-1l35.4,20.5c0.7,0.4,1.3,1.5,1.3,2.5
						S418.5,165.9,417.8,165.5z"/>
				</g>
			</g>
			<g>
				<g>
					<path class="st3" d="M400.7,118.9L332,79.2c-6.7-3.9-12.1-14.3-12.1-23.2v0c0-8.9,5.5-13,12.1-9.2l68.7,39.6
						c6.7,3.9,12.1,14.3,12.1,23.2v0C412.8,118.6,407.4,122.7,400.7,118.9z"/>
					<path class="st3" d="M322.5,87.6c0,0,7.8,3.4,7.8-9.4s8.6-7.7,8.6-7.7l-0.6,12.3C338.4,82.9,336.6,95.7,322.5,87.6z"/>
				</g>
				<g>
					<path class="st4" d="M332.6,60.6l69,39.8c0.7,0.4,1.3,0,1.3-1c0-1-0.6-2.1-1.3-2.5l-69-39.8c-0.7-0.4-1.3,0-1.3,1
						C331.3,59.1,331.9,60.2,332.6,60.6z"/>
				</g>
				<g>
					<path class="st4" d="M364.1,87.7l37.5,21.7c0.7,0.4,1.3,0,1.3-1s-0.6-2.1-1.3-2.5l-37.5-21.7c-0.7-0.4-1.3,0-1.3,1
						S363.4,87.3,364.1,87.7z"/>
				</g>
			</g>
			
				<ellipse transform="matrix(0.9199 -0.3922 0.3922 0.9199 -39.6912 137.5087)" class="st3" cx="316.7" cy="165.9" rx="4.8" ry="9.2"/>
			<g>
				<g>
					<path class="st4" d="M422.1,226.6l-79.5-46.5c-0.5-0.3-0.8-1-0.8-1.6c0-0.6,0.4-0.9,0.8-0.6l79.5,46.5c0.5,0.3,0.8,1,0.8,1.6
						C422.9,226.6,422.6,226.9,422.1,226.6z"/>
				</g>
				<g>
					<path class="st4" d="M422.2,232.3l-70.6-41.3c-0.5-0.3-0.8-1-0.8-1.6s0.4-0.9,0.8-0.6l70.6,41.3c0.5,0.3,0.8,1,0.8,1.6
						S422.6,232.5,422.2,232.3z"/>
				</g>
			</g>
		</g>
		<polygon class="st5" points="491.6,279.4 304.9,172.8 304.9,6.7 491.6,113.3 		"/>
		<g>
			<polygon class="st6" points="224.5,224 224.5,48.4 408.4,154.6 408.5,330.2 			"/>
			<line class="st6" x1="394.3" y1="322" x2="394.3" y2="146.4"/>
			<line class="st6" x1="380.2" y1="313.9" x2="380.2" y2="138.2"/>
			<line class="st6" x1="366" y1="305.7" x2="366" y2="130.1"/>
			<line class="st6" x1="351.9" y1="297.5" x2="351.9" y2="121.9"/>
			<line class="st6" x1="337.7" y1="289.4" x2="337.7" y2="113.7"/>
			<line class="st6" x1="323.6" y1="281.2" x2="323.6" y2="105.6"/>
			<line class="st6" x1="309.4" y1="273" x2="309.4" y2="97.4"/>
			<line class="st6" x1="295.3" y1="264.9" x2="295.3" y2="89.2"/>
			<line class="st6" x1="281.1" y1="256.7" x2="281.1" y2="81.1"/>
			<line class="st6" x1="267" y1="248.5" x2="267" y2="72.9"/>
			<line class="st6" x1="252.8" y1="240.4" x2="252.8" y2="64.7"/>
			<line class="st6" x1="238.7" y1="232.2" x2="238.7" y2="56.6"/>
			<line class="st6" x1="224.5" y1="66" x2="408.4" y2="172.1"/>
			<line class="st6" x1="224.5" y1="83.5" x2="408.4" y2="189.7"/>
			<line class="st6" x1="224.5" y1="101.1" x2="408.4" y2="207.3"/>
			<line class="st6" x1="224.5" y1="118.6" x2="408.4" y2="224.8"/>
			<line class="st6" x1="224.5" y1="136.2" x2="408.4" y2="242.4"/>
			<line class="st6" x1="224.5" y1="153.8" x2="408.4" y2="259.9"/>
			<line class="st6" x1="224.5" y1="171.3" x2="408.4" y2="277.5"/>
			<line class="st6" x1="224.5" y1="188.9" x2="408.4" y2="295.1"/>
			<line class="st6" x1="224.5" y1="206.5" x2="408.5" y2="312.6"/>
		</g>
		<polygon class="st7" points="388.5,338.9 201.8,232.4 201.8,66.3 388.5,172.8 		"/>
		<g>
			<g>
				<path class="st3" d="M326.1,239.9l-49.2-28.4c-6.7-3.9-12.1-14.3-12.1-23.2v0c0-8.9,5.5-13,12.1-9.2l49.2,28.4
					c6.7,3.9,12.1,14.3,12.1,23.2v0C338.2,239.6,332.7,243.8,326.1,239.9z"/>
				<path class="st3" d="M267.3,219.9c0,0,7.8,3.4,7.8-9.4s8.6-7.7,8.6-7.7l-0.6,12.3C283.1,215.2,281.4,228,267.3,219.9z"/>
			</g>
		</g>
		<path class="st3" d="M364.7,215.5c0-0.1,0-0.1,0-0.2c5.9,2.3,10.4-1.9,10.4-10c0-8.9-5.5-19.3-12.1-23.2l-68.7-39.6
			c-6.7-3.9-12.1,0.3-12.1,9.2v0c0,8.9,5.5,19.3,12.1,23.2l62.3,36l0,0c0,0,1.7,14.9,15.8,23C372.5,233.8,364.7,228.2,364.7,215.5z"
			/>
		<g>
			<polygon class="st6" points="177.6,250.8 177.6,75.2 361.5,181.4 361.5,357 			"/>
			<line class="st6" x1="347.4" y1="348.8" x2="347.4" y2="173.2"/>
			<line class="st6" x1="333.2" y1="340.7" x2="333.2" y2="165"/>
			<line class="st6" x1="319.1" y1="332.5" x2="319.1" y2="156.9"/>
			<line class="st6" x1="304.9" y1="324.3" x2="304.9" y2="148.7"/>
			<line class="st6" x1="290.8" y1="316.2" x2="290.8" y2="140.5"/>
			<line class="st6" x1="276.7" y1="308" x2="276.7" y2="132.4"/>
			<line class="st6" x1="262.5" y1="299.8" x2="262.5" y2="124.2"/>
			<line class="st6" x1="248.4" y1="291.6" x2="248.4" y2="116"/>
			<line class="st6" x1="234.2" y1="283.5" x2="234.2" y2="107.9"/>
			<line class="st6" x1="220.1" y1="275.3" x2="220.1" y2="99.7"/>
			<line class="st6" x1="205.9" y1="267.1" x2="205.9" y2="91.5"/>
			<line class="st6" x1="191.8" y1="259" x2="191.8" y2="83.3"/>
			<line class="st6" x1="177.6" y1="92.7" x2="361.5" y2="198.9"/>
			<line class="st6" x1="177.6" y1="110.3" x2="361.5" y2="216.5"/>
			<line class="st6" x1="177.6" y1="127.9" x2="361.5" y2="234.1"/>
			<line class="st6" x1="177.6" y1="145.4" x2="361.5" y2="251.6"/>
			<line class="st6" x1="177.6" y1="163" x2="361.5" y2="269.2"/>
			<line class="st6" x1="177.6" y1="180.6" x2="361.5" y2="286.7"/>
			<line class="st6" x1="177.6" y1="198.1" x2="361.5" y2="304.3"/>
			<line class="st6" x1="177.6" y1="215.7" x2="361.5" y2="321.9"/>
			<line class="st6" x1="177.6" y1="233.2" x2="361.5" y2="339.4"/>
		</g>
		<g>
			<path class="st4" d="M323.9,162.2c0.3,0.2,0.7,0.4,1,0.6c0.2,0.2,0.4,0.3,0.5,0.5c2.2,1.9,3.8,5.4,4,8.4c0,1.2,0,2.3,0,3.5
				c0,0.1,0,0.3,0,0.4c0.1,0.1,0.1,0.1,0.1,0.1c0.9,0.6,1.6,2.1,1.5,3.4c0,0.9,0,1.9,0,2.8c0,2.7,0,5.4,0,8.1c0,0.8-0.3,1.3-0.8,1.5
				c-0.2,0-0.4,0-0.6,0c-3.5-2-7.1-4.1-10.6-6.1c0,0,0-0.1-0.1-0.1c-0.9-0.8-1.3-1.9-1.3-3.1c0-3.7,0-7.4,0-11.1
				c0-1.1,0.6-1.7,1.4-1.4c0.1,0,0.2,0.1,0.3,0.1c0-1.1,0-2.2,0-3.3c0-2.8,1.2-4.6,3.2-4.5C322.9,161.9,323.4,162.1,323.9,162.2z
				 M321,170.6c2.3,1.3,4.5,2.6,6.8,3.9c0-1,0-2,0-3.1c0-0.4,0-0.7-0.1-1.1c-0.2-2.2-1.6-4.5-3.2-5.5c-1.6-1-3.1-0.5-3.4,1.4
				C320.9,167.5,321,169.1,321,170.6z"/>
			<path class="st3" d="M323.5,181.6c0-0.1,0-0.2,0-0.3c0-0.3-0.1-0.6-0.3-1c-0.5-0.9-0.7-2.1-0.4-2.8c0.3-0.7,1-0.9,1.7-0.4
				c0.8,0.5,1.4,1.6,1.5,2.6c0.1,1-0.1,1.7-0.6,1.9c-0.1,0-0.1,0.2-0.1,0.3c0,0.4,0,0.8,0,1.2c0,0.6-0.4,0.9-0.8,0.6
				c-0.5-0.3-0.8-0.9-0.8-1.6C323.5,182,323.5,181.8,323.5,181.6C323.5,181.6,323.5,181.6,323.5,181.6z"/>
		</g>
		<g>
			<path class="st4" d="M301.3,196.2c0.3,0.2,0.7,0.4,1,0.6c0.2,0.2,0.4,0.3,0.5,0.5c2.2,1.9,3.8,5.4,4,8.4c0,1.2,0,2.3,0,3.5
				c0,0.1,0,0.3,0,0.4c0.1,0.1,0.1,0.1,0.1,0.1c0.9,0.6,1.6,2.1,1.5,3.4c0,0.9,0,1.9,0,2.8c0,2.7,0,5.4,0,8.1c0,0.8-0.3,1.3-0.8,1.5
				c-0.2,0-0.4,0-0.6,0c-3.5-2-7.1-4.1-10.6-6.1c0,0,0-0.1-0.1-0.1c-0.9-0.8-1.3-1.9-1.3-3.1c0-3.7,0-7.4,0-11.1
				c0-1.1,0.6-1.7,1.4-1.4c0.1,0,0.2,0.1,0.3,0.1c0-1.1,0-2.2,0-3.3c0-2.8,1.2-4.6,3.2-4.5C300.3,196,300.8,196.1,301.3,196.2z
				 M298.4,204.6c2.3,1.3,4.5,2.6,6.8,3.9c0-1,0-2,0-3.1c0-0.4,0-0.7-0.1-1.1c-0.2-2.2-1.6-4.5-3.2-5.5c-1.6-1-3.1-0.5-3.4,1.4
				C298.3,201.6,298.4,203.1,298.4,204.6z"/>
			<path class="st3" d="M300.9,215.6c0-0.1,0-0.2,0-0.3c0-0.3-0.1-0.6-0.3-1c-0.5-0.9-0.7-2.1-0.4-2.8c0.3-0.7,1-0.9,1.7-0.4
				c0.8,0.5,1.4,1.6,1.5,2.6c0.1,1-0.1,1.7-0.6,1.9c-0.1,0-0.1,0.2-0.1,0.3c0,0.4,0,0.8,0,1.2c0,0.6-0.4,0.9-0.8,0.6
				c-0.5-0.3-0.8-0.9-0.8-1.6C300.9,216,300.9,215.8,300.9,215.6C300.9,215.6,300.9,215.6,300.9,215.6z"/>
		</g>
		<line class="st6" x1="177.6" y1="75.2" x2="105.5" y2="116.8"/>
		<line class="st6" x1="361.5" y1="357" x2="295.5" y2="394.2"/>
		<line class="st6" x1="361.5" y1="181.4" x2="294" y2="226.3"/>
		<g>
			<polygon class="st0" points="294,392.4 107.2,285.8 107.2,119.7 294,226.3 			"/>
			<line class="st1" x1="158.4" y1="149.5" x2="158.4" y2="315.5"/>
			<g>
				<line class="st1" x1="106.8" y1="160.2" x2="157.7" y2="188.3"/>
				<line class="st2" x1="124.7" y1="154.9" x2="139.1" y2="162.9"/>
				<line class="st1" x1="123.9" y1="160.2" x2="144.4" y2="171.5"/>
				
					<ellipse transform="matrix(0.9329 -0.3601 0.3601 0.9329 -47.2694 52.1454)" class="st3" cx="116.3" cy="153" rx="3.4" ry="6.4"/>
			</g>
			<g>
				<line class="st1" x1="106.8" y1="185" x2="157.7" y2="213.2"/>
				<line class="st2" x1="124.7" y1="179.8" x2="139.1" y2="187.8"/>
				<line class="st1" x1="123.9" y1="185.1" x2="144.4" y2="196.4"/>
				
					<ellipse transform="matrix(0.9329 -0.3601 0.3601 0.9329 -56.2163 53.812)" class="st3" cx="116.3" cy="177.8" rx="3.4" ry="6.4"/>
			</g>
			<g>
				<line class="st1" x1="106.8" y1="210.4" x2="157.7" y2="238.5"/>
				<line class="st2" x1="124.7" y1="205.1" x2="139.1" y2="213.1"/>
				<line class="st1" x1="123.9" y1="210.4" x2="144.4" y2="221.7"/>
				
					<ellipse transform="matrix(0.9329 -0.3601 0.3601 0.9329 -65.3279 55.5093)" class="st3" cx="116.3" cy="203.1" rx="3.4" ry="6.4"/>
			</g>
			<g>
				<line class="st1" x1="106.8" y1="235.2" x2="157.7" y2="263.3"/>
				<line class="st2" x1="124.7" y1="229.9" x2="139.1" y2="237.9"/>
				<line class="st1" x1="123.9" y1="235.2" x2="144.4" y2="246.5"/>
				
					<ellipse transform="matrix(0.9329 -0.3601 0.3601 0.9329 -74.2748 57.1759)" class="st3" cx="116.3" cy="228" rx="3.4" ry="6.4"/>
			</g>
			<g>
				<line class="st1" x1="106.8" y1="261.1" x2="157.7" y2="289.2"/>
				<line class="st2" x1="124.7" y1="255.8" x2="139.1" y2="263.8"/>
				<line class="st1" x1="123.9" y1="261.1" x2="144.4" y2="272.4"/>
				
					<ellipse transform="matrix(0.9329 -0.3601 0.3601 0.9329 -83.5888 58.9109)" class="st3" cx="116.3" cy="253.8" rx="3.4" ry="6.4"/>
			</g>
			<g>
				<line class="st1" x1="106.8" y1="133.9" x2="293.7" y2="238.6"/>
				<line class="st1" x1="158.3" y1="289.6" x2="293.7" y2="365.4"/>
				<line class="st2" x1="124.7" y1="280.7" x2="139.1" y2="288.6"/>
				<line class="st1" x1="123.9" y1="285.9" x2="144.4" y2="297.2"/>
				
					<ellipse transform="matrix(0.9329 -0.3601 0.3601 0.9329 -92.5356 60.5775)" class="st3" cx="116.3" cy="278.7" rx="3.4" ry="6.4"/>
			</g>
			<g>
				<g>
					<path class="st3" d="M230,293l-49.2-28.4c-6.7-3.9-12.1-14.3-12.1-23.2v0c0-8.9,5.5-13,12.1-9.2l49.2,28.4
						c6.7,3.9,12.1,14.3,12.1,23.2v0C242.2,292.8,236.7,296.9,230,293z"/>
					<path class="st3" d="M171.3,273c0,0,7.8,3.4,7.8-9.4s8.6-7.7,8.6-7.7l-0.6,12.3C187.1,268.3,185.4,281.1,171.3,273z"/>
				</g>
				<g>
					<path class="st4" d="M181.4,246l49.6,28.6c0.7,0.4,1.3,0,1.3-1c0-1-0.6-2.1-1.3-2.5l-49.6-28.6c-0.7-0.4-1.3,0-1.3,1
						C180.1,244.5,180.6,245.6,181.4,246z"/>
				</g>
				<g>
					<path class="st4" d="M181.3,254.9l35.4,20.4c0.7,0.4,1.3,0,1.3-1s-0.6-2.1-1.3-2.5l-35.4-20.4c-0.7-0.4-1.3,0-1.3,1
						S180.6,254.5,181.3,254.9z"/>
				</g>
			</g>
			<g>
				<g>
					<path class="st3" d="M198.3,228l68.7,39.6c6.7,3.9,12.1-0.3,12.1-9.2v0c0-8.9-5.5-19.3-12.1-23.2l-68.7-39.6
						c-6.7-3.9-12.1,0.3-12.1,9.2v0C186.2,213.7,191.7,224.1,198.3,228z"/>
					<path class="st3" d="M276.5,287c0,0-7.8-5.7-7.8-18.4c0-12.7-8.6-17.7-8.6-17.7l0.6,13.1C260.7,264,262.4,278.8,276.5,287z"/>
				</g>
				<g>
					<path class="st4" d="M266.4,248.3l-69-39.8c-0.7-0.4-1.3-1.5-1.3-2.5c0-1,0.6-1.4,1.3-1l69,39.8c0.7,0.4,1.3,1.5,1.3,2.5
						C267.7,248.3,267.2,248.8,266.4,248.3z"/>
				</g>
				<g>
					<path class="st4" d="M235,239.1l-37.5-21.7c-0.7-0.4-1.3-1.5-1.3-2.5s0.6-1.4,1.3-1l37.5,21.7c0.7,0.4,1.3,1.5,1.3,2.5
						S235.7,239.5,235,239.1z"/>
				</g>
			</g>
			
				<ellipse transform="matrix(0.9329 -0.3601 0.3601 0.9329 -115.0006 126.6137)" class="st3" cx="282.4" cy="372" rx="5.2" ry="8.6"/>
			<g>
				<g>
					<path class="st4" d="M176.9,311l79.5,45.3c0.5,0.3,0.8,0,0.8-0.6c0-0.6-0.4-1.3-0.8-1.6l-79.5-45.3c-0.5-0.3-0.8,0-0.8,0.6
						C176.1,310,176.5,310.7,176.9,311z"/>
				</g>
				<g>
					<path class="st4" d="M176.9,316.5l70.6,40.2c0.5,0.3,0.8,0,0.8-0.6s-0.4-1.3-0.8-1.6l-70.6-40.2c-0.5-0.3-0.8,0-0.8,0.6
						S176.4,316.3,176.9,316.5z"/>
				</g>
			</g>
		</g>
		<line class="st6" x1="224.5" y1="48.4" x2="303.7" y2="5.3"/>
		<line class="st6" x1="408.8" y1="330.5" x2="491.8" y2="283.4"/>
		<line class="st6" x1="408.4" y1="154.9" x2="490" y2="113.5"/>
	</g>
</g>
</svg>
