<?xml version="1.0" encoding="utf-8"?>
<!-- Generator: Adobe Illustrator 22.0.0, SVG Export Plug-In . SVG Version: 6.00 Build 0)  -->
<svg version="1.1" id="Слой_1" xmlns="http://www.w3.org/2000/svg" xmlns:xlink="http://www.w3.org/1999/xlink" x="0px" y="0px"
	 viewBox="0 0 800 500" style="enable-background:new 0 0 800 500;" xml:space="preserve">
<style type="text/css">
	.st0{fill:#6D6E70;}
	.st1{font-family:'MyriadPro-Regular';}
	.st2{font-size:8px;}
	.st3{font-family:'MyriadPro-Bold';}
	.st4{font-size:7.4212px;}
	.st5{fill:none;stroke:#00ADEE;stroke-width:2;stroke-linecap:round;stroke-miterlimit:10;}
	.st6{fill:#FFFFFF;}
	.st7{fill:#00ADEE;}
	.st8{fill:none;stroke:#44B988;stroke-width:2;stroke-linecap:round;stroke-miterlimit:10;}
	.st9{fill:#44B988;}
	.st10{fill:none;stroke:#F16522;stroke-width:2;stroke-linecap:round;stroke-miterlimit:10;}
	.st11{fill:#F16522;}
	.st12{fill:none;stroke:#ED332D;stroke-width:2;stroke-linecap:round;stroke-miterlimit:10;}
	.st13{fill:#ED332D;}
	.st14{fill:none;stroke:#58595B;stroke-width:0.5;stroke-linecap:round;stroke-miterlimit:10;}
	.st15{fill:none;stroke:#58595B;stroke-width:0.5;stroke-linecap:round;stroke-miterlimit:10;stroke-dasharray:3.031,1.0103;}
	.st16{fill:none;stroke:#58595B;stroke-width:0.5;stroke-linecap:round;stroke-miterlimit:10;stroke-dasharray:2.9822,0.9941;}
	.st17{fill:none;stroke:#58595B;stroke-width:0.5;stroke-linecap:round;stroke-miterlimit:10;stroke-dasharray:3.0263,1.0088;}
	.st18{fill:none;stroke:#58595B;stroke-width:0.5;stroke-linecap:round;stroke-miterlimit:10;stroke-dasharray:2.9856,0.9952;}
	.st19{fill:none;stroke:#58595B;stroke-width:0.5;stroke-linecap:round;stroke-miterlimit:10;stroke-dasharray:2.993,0.9977;}
	.st20{fill:none;stroke:#58595B;stroke-width:0.5;stroke-linecap:round;stroke-miterlimit:10;stroke-dasharray:2.9982,0.9994;}
	.st21{fill:none;stroke:#58595B;stroke-width:0.5;stroke-linecap:round;stroke-miterlimit:10;stroke-dasharray:3.0454,1.0151;}
	.st22{font-size:9.8949px;}
</style>
<text transform="matrix(1 0 0 1 49.8469 136.9371)"><tspan x="0" y="0" class="st0 st1 st2">Private presale stage </tspan><tspan x="0" y="13.6" class="st0 st1 st2">Creating a CWT-P token  </tspan><tspan x="0" y="23.2" class="st0 st1 st2">and launching its smart  </tspan><tspan x="0" y="32.8" class="st0 st1 st2">contract</tspan></text>
<text transform="matrix(1 0 0 1 141.0687 136.9371)"><tspan x="0" y="0" class="st0 st3 st4">Preparing for the TGE </tspan><tspan x="0" y="12.9" class="st0 st3 st4">Release of a prototype </tspan><tspan x="0" y="25.8" class="st0 st3 st4">Connection to the  </tspan><tspan x="0" y="34.7" class="st0 st3 st4">partner program of  </tspan><tspan x="0" y="43.6" class="st0 st3 st4">blockchain projects </tspan><tspan x="0" y="56.5" class="st0 st3 st4">Conclusion of partnership  </tspan><tspan x="0" y="65.4" class="st0 st3 st4">agreements Development  </tspan><tspan x="0" y="74.3" class="st0 st3 st4">of marketing materials for  </tspan><tspan x="0" y="83.2" class="st0 st3 st4">the project Launching of  </tspan><tspan x="0" y="92.1" class="st0 st3 st4">the site WhiteList invitation</tspan></text>
<text transform="matrix(1 0 0 1 247.7354 136.9369)"><tspan x="0" y="0" class="st0 st3 st4">1st October 2018: launching of the  </tspan><tspan x="0" y="8.9" class="st0 st3 st4">Public Pre-TGE </tspan><tspan x="0" y="21.8" class="st0 st3 st4">Development of the project’s  </tspan><tspan x="0" y="30.7" class="st0 st3 st4">community</tspan><tspan x="0" y="43.6" class="st0 st3 st4">Translation of materials into TOP-3  </tspan><tspan x="0" y="52.5" class="st0 st3 st4">languages</tspan><tspan x="0" y="65.4" class="st0 st3 st4">Release of a pilot batch of devices</tspan><tspan x="0" y="78.3" class="st0 st3 st4">October 2018: Alpha 1.0 CWP Lite  </tspan><tspan x="0" y="87.2" class="st0 st3 st4">device </tspan><tspan x="0" y="100.1" class="st0 st3 st4">December 2018: Creating a CWT  </tspan><tspan x="0" y="109.1" class="st0 st3 st4">token and launching its smart  </tspan><tspan x="0" y="118" class="st0 st3 st4">contract</tspan><tspan x="0" y="130.9" class="st0 st3 st4">Exchange: the CWT-P token to the  </tspan><tspan x="0" y="139.8" class="st0 st3 st4">primary token CWT at 1 CWT-P =  </tspan><tspan x="0" y="148.7" class="st0 st3 st4">1 CWT</tspan><tspan x="0" y="161.6" class="st0 st3 st4">Crowd Sale TGE </tspan><tspan x="0" y="174.5" class="st0 st3 st4">KYC procedure</tspan><tspan x="0" y="187.4" class="st0 st3 st4">Beta Version Web  </tspan><tspan x="0" y="196.3" class="st0 st3 st4">Portal</tspan><tspan x="0" y="209.2" class="st0 st3 st4">December 2018: Product  </tspan><tspan x="0" y="218.1" class="st0 st3 st4">presentation LIVE</tspan><tspan x="0" y="231" class="st0 st3 st4">Opening of the Czech Republic  </tspan><tspan x="0" y="239.9" class="st0 st3 st4">office</tspan></text>
<text transform="matrix(1 0 0 1 375.0405 136.9369)"><tspan x="0" y="0" class="st0 st3 st4">CWT listing on  </tspan><tspan x="0" y="8.9" class="st0 st3 st4">cryptocurrency  </tspan><tspan x="0" y="17.8" class="st0 st3 st4">exchanges</tspan><tspan x="0" y="30.7" class="st0 st3 st4">Opening of the USA &amp;  </tspan><tspan x="0" y="39.6" class="st0 st3 st4">Japan offices</tspan><tspan x="0" y="52.5" class="st0 st3 st4">Launching of the  </tspan><tspan x="0" y="61.4" class="st0 st3 st4">CryptoWorkPlace Web  </tspan><tspan x="0" y="70.3" class="st0 st3 st4">portal and blockchain</tspan><tspan x="0" y="83.2" class="st0 st3 st4">Developing of the  </tspan><tspan x="0" y="92.1" class="st0 st3 st4">CWP Messenger</tspan><tspan x="0" y="105.1" class="st0 st3 st4">Testing of the product  </tspan><tspan x="0" y="114" class="st0 st3 st4">in independent  </tspan><tspan x="0" y="122.9" class="st0 st3 st4">laboratories</tspan><tspan x="0" y="135.8" class="st0 st3 st4">Preparing for series  </tspan><tspan x="0" y="144.7" class="st0 st3 st4">production of devices  </tspan><tspan x="0" y="153.6" class="st0 st3 st4">and launching technical  </tspan><tspan x="0" y="162.5" class="st0 st3 st4">support</tspan><tspan x="0" y="175.4" class="st0 st3 st4">Development of  </tspan><tspan x="0" y="184.3" class="st0 st3 st4">distribution channels</tspan></text>
<text transform="matrix(1 0 0 1 471.5405 136.9369)"><tspan x="0" y="0" class="st0 st3 st4">Serial production of  </tspan><tspan x="0" y="8.9" class="st0 st3 st4">products CWP &amp;  </tspan><tspan x="0" y="17.8" class="st0 st3 st4">CWP DUO </tspan><tspan x="0" y="30.7" class="st0 st3 st4">Partnership procedure:  </tspan><tspan x="0" y="39.6" class="st0 st3 st4">Amazon, AliExpress, Ebay</tspan><tspan x="0" y="52.5" class="st0 st3 st4">Partnership procedure:  </tspan><tspan x="0" y="61.4" class="st0 st3 st4">Corp clients</tspan><tspan x="0" y="74.3" class="st0 st3 st4">Serial production of  </tspan><tspan x="0" y="83.2" class="st0 st3 st4">products CWP PRO &amp; CWP  </tspan><tspan x="0" y="92.1" class="st0 st3 st4">CORP100</tspan></text>
<g>
	<g>
		<path class="st5" d="M750.3,72.9c-21.8,0-28.7,0-96.1,0c-6.8,0-7,3.9-11.8,3.9c-21.2,0-15.1,0-78.4,0c-6.1,0-6.4,4.8-12.8,4.8
			c-24.9,0-17.8,0-92.3,0c-6,0-6.5,3.4-10.3,3.4c-12.9,0-40.3,0-78.9,0c-3.8,0-3.7,7.5-7.9,7.5c-12.9,0-82,0-120.6,0
			c-4,0-4.1,6.5-8.7,6.5c0,0-86.7,0-96.8,0c-4.5,0-4.6,2.4-10.1,2.4c-13.7,0-69.3,0-79.5,0"/>
		<g>
			<g>
				<circle class="st6" cx="750.2" cy="72.9" r="1.5"/>
				<path class="st7" d="M750.2,71.2c-0.9,0-1.7,0.8-1.7,1.7s0.8,1.7,1.7,1.7s1.7-0.8,1.7-1.7S751.1,71.2,750.2,71.2
					S751.1,71.2,750.2,71.2z M750.2,74.3c-0.7,0-1.3-0.6-1.3-1.3s0.6-1.3,1.3-1.3c0.7,0,1.3,0.6,1.3,1.3S750.9,74.3,750.2,74.3
					C749.5,74.3,750.9,74.3,750.2,74.3z"/>
			</g>
		</g>
		<g>
			<g>
				<path class="st6" d="M46.3,100c-0.8,0-1.5,0.7-1.5,1.5s0.7,1.5,1.5,1.5c0.8,0,1.5-0.7,1.5-1.5S47.1,100,46.3,100z"/>
				<path class="st7" d="M46.3,99.8c0.9,0,1.7,0.8,1.7,1.7s-0.8,1.7-1.7,1.7c-0.9,0-1.7-0.8-1.7-1.7S45.3,99.8,46.3,99.8
					C47.2,99.8,45.3,99.8,46.3,99.8z M46.3,102.8c0.7,0,1.3-0.6,1.3-1.3s-0.6-1.3-1.3-1.3c-0.7,0-1.3,0.6-1.3,1.3
					S45.6,102.8,46.3,102.8C47,102.8,45.6,102.8,46.3,102.8z"/>
			</g>
		</g>
	</g>
</g>
<g>
	<g>
		<path class="st8" d="M751.8,80.7c-21.8,0-28.7,0-96.1,0c-6.8,0-6.6,3.9-11.8,3.9c-21.2,0-15.1,0-78.4,0c-6.1,0-6.3,4.8-12.8,4.8
			c-24.9,0-17.8,0-92.3,0c-6,0-6.1,3-10.3,3c-12.9,0-40.3,0-78.9,0c-3.8,0-3.8,7.5-7.9,7.5c-12.9,0-82,0-120.6,0
			c-4.1,0-4.1,7.6-8.7,7.6l-95.2-0.3"/>
		<g>
			<g>
				<circle class="st6" cx="751.7" cy="80.7" r="1.5"/>
				<path class="st9" d="M751.7,79c-0.9,0-1.7,0.8-1.7,1.7s0.8,1.7,1.7,1.7s1.7-0.8,1.7-1.7S752.7,79,751.7,79S752.7,79,751.7,79z
					 M751.7,82c-0.7,0-1.3-0.6-1.3-1.3s0.6-1.3,1.3-1.3c0.7,0,1.3,0.6,1.3,1.3S752.5,82,751.7,82C751,82,752.5,82,751.7,82z"/>
			</g>
		</g>
		<g>
			<g>
				<circle class="st6" cx="139.1" cy="107.2" r="1.5"/>
				<path class="st9" d="M139.1,105.5c0.9,0,1.7,0.8,1.7,1.7s-0.8,1.7-1.7,1.7c-0.9,0-1.7-0.8-1.7-1.7
					C137.4,106.3,138.1,105.5,139.1,105.5C140,105.5,138.1,105.5,139.1,105.5z M139.1,108.5c0.7,0,1.3-0.6,1.3-1.3
					c0-0.7-0.6-1.3-1.3-1.3c-0.7,0-1.3,0.6-1.3,1.3C137.8,107.9,138.3,108.5,139.1,108.5C139.8,108.5,138.3,108.5,139.1,108.5z"/>
			</g>
		</g>
	</g>
</g>
<g>
	<g>
		<path class="st10" d="M751.8,88.7c-21.8,0-28.7,0-96.1,0c-6.8,0-6.6,3.9-11.8,3.9c-21.2,0-15.1,0-78.4,0c-6.1,0-6.3,4.8-12.8,4.8
			c-24.9,0-17.8,0-92.3,0c-6,0-6.1,3-10.3,3c-12.9,0-40.3,0-78.9,0c-3.8,0-3.8,7.5-7.9,7.5c-12.9,0-82,0-120.6,0
			c-4.1,0-4.1,7.6-8.7,7.6l-95.2-0.3"/>
		<g>
			<g>
				<circle class="st6" cx="751.7" cy="88.7" r="1.5"/>
				<path class="st11" d="M751.7,87c-0.9,0-1.7,0.8-1.7,1.7s0.8,1.7,1.7,1.7s1.7-0.8,1.7-1.7S752.7,87,751.7,87S752.7,87,751.7,87z
					 M751.7,90c-0.7,0-1.3-0.6-1.3-1.3s0.6-1.3,1.3-1.3c0.7,0,1.3,0.6,1.3,1.3S752.5,90,751.7,90C751,90,752.5,90,751.7,90z"/>
			</g>
		</g>
		<g>
			<g>
				<circle class="st6" cx="139.1" cy="115.1" r="1.5"/>
				<path class="st11" d="M139.1,113.4c0.9,0,1.7,0.8,1.7,1.7c0,0.9-0.8,1.7-1.7,1.7c-0.9,0-1.7-0.8-1.7-1.7
					C137.4,114.2,138.1,113.4,139.1,113.4C140,113.4,138.1,113.4,139.1,113.4z M139.1,116.4c0.7,0,1.3-0.6,1.3-1.3
					c0-0.7-0.6-1.3-1.3-1.3c-0.7,0-1.3,0.6-1.3,1.3S138.3,116.4,139.1,116.4C139.8,116.4,138.3,116.4,139.1,116.4z"/>
			</g>
		</g>
	</g>
</g>
<g>
	<g>
		<path class="st12" d="M751.8,97.9c-21.8,0-28.7,0-96.1,0c-6.7,0-6.8,3.9-11.8,3.9c-21.2,0-15.1,0-78.4,0c-6.2,0-6.1,4.8-12.8,4.8
			c-24.9,0-17.8,0-92.3,0c-5.8,0-6,2.6-10.3,2.6c-12.7,0-39.5,0-77.3,0"/>
		<g>
			<g>
				<circle class="st6" cx="751.7" cy="97.9" r="1.5"/>
				<path class="st13" d="M751.7,96.2c-0.9,0-1.7,0.8-1.7,1.7s0.8,1.7,1.7,1.7s1.7-0.8,1.7-1.7S752.7,96.2,751.7,96.2
					S752.7,96.2,751.7,96.2z M751.7,99.3c-0.7,0-1.3-0.6-1.3-1.3s0.6-1.3,1.3-1.3c0.7,0,1.3,0.6,1.3,1.3S752.5,99.3,751.7,99.3
					C751,99.3,752.5,99.3,751.7,99.3z"/>
			</g>
		</g>
		<g>
			<g>
				<path class="st6" d="M373,107.7c-0.8,0-1.5,0.7-1.5,1.5s0.7,1.5,1.5,1.5c0.8,0,1.5-0.7,1.5-1.5S373.9,107.7,373,107.7z"/>
				<path class="st13" d="M373,107.5c0.9,0,1.7,0.8,1.7,1.7s-0.8,1.7-1.7,1.7c-0.9,0-1.7-0.8-1.7-1.7S372.1,107.5,373,107.5
					C374,107.5,372.1,107.5,373,107.5z M373,110.5c0.7,0,1.3-0.6,1.3-1.3s-0.6-1.3-1.3-1.3c-0.7,0-1.3,0.6-1.3,1.3
					S372.3,110.5,373,110.5C373.8,110.5,372.3,110.5,373,110.5z"/>
			</g>
		</g>
	</g>
</g>
<g>
	<g>
		<line class="st14" x1="46.1" y1="51.5" x2="46.1" y2="53"/>
		<line class="st15" x1="46.1" y1="54" x2="46.1" y2="199"/>
		<line class="st14" x1="46.1" y1="199.5" x2="46.1" y2="201"/>
	</g>
</g>
<g>
	<g>
		<line class="st14" x1="243" y1="51.5" x2="243" y2="53"/>
		<line class="st16" x1="243" y1="54" x2="243" y2="387.5"/>
		<line class="st14" x1="243" y1="388" x2="243" y2="389.5"/>
	</g>
</g>
<g>
	<g>
		<line class="st14" x1="136.5" y1="51.5" x2="136.5" y2="53"/>
		<line class="st17" x1="136.5" y1="54" x2="137.3" y2="263.3"/>
		<line class="st14" x1="137.4" y1="263.8" x2="137.4" y2="265.3"/>
	</g>
</g>
<g>
	<g>
		<line class="st14" x1="371.2" y1="51.5" x2="371.2" y2="53"/>
		<line class="st18" x1="371.2" y1="54" x2="371.2" y2="364"/>
		<line class="st14" x1="371.2" y1="364.5" x2="371.2" y2="366"/>
	</g>
</g>
<g>
	<g>
		<line class="st14" x1="458.2" y1="51.5" x2="458.2" y2="53"/>
		<line class="st19" x1="458.2" y1="54" x2="458.2" y2="265"/>
		<line class="st14" x1="458.2" y1="265.5" x2="458.2" y2="267"/>
	</g>
</g>
<g>
	<g>
		<line class="st14" x1="563.2" y1="51.5" x2="563.2" y2="53"/>
		<line class="st20" x1="563.2" y1="54" x2="563.2" y2="193.4"/>
		<line class="st14" x1="563.2" y1="193.9" x2="563.2" y2="195.4"/>
	</g>
</g>
<g>
	<g>
		<line class="st14" x1="652.7" y1="51.5" x2="652.7" y2="53"/>
		<line class="st15" x1="652.7" y1="54" x2="652.7" y2="199"/>
		<line class="st14" x1="652.7" y1="199.5" x2="652.7" y2="201"/>
	</g>
</g>
<g>
	<g>
		<line class="st14" x1="752" y1="51.5" x2="752" y2="53"/>
		<line class="st21" x1="752" y1="54" x2="752" y2="130.7"/>
		<line class="st14" x1="752" y1="131.2" x2="752" y2="132.7"/>
	</g>
</g>
<text transform="matrix(1 0 0 1 71.9644 39.9322)" class="st6 st1 st22">Q1, 2018</text>
<text transform="matrix(1 0 0 1 162.4985 39.9322)" class="st6 st1 st22">Q2-Q3, 2018</text>
<text transform="matrix(1 0 0 1 287.631 39.9323)" class="st6 st1 st22">Q4, 2018</text>
<text transform="matrix(1 0 0 1 402.9644 39.9322)" class="st6 st1 st22">Q1, 2019</text>
<text transform="matrix(1 0 0 1 490.9985 39.9322)" class="st6 st1 st22">Q2-Q4, 2019</text>
<text transform="matrix(1 0 0 1 568.5405 136.9369)"><tspan x="0" y="0" class="st0 st3 st4">Increase in production  </tspan><tspan x="0" y="8.9" class="st0 st3 st4">CWP LITE, CWP DUO &amp;  </tspan><tspan x="0" y="17.8" class="st0 st3 st4">CWP PRO up to 1,000  </tspan><tspan x="0" y="26.7" class="st0 st3 st4">units per quarter</tspan></text>
<text transform="matrix(1 0 0 1 603.4839 39.9322)" class="st6 st1 st22">2020</text>
<text transform="matrix(1 0 0 1 663.5405 136.9369)"><tspan x="0" y="0" class="st0 st3 st4">Increase in production  </tspan><tspan x="0" y="8.9" class="st0 st3 st4">CWP CORP &amp; CWP  </tspan><tspan x="0" y="17.8" class="st0 st3 st4">CORP100 up to 20  </tspan><tspan x="0" y="26.7" class="st0 st3 st4">units perquarter</tspan></text>
<text transform="matrix(1 0 0 1 698.4839 39.9322)" class="st6 st1 st22">2021</text>
</svg>
