<?xml version="1.0" encoding="utf-8"?>
<!-- Generator: Adobe Illustrator 22.0.0, SVG Export Plug-In . SVG Version: 6.00 Build 0)  -->
<svg version="1.1" id="Слой_1" xmlns="http://www.w3.org/2000/svg" xmlns:xlink="http://www.w3.org/1999/xlink" x="0px" y="0px"
	 viewBox="0 0 800 500" style="enable-background:new 0 0 800 500;" xml:space="preserve">
<style type="text/css">
	.st0{fill:#6D6E70;}
	.st1{font-family:'MyriadPro-Regular';}
	.st2{font-size:8px;}
	.st3{fill:none;stroke:#00ADEE;stroke-width:2;stroke-linecap:round;stroke-miterlimit:10;}
	.st4{fill:#FFFFFF;}
	.st5{fill:#00ADEE;}
	.st6{fill:none;stroke:#44B988;stroke-width:2;stroke-linecap:round;stroke-miterlimit:10;}
	.st7{fill:#44B988;}
	.st8{fill:none;stroke:#F16522;stroke-width:2;stroke-linecap:round;stroke-miterlimit:10;}
	.st9{fill:#F16522;}
	.st10{fill:none;stroke:#ED332D;stroke-width:2;stroke-linecap:round;stroke-miterlimit:10;}
	.st11{fill:#ED332D;}
	.st12{fill:none;stroke:#58595B;stroke-width:0.5;stroke-linecap:round;stroke-miterlimit:10;}
	.st13{fill:none;stroke:#58595B;stroke-width:0.5;stroke-linecap:round;stroke-miterlimit:10;stroke-dasharray:3.031,1.0103;}
	.st14{fill:none;stroke:#58595B;stroke-width:0.5;stroke-linecap:round;stroke-miterlimit:10;stroke-dasharray:2.9822,0.9941;}
	.st15{fill:none;stroke:#58595B;stroke-width:0.5;stroke-linecap:round;stroke-miterlimit:10;stroke-dasharray:3.0263,1.0088;}
	.st16{fill:none;stroke:#58595B;stroke-width:0.5;stroke-linecap:round;stroke-miterlimit:10;stroke-dasharray:2.9856,0.9952;}
	.st17{fill:none;stroke:#58595B;stroke-width:0.5;stroke-linecap:round;stroke-miterlimit:10;stroke-dasharray:2.993,0.9977;}
	.st18{fill:none;stroke:#58595B;stroke-width:0.5;stroke-linecap:round;stroke-miterlimit:10;stroke-dasharray:2.9982,0.9994;}
	.st19{fill:none;stroke:#58595B;stroke-width:0.5;stroke-linecap:round;stroke-miterlimit:10;stroke-dasharray:3.0454,1.0151;}
	.st20{font-size:9.8949px;}
</style>
<text transform="matrix(1 0 0 1 55.8469 149.9371)"><tspan x="0" y="0" class="st0 st1 st2">Private presale stage </tspan><tspan x="0" y="13.6" class="st0 st1 st2">Creating a CWT-P token  </tspan><tspan x="0" y="23.2" class="st0 st1 st2">and launching its smart  </tspan><tspan x="0" y="32.8" class="st0 st1 st2">contract</tspan></text>
<text transform="matrix(1 0 0 1 147.0687 149.9371)"><tspan x="0" y="0" class="st0 st1 st2">Preparing for the TGE </tspan><tspan x="0" y="13.6" class="st0 st1 st2">Release of a prototype </tspan><tspan x="0" y="27.2" class="st0 st1 st2">Connection to the  </tspan><tspan x="0" y="36.8" class="st0 st1 st2">partner program of  </tspan><tspan x="0" y="46.4" class="st0 st1 st2">blockchain projects </tspan><tspan x="0" y="60" class="st0 st1 st2">Conclusion of partnership  </tspan><tspan x="0" y="69.6" class="st0 st1 st2">agreements Development  </tspan><tspan x="0" y="79.2" class="st0 st1 st2">of marketing materials for  </tspan><tspan x="0" y="88.8" class="st0 st1 st2">the project Launching of  </tspan><tspan x="0" y="98.4" class="st0 st1 st2">the site WhiteList invitation</tspan></text>
<text transform="matrix(1 0 0 1 253.7354 149.9369)"><tspan x="0" y="0" class="st0 st1 st2">Creating a CWT token and  </tspan><tspan x="0" y="9.6" class="st0 st1 st2">launching its smart contract</tspan><tspan x="0" y="23.2" class="st0 st1 st2">1st October 2018: launching of the  </tspan><tspan x="0" y="32.8" class="st0 st1 st2">Public Pre-TGE </tspan><tspan x="0" y="46.4" class="st0 st1 st2">Development of the project’s  </tspan><tspan x="0" y="56" class="st0 st1 st2">community</tspan><tspan x="0" y="69.6" class="st0 st1 st2">Translation of materials into TOP-3  </tspan><tspan x="0" y="79.2" class="st0 st1 st2">languages</tspan><tspan x="0" y="92.8" class="st0 st1 st2">Exchange: the CWT-P token to the  </tspan><tspan x="0" y="102.4" class="st0 st1 st2">primary token CWT at 1 CWT-P =  </tspan><tspan x="0" y="112" class="st0 st1 st2">1 CWT</tspan><tspan x="0" y="125.6" class="st0 st1 st2">Release of a pilot batch of devices</tspan><tspan x="0" y="139.2" class="st0 st1 st2">October 2018: Alpha 1.0 CWP Lite  </tspan><tspan x="0" y="148.8" class="st0 st1 st2">device </tspan><tspan x="0" y="162.4" class="st0 st1 st2">December 2018: Crowd Sale TGE </tspan><tspan x="0" y="176" class="st0 st1 st2">December 2018: KYC procedure</tspan><tspan x="0" y="189.6" class="st0 st1 st2">December 2018: Beta Version Web  </tspan><tspan x="0" y="199.2" class="st0 st1 st2">Portal</tspan><tspan x="0" y="212.8" class="st0 st1 st2">December 2018: Product  </tspan><tspan x="0" y="222.4" class="st0 st1 st2">presentation LIVE</tspan><tspan x="0" y="236" class="st0 st1 st2">Opening of the Czech Republic  </tspan><tspan x="0" y="245.6" class="st0 st1 st2">office</tspan></text>
<text transform="matrix(1 0 0 1 381.0405 149.9369)"><tspan x="0" y="0" class="st0 st1 st2">CWT listing on  </tspan><tspan x="0" y="9.6" class="st0 st1 st2">cryptocurrency  </tspan><tspan x="0" y="19.2" class="st0 st1 st2">exchanges</tspan><tspan x="0" y="32.8" class="st0 st1 st2">Opening of the USA &amp;  </tspan><tspan x="0" y="42.4" class="st0 st1 st2">Japan offices</tspan><tspan x="0" y="56" class="st0 st1 st2">Launching of the  </tspan><tspan x="0" y="65.6" class="st0 st1 st2">CryptoWorkPlace Web  </tspan><tspan x="0" y="75.2" class="st0 st1 st2">portal and blockchain</tspan><tspan x="0" y="88.8" class="st0 st1 st2">Developing of the  </tspan><tspan x="0" y="98.4" class="st0 st1 st2">CWP Messenger</tspan><tspan x="0" y="112" class="st0 st1 st2">Testing of the product  </tspan><tspan x="0" y="121.6" class="st0 st1 st2">in independent  </tspan><tspan x="0" y="131.2" class="st0 st1 st2">laboratories</tspan><tspan x="0" y="144.8" class="st0 st1 st2">Preparing for series  </tspan><tspan x="0" y="154.4" class="st0 st1 st2">production of devices  </tspan><tspan x="0" y="164" class="st0 st1 st2">and launching technical  </tspan><tspan x="0" y="173.6" class="st0 st1 st2">support</tspan><tspan x="0" y="187.2" class="st0 st1 st2">Development of  </tspan><tspan x="0" y="196.8" class="st0 st1 st2">distribution channels</tspan></text>
<text transform="matrix(1 0 0 1 477.5405 149.9369)"><tspan x="0" y="0" class="st0 st1 st2">Serial production of  </tspan><tspan x="0" y="9.6" class="st0 st1 st2">products CWP &amp;  </tspan><tspan x="0" y="19.2" class="st0 st1 st2">CWP DUO </tspan><tspan x="0" y="32.8" class="st0 st1 st2">Partnership procedure:  </tspan><tspan x="0" y="42.4" class="st0 st1 st2">Amazon, AliExpress, Ebay</tspan><tspan x="0" y="56" class="st0 st1 st2">Partnership procedure:  </tspan><tspan x="0" y="65.6" class="st0 st1 st2">Corp clients</tspan><tspan x="0" y="79.2" class="st0 st1 st2">Serial production of  </tspan><tspan x="0" y="88.8" class="st0 st1 st2">products CWP PRO &amp; CWP  </tspan><tspan x="0" y="98.4" class="st0 st1 st2">vCORP100</tspan></text>
<g>
	<g>
		<path class="st3" d="M756.3,85.9c-21.8,0-28.7,0-96.1,0c-6.8,0-7,3.9-11.8,3.9c-21.2,0-15.1,0-78.4,0c-6.1,0-6.4,4.8-12.8,4.8
			c-24.9,0-17.8,0-92.3,0c-6,0-6.5,3.4-10.3,3.4c-12.9,0-40.3,0-78.9,0c-3.8,0-3.7,7.5-7.9,7.5c-12.9,0-82,0-120.6,0
			c-4,0-4.1,6.5-8.7,6.5c0,0-86.7,0-96.8,0c-4.5,0-4.6,2.4-10.1,2.4c-13.7,0-69.3,0-79.5,0"/>
		<g>
			<g>
				<circle class="st4" cx="756.2" cy="85.9" r="1.5"/>
				<path class="st5" d="M756.2,84.2c-0.9,0-1.7,0.8-1.7,1.7s0.8,1.7,1.7,1.7s1.7-0.8,1.7-1.7S757.1,84.2,756.2,84.2
					S757.1,84.2,756.2,84.2z M756.2,87.3c-0.7,0-1.3-0.6-1.3-1.3s0.6-1.3,1.3-1.3c0.7,0,1.3,0.6,1.3,1.3S756.9,87.3,756.2,87.3
					C755.5,87.3,756.9,87.3,756.2,87.3z"/>
			</g>
		</g>
		<g>
			<g>
				<path class="st4" d="M52.3,113c-0.8,0-1.5,0.7-1.5,1.5s0.7,1.5,1.5,1.5c0.8,0,1.5-0.7,1.5-1.5S53.1,113,52.3,113z"/>
				<path class="st5" d="M52.3,112.8c0.9,0,1.7,0.8,1.7,1.7s-0.8,1.7-1.7,1.7c-0.9,0-1.7-0.8-1.7-1.7S51.3,112.8,52.3,112.8
					C53.2,112.8,51.3,112.8,52.3,112.8z M52.3,115.8c0.7,0,1.3-0.6,1.3-1.3s-0.6-1.3-1.3-1.3c-0.7,0-1.3,0.6-1.3,1.3
					S51.6,115.8,52.3,115.8C53,115.8,51.6,115.8,52.3,115.8z"/>
			</g>
		</g>
	</g>
</g>
<g>
	<g>
		<path class="st6" d="M757.8,93.7c-21.8,0-28.7,0-96.1,0c-6.8,0-6.6,3.9-11.8,3.9c-21.2,0-15.1,0-78.4,0c-6.1,0-6.3,4.8-12.8,4.8
			c-24.9,0-17.8,0-92.3,0c-6,0-6.1,3-10.3,3c-12.9,0-40.3,0-78.9,0c-3.8,0-3.8,7.5-7.9,7.5c-12.9,0-82,0-120.6,0
			c-4.1,0-4.1,7.6-8.7,7.6l-95.2-0.3"/>
		<g>
			<g>
				<circle class="st4" cx="757.7" cy="93.7" r="1.5"/>
				<path class="st7" d="M757.7,92c-0.9,0-1.7,0.8-1.7,1.7s0.8,1.7,1.7,1.7s1.7-0.8,1.7-1.7S758.7,92,757.7,92S758.7,92,757.7,92z
					 M757.7,95c-0.7,0-1.3-0.6-1.3-1.3s0.6-1.3,1.3-1.3c0.7,0,1.3,0.6,1.3,1.3S758.5,95,757.7,95C757,95,758.5,95,757.7,95z"/>
			</g>
		</g>
		<g>
			<g>
				<circle class="st4" cx="145.1" cy="120.2" r="1.5"/>
				<path class="st7" d="M145.1,118.5c0.9,0,1.7,0.8,1.7,1.7s-0.8,1.7-1.7,1.7c-0.9,0-1.7-0.8-1.7-1.7
					C143.4,119.3,144.1,118.5,145.1,118.5C146,118.5,144.1,118.5,145.1,118.5z M145.1,121.5c0.7,0,1.3-0.6,1.3-1.3
					c0-0.7-0.6-1.3-1.3-1.3c-0.7,0-1.3,0.6-1.3,1.3C143.8,120.9,144.3,121.5,145.1,121.5C145.8,121.5,144.3,121.5,145.1,121.5z"/>
			</g>
		</g>
	</g>
</g>
<g>
	<g>
		<path class="st8" d="M757.8,101.7c-21.8,0-28.7,0-96.1,0c-6.8,0-6.6,3.9-11.8,3.9c-21.2,0-15.1,0-78.4,0c-6.1,0-6.3,4.8-12.8,4.8
			c-24.9,0-17.8,0-92.3,0c-6,0-6.1,3-10.3,3c-12.9,0-40.3,0-78.9,0c-3.8,0-3.8,7.5-7.9,7.5c-12.9,0-82,0-120.6,0
			c-4.1,0-4.1,7.6-8.7,7.6l-95.2-0.3"/>
		<g>
			<g>
				<circle class="st4" cx="757.7" cy="101.7" r="1.5"/>
				<path class="st9" d="M757.7,100c-0.9,0-1.7,0.8-1.7,1.7s0.8,1.7,1.7,1.7s1.7-0.8,1.7-1.7S758.7,100,757.7,100
					S758.7,100,757.7,100z M757.7,103c-0.7,0-1.3-0.6-1.3-1.3s0.6-1.3,1.3-1.3c0.7,0,1.3,0.6,1.3,1.3S758.5,103,757.7,103
					C757,103,758.5,103,757.7,103z"/>
			</g>
		</g>
		<g>
			<g>
				<circle class="st4" cx="145.1" cy="128.1" r="1.5"/>
				<path class="st9" d="M145.1,126.4c0.9,0,1.7,0.8,1.7,1.7c0,0.9-0.8,1.7-1.7,1.7c-0.9,0-1.7-0.8-1.7-1.7
					C143.4,127.2,144.1,126.4,145.1,126.4C146,126.4,144.1,126.4,145.1,126.4z M145.1,129.4c0.7,0,1.3-0.6,1.3-1.3
					c0-0.7-0.6-1.3-1.3-1.3c-0.7,0-1.3,0.6-1.3,1.3C143.8,128.9,144.3,129.4,145.1,129.4C145.8,129.4,144.3,129.4,145.1,129.4z"/>
			</g>
		</g>
	</g>
</g>
<g>
	<g>
		<path class="st10" d="M757.8,110.9c-21.8,0-28.7,0-96.1,0c-6.7,0-6.8,3.9-11.8,3.9c-21.2,0-15.1,0-78.4,0c-6.2,0-6.1,4.8-12.8,4.8
			c-24.9,0-17.8,0-92.3,0c-5.8,0-6,2.6-10.3,2.6c-12.7,0-39.5,0-77.3,0"/>
		<g>
			<g>
				<circle class="st4" cx="757.7" cy="110.9" r="1.5"/>
				<path class="st11" d="M757.7,109.2c-0.9,0-1.7,0.8-1.7,1.7s0.8,1.7,1.7,1.7s1.7-0.8,1.7-1.7S758.7,109.2,757.7,109.2
					S758.7,109.2,757.7,109.2z M757.7,112.3c-0.7,0-1.3-0.6-1.3-1.3s0.6-1.3,1.3-1.3c0.7,0,1.3,0.6,1.3,1.3S758.5,112.3,757.7,112.3
					C757,112.3,758.5,112.3,757.7,112.3z"/>
			</g>
		</g>
		<g>
			<g>
				<path class="st4" d="M379,120.7c-0.8,0-1.5,0.7-1.5,1.5s0.7,1.5,1.5,1.5c0.8,0,1.5-0.7,1.5-1.5S379.9,120.7,379,120.7z"/>
				<path class="st11" d="M379,120.5c0.9,0,1.7,0.8,1.7,1.7s-0.8,1.7-1.7,1.7c-0.9,0-1.7-0.8-1.7-1.7S378.1,120.5,379,120.5
					C380,120.5,378.1,120.5,379,120.5z M379,123.5c0.7,0,1.3-0.6,1.3-1.3s-0.6-1.3-1.3-1.3c-0.7,0-1.3,0.6-1.3,1.3
					S378.3,123.5,379,123.5C379.8,123.5,378.3,123.5,379,123.5z"/>
			</g>
		</g>
	</g>
</g>
<g>
	<g>
		<line class="st12" x1="52.1" y1="64.5" x2="52.1" y2="66"/>
		<line class="st13" x1="52.1" y1="67" x2="52.1" y2="212"/>
		<line class="st12" x1="52.1" y1="212.5" x2="52.1" y2="214"/>
	</g>
</g>
<g>
	<g>
		<line class="st12" x1="249" y1="64.5" x2="249" y2="66"/>
		<line class="st14" x1="249" y1="67" x2="249" y2="400.5"/>
		<line class="st12" x1="249" y1="401" x2="249" y2="402.5"/>
	</g>
</g>
<g>
	<g>
		<line class="st12" x1="142.5" y1="64.5" x2="142.5" y2="66"/>
		<line class="st15" x1="142.5" y1="67" x2="143.3" y2="276.3"/>
		<line class="st12" x1="143.4" y1="276.8" x2="143.4" y2="278.3"/>
	</g>
</g>
<g>
	<g>
		<line class="st12" x1="377.2" y1="64.5" x2="377.2" y2="66"/>
		<line class="st16" x1="377.2" y1="67" x2="377.2" y2="377"/>
		<line class="st12" x1="377.2" y1="377.5" x2="377.2" y2="379"/>
	</g>
</g>
<g>
	<g>
		<line class="st12" x1="464.2" y1="64.5" x2="464.2" y2="66"/>
		<line class="st17" x1="464.2" y1="67" x2="464.2" y2="278"/>
		<line class="st12" x1="464.2" y1="278.5" x2="464.2" y2="280"/>
	</g>
</g>
<g>
	<g>
		<line class="st12" x1="569.2" y1="64.5" x2="569.2" y2="66"/>
		<line class="st18" x1="569.2" y1="67" x2="569.2" y2="206.4"/>
		<line class="st12" x1="569.2" y1="206.9" x2="569.2" y2="208.4"/>
	</g>
</g>
<g>
	<g>
		<line class="st12" x1="658.7" y1="64.5" x2="658.7" y2="66"/>
		<line class="st13" x1="658.7" y1="67" x2="658.7" y2="212"/>
		<line class="st12" x1="658.7" y1="212.5" x2="658.7" y2="214"/>
	</g>
</g>
<g>
	<g>
		<line class="st12" x1="758" y1="64.5" x2="758" y2="66"/>
		<line class="st19" x1="758" y1="67" x2="758" y2="143.7"/>
		<line class="st12" x1="758" y1="144.2" x2="758" y2="145.7"/>
	</g>
</g>
<text transform="matrix(1 0 0 1 77.9644 52.9322)" class="st4 st1 st20">Q1, 2018</text>
<text transform="matrix(1 0 0 1 168.4985 52.9322)" class="st4 st1 st20">Q2-Q3, 2018</text>
<text transform="matrix(1 0 0 1 293.631 52.9323)" class="st4 st1 st20">Q4, 2018</text>
<text transform="matrix(1 0 0 1 408.9644 52.9322)" class="st4 st1 st20">Q1, 2019</text>
<text transform="matrix(1 0 0 1 496.9985 52.9322)" class="st4 st1 st20">Q2-Q4, 2019</text>
<text transform="matrix(1 0 0 1 574.5405 149.9369)"><tspan x="0" y="0" class="st0 st1 st2">Increase in production  </tspan><tspan x="0" y="9.6" class="st0 st1 st2">CWP LITE, CWP DUO &amp;  </tspan><tspan x="0" y="19.2" class="st0 st1 st2">CWP PRO up to 1,000  </tspan><tspan x="0" y="28.8" class="st0 st1 st2">units per quarter</tspan></text>
<text transform="matrix(1 0 0 1 609.4839 52.9322)" class="st4 st1 st20">2020</text>
<text transform="matrix(1 0 0 1 669.5405 149.9369)"><tspan x="0" y="0" class="st0 st1 st2">Increase in production  </tspan><tspan x="0" y="9.6" class="st0 st1 st2">CWP CORP &amp; CWP  </tspan><tspan x="0" y="19.2" class="st0 st1 st2">CORP100 up to 20  </tspan><tspan x="0" y="28.8" class="st0 st1 st2">units perquarter</tspan></text>
<text transform="matrix(1 0 0 1 704.4839 52.9322)" class="st4 st1 st20">2021</text>
</svg>
