<?xml version="1.0" encoding="utf-8"?>
<!-- Generator: Adobe Illustrator 22.0.0, SVG Export Plug-In . SVG Version: 6.00 Build 0)  -->
<svg version="1.1" id="Слой_1" xmlns="http://www.w3.org/2000/svg" xmlns:xlink="http://www.w3.org/1999/xlink" x="0px" y="0px"
	 viewBox="0 0 800 4820" style="enable-background:new 0 0 800 4820;" xml:space="preserve">
<style type="text/css">
	.st0{fill:#B3B3B3;}
	.st1{font-family:'MyriadPro-Regular';}
	.st2{font-size:31.0137px;}
	.st3{fill:#FFFFFF;}
	.st4{fill:#231F20;}
	.st5{clip-path:url(#SVGID_2_);fill:url(#SVGID_3_);}
	.st6{clip-path:url(#SVGID_5_);fill:#00C8FF;}
	.st7{clip-path:url(#SVGID_5_);fill:none;stroke:#FFFFFF;stroke-width:2;}
	.st8{clip-path:url(#SVGID_5_);fill:#2067F5;}
	.st9{clip-path:url(#SVGID_5_);fill:#2050F5;}
	.st10{clip-path:url(#SVGID_5_);fill:#120FFF;}
	.st11{fill:#666666;}
	.st12{font-size:32.096px;}
	.st13{clip-path:url(#SVGID_7_);fill:#120FFF;}
	.st14{clip-path:url(#SVGID_7_);fill:none;stroke:#FFFFFF;stroke-width:2;}
	.st15{font-size:36.1827px;}
	.st16{font-size:46.5206px;}
	.st17{letter-spacing:-1;}
	.st18{fill:#00C8FF;}
	.st19{fill:none;stroke:#FFFFFF;stroke-width:2;}
	.st20{font-size:25.8448px;}
	.st21{clip-path:url(#SVGID_9_);fill:#00C8FF;}
	.st22{clip-path:url(#SVGID_9_);fill:none;stroke:#FFFFFF;stroke-width:2;}
	.st23{clip-path:url(#SVGID_11_);fill:#00C8FF;}
	.st24{clip-path:url(#SVGID_11_);fill:none;stroke:#FFFFFF;stroke-width:2;}
	.st25{clip-path:url(#SVGID_13_);fill:#00C8FF;}
	.st26{clip-path:url(#SVGID_13_);fill:none;stroke:#FFFFFF;stroke-width:2;}
	.st27{clip-path:url(#SVGID_15_);fill:#00C8FF;}
	.st28{clip-path:url(#SVGID_15_);fill:none;stroke:#FFFFFF;stroke-width:2;}
	.st29{clip-path:url(#SVGID_17_);fill:#00C8FF;}
	.st30{clip-path:url(#SVGID_17_);fill:none;stroke:#FFFFFF;stroke-width:2;}
	.st31{clip-path:url(#SVGID_19_);fill:#120FFF;}
	.st32{clip-path:url(#SVGID_19_);fill:none;stroke:#FFFFFF;stroke-width:2;}
</style>
<text transform="matrix(1 0 0 1 205.8896 132.4248)"><tspan x="0" y="0" class="st0 st1 st2">The idea of the microcomputer security  </tspan><tspan x="0" y="37.2" class="st0 st1 st2">platform</tspan></text>
<text transform="matrix(1 0 0 1 205.8896 92.9766)" class="st3 st1 st2">2008</text>
<text transform="matrix(1 0 0 1 206.7178 323.7085)" class="st0 st1 st2">US patent application</text>
<text transform="matrix(1 0 0 1 206.7178 284.2271)" class="st3 st1 st2">2009</text>
<text transform="matrix(1 0 0 1 204.6504 471.0239)"><tspan x="0" y="0" class="st0 st1 st2">Contract manufacturing or  </tspan><tspan x="0" y="37.2" class="st0 st1 st2">microcomputers</tspan></text>
<text transform="matrix(-4.489659e-11 1 -1 -4.489659e-11 79.5669 921.4561)" class="st4 st1 st2"> </text>
<text transform="matrix(1 0 0 1 207.2231 431.5737)" class="st3 st1 st2">2010—2016</text>
<text transform="matrix(1 0 0 1 207.2329 644.2153)" class="st0 st1 st2">CryptoWorkPlace Concept</text>
<text transform="matrix(1 0 0 1 207.2329 604.7339)" class="st3 st1 st2">2017</text>
<g>
	<defs>
		<rect id="SVGID_1_" x="121.4" y="84.1" width="19.1" height="4561.6"/>
	</defs>
	<clipPath id="SVGID_2_">
		<use xlink:href="#SVGID_1_"  style="overflow:visible;"/>
	</clipPath>
	
		<linearGradient id="SVGID_3_" gradientUnits="userSpaceOnUse" x1="-0.8828" y1="2661.2312" x2="6.7316" y2="2661.2312" gradientTransform="matrix(-2.131982e-14 -348.1791 -348.1791 2.131982e-14 926716.0625 2839.1018)">
		<stop  offset="0" style="stop-color:#120FFF"/>
		<stop  offset="0.8726" style="stop-color:#00C8FF"/>
		<stop  offset="1" style="stop-color:#00C8FF"/>
	</linearGradient>
	<rect x="121.4" y="84.1" class="st5" width="19.1" height="4561.6"/>
</g>
<g>
	<defs>
		<rect id="SVGID_4_" x="-57.3" y="-121" width="273" height="1548.3"/>
	</defs>
	<clipPath id="SVGID_5_">
		<use xlink:href="#SVGID_4_"  style="overflow:visible;"/>
	</clipPath>
	<path class="st6" d="M120.6,83.4c0,5.6,4.5,10.1,10.1,10.1c5.6,0,10.1-4.5,10.1-10.1c0-5.6-4.5-10.1-10.1-10.1
		C125.1,73.3,120.6,77.8,120.6,83.4"/>
	<circle class="st7" cx="130.7" cy="83.4" r="10.1"/>
	<path class="st8" d="M120.6,276.7c0,5.6,4.5,10.1,10.1,10.1c5.6,0,10.1-4.5,10.1-10.1c0-5.6-4.5-10.1-10.1-10.1
		C125.1,266.7,120.6,271.2,120.6,276.7"/>
	
		<ellipse transform="matrix(0.3827 -0.9239 0.9239 0.3827 -175.0138 291.5433)" class="st7" cx="130.7" cy="276.7" rx="10.1" ry="10.1"/>
	<path class="st9" d="M120.6,423.6c0,5.6,4.5,10.1,10.1,10.1c5.6,0,10.1-4.5,10.1-10.1c0-5.6-4.5-10.1-10.1-10.1
		C125.1,413.5,120.6,418,120.6,423.6"/>
	
		<ellipse transform="matrix(0.9239 -0.3827 0.3827 0.9239 -152.1456 82.2417)" class="st7" cx="130.7" cy="423.6" rx="10.1" ry="10.1"/>
	<path class="st10" d="M120.6,595.1c0,5.6,4.5,10.1,10.1,10.1c5.6,0,10.1-4.5,10.1-10.1c0-5.6-4.5-10.1-10.1-10.1
		C125.1,585.1,120.6,589.6,120.6,595.1"/>
	
		<ellipse transform="matrix(0.9239 -0.3827 0.3827 0.9239 -217.8054 95.3022)" class="st7" cx="130.7" cy="595.1" rx="10.1" ry="10.1"/>
</g>
<text transform="matrix(-4.489659e-11 1 -1 -4.489659e-11 159.5244 72.478)"><tspan x="0" y="0" class="st11 st1 st12">Notable miles</tspan><tspan x="184.2" y="0" class="st11 st1 st12">t</tspan><tspan x="194.6" y="0" class="st11 st1 st12">ones</tspan></text>
<g>
	<defs>
		<rect id="SVGID_6_" x="46.8" y="680.1" width="309.5" height="109.6"/>
	</defs>
	<clipPath id="SVGID_7_">
		<use xlink:href="#SVGID_6_"  style="overflow:visible;"/>
	</clipPath>
	<path class="st13" d="M132.7,787.1c28.8,0,52.2-23.4,52.2-52.2c0-28.8-23.4-52.2-52.2-52.2S80.4,706,80.4,734.9
		C80.4,763.7,103.8,787.1,132.7,787.1"/>
	<circle class="st14" cx="132.7" cy="734.9" r="52.2"/>
</g>
<text transform="matrix(1 0 0 1 110.0156 745.459)" class="st3 st1 st15">Q1</text>
<text transform="matrix(1 0 0 1 205.9043 747.0195)" class="st3 st1 st16">2018</text>
<text transform="matrix(1 0 0 1 205.9043 2501.8779)" class="st3 st1 st16">2019</text>
<text transform="matrix(1 0 0 1 204.4849 840.293)"><tspan x="0" y="0" class="st0 st1 st2">P</tspan><tspan x="16" y="0" class="st0 st1 st2">r</tspan><tspan x="26.3" y="0" class="st0 st1 st2">i</tspan><tspan x="33.6" y="0" class="st0 st1 st2">va</tspan><tspan x="63.2" y="0" class="st0 st1 st2">t</tspan><tspan x="73.3" y="0" class="st0 st1 st2">e p</tspan><tspan x="113.1" y="0" class="st0 st1 st2">r</tspan><tspan x="122.9" y="0" class="st0 st1 st2">esale stage</tspan><tspan x="0" y="47.6" class="st0 st1 st2">C</tspan><tspan x="17.9" y="47.6" class="st0 st1 st2">r</tspan><tspan x="27.8" y="47.6" class="st0 st1 st2">e</tspan><tspan x="43.3" y="47.6" class="st0 st1 st2">a</tspan><tspan x="58.2" y="47.6" class="st0 st1 st2">ting a </tspan><tspan x="138.3" y="47.6" class="st0 st1 st2">C</tspan><tspan x="156.7" y="47.6" class="st0 st1 st2">W</tspan><tspan x="183.9" y="47.6" class="st0 st1 st2 st17">T</tspan><tspan x="197.8" y="47.6" class="st0 st1 st2">-P </tspan><tspan x="230.4" y="47.6" class="st0 st1 st2">t</tspan><tspan x="240.5" y="47.6" class="st0 st1 st2">oken and launching  </tspan><tspan x="0" y="84.8" class="st0 st1 st2">its sma</tspan><tspan x="89.5" y="84.8" class="st0 st1 st2">r</tspan><tspan x="100.3" y="84.8" class="st0 st1 st2">t </tspan><tspan x="117.2" y="84.8" class="st0 st1 st2">c</tspan><tspan x="130.9" y="84.8" class="st0 st1 st2">o</tspan><tspan x="147.9" y="84.8" class="st0 st1 st2">n</tspan><tspan x="165" y="84.8" class="st0 st1 st2">t</tspan><tspan x="175.3" y="84.8" class="st0 st1 st2">r</tspan><tspan x="185.3" y="84.8" class="st0 st1 st2">a</tspan><tspan x="200.3" y="84.8" class="st0 st1 st2">c</tspan><tspan x="214.5" y="84.8" class="st0 st1 st2">t</tspan></text>
<g>
	<path class="st18" d="M132.7,1070.6c28.8,0,52.2-23.4,52.2-52.2c0-28.8-23.4-52.2-52.2-52.2s-52.2,23.4-52.2,52.2
		C80.4,1047.2,103.8,1070.6,132.7,1070.6"/>
	<circle class="st19" cx="132.7" cy="1018.4" r="52.2"/>
</g>
<text transform="matrix(1 0 0 1 204.7734 1114.7251)"><tspan x="0" y="0" class="st0 st1 st2">P</tspan><tspan x="16" y="0" class="st0 st1 st2">r</tspan><tspan x="25.9" y="0" class="st0 st1 st2">epa</tspan><tspan x="74" y="0" class="st0 st1 st2">r</tspan><tspan x="84.2" y="0" class="st0 st1 st2">ing </tspan><tspan x="132.6" y="0" class="st0 st1 st2">f</tspan><tspan x="141.3" y="0" class="st0 st1 st2">or the</tspan><tspan x="218.1" y="0" class="st0 st1 st2 st17"> </tspan><tspan x="223.4" y="0" class="st0 st1 st2">T</tspan><tspan x="237.9" y="0" class="st0 st1 st2">GE</tspan><tspan x="0" y="47.6" class="st0 st1 st2">Release of a prototype</tspan><tspan x="0" y="95.1" class="st0 st1 st2">Connection to the partner program of  </tspan><tspan x="0" y="132.3" class="st0 st1 st2">blockchain projects</tspan><tspan x="0" y="179.9" class="st0 st1 st2">Conclusion of partnership agreements</tspan><tspan x="0" y="227.4" class="st0 st1 st2">Development of marketing materials for  </tspan><tspan x="0" y="264.7" class="st0 st1 st2">the project</tspan><tspan x="0" y="312.2" class="st0 st1 st2">Launching of the site</tspan><tspan x="0" y="359.8" class="st0 st1 st2">WhiteList invitation</tspan></text>
<text transform="matrix(1 0 0 1 204.7734 1701.4023)"><tspan x="0" y="0" class="st0 st1 st2">Creating a CWT token and launching its  </tspan><tspan x="0" y="37.2" class="st0 st1 st2">smart contract</tspan><tspan x="0" y="84.8" class="st0 st1 st2">1st October 2018: launching of the Public  </tspan><tspan x="0" y="122" class="st0 st1 st2">Pre-TGE </tspan><tspan x="0" y="169.5" class="st0 st1 st2">Development of the project’s community</tspan><tspan x="0" y="217.1" class="st0 st1 st2">Translation of materials into TOP-3  </tspan><tspan x="0" y="254.3" class="st0 st1 st2">languages</tspan><tspan x="0" y="301.9" class="st0 st1 st2">Exchange: the CWT-P token to the primary  </tspan><tspan x="0" y="339.1" class="st0 st1 st2">token CWT at 1 CWT-P = 1 CWT</tspan><tspan x="0" y="386.6" class="st0 st1 st2">Release of a pilot batch of devices</tspan><tspan x="0" y="434.2" class="st0 st1 st2">October 2018: Alpha 1.0 CWP Lite device </tspan><tspan x="0" y="481.7" class="st0 st1 st2">December 2018: Crowd Sale TGE </tspan><tspan x="0" y="529.3" class="st0 st1 st2">December 2018: KYC procedure</tspan><tspan x="0" y="576.9" class="st0 st1 st2">December 2018: Beta Version Web Portal</tspan><tspan x="0" y="624.4" class="st0 st1 st2">December 2018: Product presentation LIVE</tspan><tspan x="0" y="672" class="st0 st1 st2">Opening of the Czech Republic office</tspan></text>
<text transform="matrix(1 0 0 1 96.5479 1026.3931)"><tspan x="0" y="0" class="st3 st1 st20">Q2</tspan><tspan x="31.1" y="0" class="st3 st1 st20">-</tspan><tspan x="39.4" y="0" class="st3 st1 st20">Q3 </tspan></text>
<g>
	<defs>
		<rect id="SVGID_8_" x="46.8" y="1532.9" width="169.9" height="109.6"/>
	</defs>
	<clipPath id="SVGID_9_">
		<use xlink:href="#SVGID_8_"  style="overflow:visible;"/>
	</clipPath>
	<path class="st21" d="M132.7,1640c28.8,0,52.2-23.4,52.2-52.2c0-28.8-23.4-52.2-52.2-52.2s-52.2,23.4-52.2,52.2
		C80.4,1616.6,103.8,1640,132.7,1640"/>
	<circle class="st22" cx="132.7" cy="1587.7" r="52.2"/>
</g>
<text transform="matrix(1 0 0 1 110.0156 1598.3354)" class="st3 st1 st15">Q4</text>
<text transform="matrix(1 0 0 1 204.7734 2603.3838)"><tspan x="0" y="0" class="st0 st1 st2">CWT listing on cryptocurrency exchanges</tspan><tspan x="0" y="47.6" class="st0 st1 st2">Opening of the USA &amp; Japan offices</tspan><tspan x="0" y="95.1" class="st0 st1 st2">Launching of the CryptoWorkPlace Web  </tspan><tspan x="0" y="132.3" class="st0 st1 st2">portal and blockchain</tspan><tspan x="0" y="179.9" class="st0 st1 st2">Developing of the CWP Messenger</tspan><tspan x="0" y="227.4" class="st0 st1 st2">Testing of the product in independent  </tspan><tspan x="0" y="264.7" class="st0 st1 st2">laboratories</tspan><tspan x="0" y="312.2" class="st0 st1 st2">Preparing for series production of devices  </tspan><tspan x="0" y="349.4" class="st0 st1 st2">and launching technical support</tspan><tspan x="0" y="397" class="st0 st1 st2">Development of distribution channels</tspan></text>
<g>
	<defs>
		<rect id="SVGID_10_" x="46.8" y="2434.9" width="169.9" height="109.6"/>
	</defs>
	<clipPath id="SVGID_11_">
		<use xlink:href="#SVGID_10_"  style="overflow:visible;"/>
	</clipPath>
	<path class="st23" d="M132.7,2541.9c28.8,0,52.2-23.4,52.2-52.2c0-28.8-23.4-52.2-52.2-52.2s-52.2,23.4-52.2,52.2
		C80.4,2518.6,103.8,2541.9,132.7,2541.9"/>
	<circle class="st24" cx="132.7" cy="2489.7" r="52.2"/>
</g>
<text transform="matrix(1 0 0 1 110.0156 2500.3174)" class="st3 st1 st15">Q1</text>
<text transform="matrix(1 0 0 1 204.7734 3200.3984)"><tspan x="0" y="0" class="st0 st1 st2">Serial production of products CWP &amp;  </tspan><tspan x="0" y="37.2" class="st0 st1 st2">CWP DUO </tspan><tspan x="0" y="84.8" class="st0 st1 st2">Partnership procedure: Amazon,  </tspan><tspan x="0" y="122" class="st0 st1 st2">AliExpress, Ebay</tspan></text>
<g>
	<defs>
		<rect id="SVGID_12_" x="46.8" y="3031.9" width="169.9" height="109.6"/>
	</defs>
	<clipPath id="SVGID_13_">
		<use xlink:href="#SVGID_12_"  style="overflow:visible;"/>
	</clipPath>
	<path class="st25" d="M132.7,3139c28.8,0,52.2-23.4,52.2-52.2c0-28.8-23.4-52.2-52.2-52.2s-52.2,23.4-52.2,52.2
		C80.4,3115.6,103.8,3139,132.7,3139"/>
	<circle class="st26" cx="132.7" cy="3086.7" r="52.2"/>
</g>
<text transform="matrix(1 0 0 1 110.0156 3097.333)" class="st3 st1 st15">Q2</text>
<text transform="matrix(1 0 0 1 204.7734 3536.3789)"><tspan x="0" y="0" class="st0 st1 st2">Partnership procedure: Corp clients</tspan><tspan x="0" y="47.6" class="st0 st1 st2">Serial production of products CWP PRO &amp;  </tspan><tspan x="0" y="84.8" class="st0 st1 st2">CWP CORP100</tspan></text>
<g>
	<defs>
		<rect id="SVGID_14_" x="46.8" y="3373.1" width="169.9" height="109.6"/>
	</defs>
	<clipPath id="SVGID_15_">
		<use xlink:href="#SVGID_14_"  style="overflow:visible;"/>
	</clipPath>
	<path class="st27" d="M132.7,3480.1c28.8,0,52.2-23.4,52.2-52.2c0-28.8-23.4-52.2-52.2-52.2s-52.2,23.4-52.2,52.2
		C80.4,3456.7,103.8,3480.1,132.7,3480.1"/>
	<circle class="st28" cx="132.7" cy="3427.9" r="52.2"/>
</g>
<text transform="matrix(1 0 0 1 96.5479 3437.1328)"><tspan x="0" y="0" class="st3 st1 st20">Q3</tspan><tspan x="31.1" y="0" class="st3 st1 st20">-</tspan><tspan x="39.4" y="0" class="st3 st1 st20">Q4 </tspan></text>
<g>
	<defs>
		<rect id="SVGID_16_" x="54.6" y="3723.1" width="549.6" height="909.7"/>
	</defs>
	<clipPath id="SVGID_17_">
		<use xlink:href="#SVGID_16_"  style="overflow:visible;"/>
	</clipPath>
	<path class="st29" d="M129.5,3788.5c15.2,0,27.6-12.3,27.6-27.6c0-15.2-12.3-27.6-27.6-27.6s-27.6,12.3-27.6,27.6
		C101.9,3776.2,114.2,3788.5,129.5,3788.5"/>
	<circle class="st30" cx="129.5" cy="3761" r="27.6"/>
	<path class="st29" d="M129.5,4104.3c15.2,0,27.6-12.3,27.6-27.6s-12.3-27.6-27.6-27.6s-27.6,12.3-27.6,27.6
		S114.2,4104.3,129.5,4104.3"/>
	
		<ellipse transform="matrix(0.9951 -9.853768e-02 9.853768e-02 0.9951 -401.0846 32.598)" class="st30" cx="129.5" cy="4076.8" rx="27.6" ry="27.6"/>
	<path class="st29" d="M129.5,4380.4c15.2,0,27.6-12.3,27.6-27.6c0-15.2-12.3-27.6-27.6-27.6s-27.6,12.3-27.6,27.6
		C101.9,4368,114.2,4380.4,129.5,4380.4"/>
	<circle class="st30" cx="129.5" cy="4352.8" r="27.6"/>
</g>
<text transform="matrix(1 0 0 1 178.3271 3832.8535)"><tspan x="0" y="0" class="st0 st1 st2">Increase in production </tspan><tspan x="0" y="37.2" class="st0 st1 st2">CWP LITE</tspan><tspan x="0" y="74.4" class="st0 st1 st2">CWP DUO</tspan><tspan x="0" y="111.6" class="st0 st1 st2">CWP PRO</tspan><tspan x="0" y="148.9" class="st0 st1 st2">up to 1,000 units per quarter</tspan></text>
<text transform="matrix(1 0 0 1 178.3271 4148.665)"><tspan x="0" y="0" class="st0 st1 st2">Increase in production</tspan><tspan x="0" y="37.2" class="st0 st1 st2">CWP CORP</tspan><tspan x="0" y="74.4" class="st0 st1 st2">CWP CORP100</tspan><tspan x="0" y="111.6" class="st0 st1 st2">Up to 20 units per quarter</tspan></text>
<text transform="matrix(1 0 0 1 178.3271 4424.7197)"><tspan x="0" y="0" class="st0 st1 st2">Increase in production</tspan><tspan x="0" y="37.2" class="st0 st1 st2">CWP LITE</tspan><tspan x="0" y="74.4" class="st0 st1 st2">CWP PRO</tspan><tspan x="0" y="111.6" class="st0 st1 st2">CWP DUO</tspan><tspan x="0" y="148.9" class="st0 st1 st2">Up to 10,000 units per quarter</tspan></text>
<text transform="matrix(1 0 0 1 182.0483 3776.0313)" class="st3 st1 st16">2020</text>
<text transform="matrix(1 0 0 1 184.6538 4091.8125)" class="st3 st1 st16">2021</text>
<text transform="matrix(1 0 0 1 184.6538 4367.8672)" class="st3 st1 st16">2022</text>
<g>
	<defs>
		<rect id="SVGID_18_" x="95.3" y="4603.7" width="71.3" height="71.3"/>
	</defs>
	<clipPath id="SVGID_19_">
		<use xlink:href="#SVGID_18_"  style="overflow:visible;"/>
	</clipPath>
	<path class="st31" d="M130.9,4672.4c18.3,0,33.1-14.8,33.1-33.1c0-18.3-14.8-33.1-33.1-33.1s-33.1,14.8-33.1,33.1
		C97.8,4657.6,112.7,4672.4,130.9,4672.4"/>
	<circle class="st32" cx="130.9" cy="4639.3" r="33.1"/>
</g>
<text transform="matrix(1 0 0 1 126.1836 4425.1465)" class="st3 st1 st2">•</text>
<text transform="matrix(1 0 0 1 126.1836 4461.3262)" class="st3 st1 st2">•</text>
<text transform="matrix(1 0 0 1 126.1836 4497.5107)" class="st3 st1 st2">•</text>
<text transform="matrix(1 0 0 1 126.1836 4533.6924)" class="st3 st1 st2">•</text>
<text transform="matrix(1 0 0 1 126.1836 4572.46)" class="st3 st1 st2">•</text>
<text transform="matrix(1 0 0 1 126.1836 3835.8838)" class="st3 st1 st2">•</text>
<text transform="matrix(1 0 0 1 126.1836 3872.0654)" class="st3 st1 st2">•</text>
<text transform="matrix(1 0 0 1 126.1836 3908.25)" class="st3 st1 st2">•</text>
<text transform="matrix(1 0 0 1 126.1836 3944.4307)" class="st3 st1 st2">•</text>
<text transform="matrix(1 0 0 1 126.1836 3983.2002)" class="st3 st1 st2">•</text>
<text transform="matrix(1 0 0 1 126.1836 3536.0859)" class="st3 st1 st2">•</text>
<text transform="matrix(1 0 0 1 126.1836 3585.1885)" class="st3 st1 st2">•</text>
<text transform="matrix(1 0 0 1 126.1836 3200.1025)" class="st3 st1 st2">•</text>
<text transform="matrix(1 0 0 1 126.1836 3001.0986)" class="st3 st1 st2">•</text>
<text transform="matrix(1 0 0 1 126.1836 2915.8105)" class="st3 st1 st2">•</text>
<text transform="matrix(1 0 0 1 126.1836 2833.1074)" class="st3 st1 st2">•</text>
<text transform="matrix(1 0 0 1 126.1836 2784.002)" class="st3 st1 st2">•</text>
<text transform="matrix(1 0 0 1 126.1836 2698.7148)" class="st3 st1 st2">•</text>
<text transform="matrix(1 0 0 1 126.1836 2652.1934)" class="st3 st1 st2">•</text>
<text transform="matrix(1 0 0 1 126.1836 2603.0889)" class="st3 st1 st2">•</text>
<text transform="matrix(1 0 0 1 126.1836 2373.0703)" class="st3 st1 st2">•</text>
<text transform="matrix(1 0 0 1 126.1836 2326.5498)" class="st3 st1 st2">•</text>
<text transform="matrix(1 0 0 1 126.1836 2277.4448)" class="st3 st1 st2">•</text>
<text transform="matrix(1 0 0 1 126.1836 2230.9243)" class="st3 st1 st2">•</text>
<text transform="matrix(1 0 0 1 126.1836 2184.4043)" class="st3 st1 st2">•</text>
<text transform="matrix(1 0 0 1 126.1836 2135.2993)" class="st3 st1 st2">•</text>
<text transform="matrix(1 0 0 1 126.1836 2088.7783)" class="st3 st1 st2">•</text>
<text transform="matrix(1 0 0 1 126.1836 2003.4893)" class="st3 st1 st2">•</text>
<text transform="matrix(1 0 0 1 126.1836 1920.7876)" class="st3 st1 st2">•</text>
<text transform="matrix(1 0 0 1 126.1836 1871.6816)" class="st3 st1 st2">•</text>
<text transform="matrix(1 0 0 1 126.1836 1786.3945)" class="st3 st1 st2">•</text>
<text transform="matrix(1 0 0 1 126.1836 1703.6914)" class="st3 st1 st2">•</text>
<text transform="matrix(1 0 0 1 126.1836 1478.8408)" class="st3 st1 st2">•</text>
<text transform="matrix(1 0 0 1 126.1836 1427.1523)" class="st3 st1 st2">•</text>
<text transform="matrix(1 0 0 1 126.1836 1341.8643)" class="st3 st1 st2">•</text>
<text transform="matrix(1 0 0 1 126.1836 1295.3442)" class="st3 st1 st2">•</text>
<text transform="matrix(1 0 0 1 126.1836 1210.0562)" class="st3 st1 st2">•</text>
<text transform="matrix(1 0 0 1 126.1836 1114.4307)" class="st3 st1 st2">•</text>
<text transform="matrix(1 0 0 1 126.1836 889.5811)" class="st3 st1 st2">•</text>
<text transform="matrix(1 0 0 1 126.1836 840.4761)" class="st3 st1 st2">•</text>
<text transform="matrix(1 0 0 1 126.1836 3282.8037)" class="st3 st1 st2">•</text>
<text transform="matrix(1 0 0 1 126.1836 4148.6064)" class="st3 st1 st2">•</text>
<text transform="matrix(1 0 0 1 126.1836 4184.7871)" class="st3 st1 st2">•</text>
<text transform="matrix(1 0 0 1 126.1836 4220.9707)" class="st3 st1 st2">•</text>
<text transform="matrix(1 0 0 1 126.1836 4257.1533)" class="st3 st1 st2">•</text>
</svg>
