<?xml version="1.0" encoding="UTF-8" standalone="no"?>
<!DOCTYPE svg PUBLIC "-//W3C//DTD SVG 1.1//EN" "http://www.w3.org/Graphics/SVG/1.1/DTD/svg11.dtd">
<svg version="1.1" xmlns="http://www.w3.org/2000/svg" xmlns:xlink="http://www.w3.org/1999/xlink" preserveAspectRatio="xMidYMid meet" viewBox="0 0 55.3 50" width="55.3" height="50"><defs><path d="M37.62 18.73C34.16 18.73 31.35 21.54 31.35 25C31.35 28.46 34.16 31.27 37.62 31.27C41.09 31.27 43.89 28.46 43.89 25C43.89 21.54 41.09 18.73 37.62 18.73Z" id="a8QyJFR0qi"></path><path d="M13.2 19.65C13.9 16.44 15.22 13.46 17.02 10.84C16.37 10.84 11.19 10.84 10.54 10.84C7.55 10.84 5.13 8.41 5.13 5.43C5.13 2.44 7.55 0.02 10.54 0.02C10.54 0.02 10.54 0.01 10.54 0L37.62 0C37.62 0 37.62 0 37.62 0C44.53 0 50.78 2.8 55.3 7.32C54.53 8.09 48.4 14.23 47.63 14.99C45.07 12.43 41.53 10.85 37.62 10.85C33.72 10.85 30.18 12.43 27.62 14.99C25.06 17.55 23.47 21.09 23.47 25C23.47 28.91 25.06 32.45 27.62 35.01C30.18 37.57 33.72 39.15 37.62 39.15C41.53 39.15 45.07 37.57 47.63 35.01C48.4 35.77 54.53 41.91 55.3 42.68C50.78 47.2 44.53 50 37.62 50C37.62 50 37.61 50 37.59 50L37.59 50C21.34 50 12.31 50 10.5 50C7.52 50 5.1 47.58 5.1 44.59C5.1 41.61 7.52 39.18 10.5 39.18C10.5 39.18 10.5 39.18 10.5 39.16C14.42 39.16 16.59 39.16 17.02 39.16C15.24 36.58 13.94 33.65 13.23 30.49C12.45 30.49 6.19 30.49 5.41 30.49C2.42 30.49 0 28.07 0 25.08C0 22.09 2.42 19.67 5.41 19.67C5.41 19.67 5.41 19.66 5.41 19.65C10.08 19.65 12.68 19.65 13.2 19.65Z" id="b1zfZlbyhQ"></path></defs><g><g><g><use xlink:href="#a8QyJFR0qi" opacity="1" fill="#00a0e3" fill-opacity="1"></use><g><use xlink:href="#a8QyJFR0qi" opacity="1" fill-opacity="0" stroke="#000000" stroke-width="1" stroke-opacity="0"></use></g></g><g><use xlink:href="#b1zfZlbyhQ" opacity="1" fill="#00a0e3" fill-opacity="1"></use><g><use xlink:href="#b1zfZlbyhQ" opacity="1" fill-opacity="0" stroke="#000000" stroke-width="1" stroke-opacity="0"></use></g></g></g></g></svg>