<?xml version="1.0" encoding="UTF-8" standalone="no" ?><!DOCTYPE svg PUBLIC "-//W3C//DTD SVG 1.1//EN" "http://www.w3.org/Graphics/SVG/1.1/DTD/svg11.dtd"><svg xmlns="http://www.w3.org/2000/svg" xmlns:xlink="http://www.w3.org/1999/xlink" version="1.1" width="1105" height="834" viewBox="0 0 1105 834" xml:space="preserve"><desc>Created with Fabric.js 1.7.19</desc><defs></defs><rect x="0" y="0" width="1105" height="834" fill="#000000"></rect><g style="stroke: none; stroke-width: 1; stroke-dasharray: none; stroke-linecap: butt; stroke-linejoin: miter; stroke-miterlimit: 10; fill: none; fill-rule: nonzero; opacity: 1" transform="translate(0 0)" ><path d="M 0.5 0.5 L 1104.5 0.5 L 1104.5 768.5 L 0.5 768.5 Z" style="stroke:#000000;stroke-opacity:1; stroke-opacity: 0; stroke-width: 1; stroke-dasharray: none; stroke-linecap: butt; stroke-linejoin: miter; stroke-miterlimit: 10;fill:#000000;fill-opacity:1; fill-opacity: 0; fill-rule: nonzero; opacity: 1" transform="" stroke-linecap="round" /><path d="M 552.5 440 L 496.2856056242826 248.4539861079057 A 300 195 0 0 1 552.4999999999999 245 L 552.5 440 Z" style="stroke: none; stroke-width: 1; stroke-dasharray: none; stroke-linecap: butt; stroke-linejoin: miter; stroke-miterlimit: 10;fill:#7A7A7A;fill-opacity:1; fill-rule: nonzero; opacity: 1" transform=" matrix(1 0 0 1 0 0) " stroke-linecap="round" /><path d="M 552.5 440 L 496.2856056242826 248.4539861079057 A 300 195 0 0 1 552.4999999999999 245 L 552.5 440 Z" style="stroke: none; stroke-width: 1; stroke-dasharray: none; stroke-linecap: butt; stroke-linejoin: miter; stroke-miterlimit: 10;fill:#7A7A7A;fill-opacity:1; fill-rule: nonzero; opacity: 1" transform=" matrix(1 0 0 1 0 -10) " stroke-linecap="round" /><path d="M 552.5 440 L 496.2856056242826 248.4539861079057 A 300 195 0 0 1 552.4999999999999 245 L 552.5 440 Z" style="stroke: none; stroke-width: 1; stroke-dasharray: none; stroke-linecap: butt; stroke-linejoin: miter; stroke-miterlimit: 10;fill:#7A7A7A;fill-opacity:1; fill-rule: nonzero; opacity: 1" transform=" matrix(1 0 0 1 0 -20) " stroke-linecap="round" /><path d="M 552.5 440 L 496.2856056242826 248.4539861079057 A 300 195 0 0 1 552.4999999999999 245 L 552.5 440 Z" style="stroke: none; stroke-width: 1; stroke-dasharray: none; stroke-linecap: butt; stroke-linejoin: miter; stroke-miterlimit: 10;fill:#7A7A7A;fill-opacity:1; fill-rule: nonzero; opacity: 1" transform=" matrix(1 0 0 1 0 -30) " stroke-linecap="round" /><path d="M 552.5 440 L 496.2856056242826 248.4539861079057 A 300 195 0 0 1 552.4999999999999 245 L 552.5 440 Z" style="stroke: none; stroke-width: 1; stroke-dasharray: none; stroke-linecap: butt; stroke-linejoin: miter; stroke-miterlimit: 10;fill:#7A7A7A;fill-opacity:1; fill-rule: nonzero; opacity: 1" transform=" matrix(1 0 0 1 0 -40) " stroke-linecap="round" /><path d="M 552.5 397 L 552.5 440 L 496.2856056242826 248.4539861079057 L 496.2856056242826 205.4539861079057 L 552.5 397 Z" style="stroke: none; stroke-width: 1; stroke-dasharray: none; stroke-linecap: butt; stroke-linejoin: miter; stroke-miterlimit: 10;fill:#7A7A7A;fill-opacity:1; fill-rule: nonzero; opacity: 1" transform=" matrix(1 0 0 1 0 0) " stroke-linecap="round" /><path d="M 552.4999999999999 202 L 552.4999999999999 245 L 552.5 440 L 552.5 397 L 552.4999999999999 202 Z" style="stroke: none; stroke-width: 1; stroke-dasharray: none; stroke-linecap: butt; stroke-linejoin: miter; stroke-miterlimit: 10;fill:#7A7A7A;fill-opacity:1; fill-rule: nonzero; opacity: 1" transform=" matrix(1 0 0 1 0 0) " stroke-linecap="round" /><path d="M 552.5 397 L 496.2856056242826 205.4539861079057 A 300 195 0 0 1 552.4999999999999 202 L 552.5 397 Z" style="stroke:#000000;stroke-opacity:1; stroke-opacity: 0; stroke-width: 5; stroke-dasharray: none; stroke-linecap: butt; stroke-linejoin: miter; stroke-miterlimit: 10;fill:#999999;fill-opacity:1; fill-rule: nonzero; opacity: 1" transform=" matrix(1 0 0 1 0 0) " stroke-linecap="round" /><path d="M 524.5 203.5 L 519.5 168.5 L 511.5 168.5" style="stroke:#7A7272;stroke-opacity:1; stroke-width: 1; stroke-dasharray: none; stroke-linecap: butt; stroke-linejoin: miter; stroke-miterlimit: 10; fill: none; fill-rule: nonzero; opacity: 1" transform=" matrix(1 0 0 1 0 0) " stroke-linecap="round" /><path d="M 552.5 440 L 533.662844141206 634.6152120435129 A 300 195 0 0 1 496.2856056242826 248.4539861079057 L 552.5 440 Z" style="stroke: none; stroke-width: 1; stroke-dasharray: none; stroke-linecap: butt; stroke-linejoin: miter; stroke-miterlimit: 10;fill:#525252;fill-opacity:1; fill-rule: nonzero; opacity: 1" transform=" matrix(1 0 0 1 0 0) " stroke-linecap="round" /><path d="M 552.5 440 L 533.662844141206 634.6152120435129 A 300 195 0 0 1 496.2856056242826 248.4539861079057 L 552.5 440 Z" style="stroke: none; stroke-width: 1; stroke-dasharray: none; stroke-linecap: butt; stroke-linejoin: miter; stroke-miterlimit: 10;fill:#525252;fill-opacity:1; fill-rule: nonzero; opacity: 1" transform=" matrix(1 0 0 1 0 -10) " stroke-linecap="round" /><path d="M 552.5 440 L 533.662844141206 634.6152120435129 A 300 195 0 0 1 496.2856056242826 248.4539861079057 L 552.5 440 Z" style="stroke: none; stroke-width: 1; stroke-dasharray: none; stroke-linecap: butt; stroke-linejoin: miter; stroke-miterlimit: 10;fill:#525252;fill-opacity:1; fill-rule: nonzero; opacity: 1" transform=" matrix(1 0 0 1 0 -20) " stroke-linecap="round" /><path d="M 552.5 440 L 533.662844141206 634.6152120435129 A 300 195 0 0 1 496.2856056242826 248.4539861079057 L 552.5 440 Z" style="stroke: none; stroke-width: 1; stroke-dasharray: none; stroke-linecap: butt; stroke-linejoin: miter; stroke-miterlimit: 10;fill:#525252;fill-opacity:1; fill-rule: nonzero; opacity: 1" transform=" matrix(1 0 0 1 0 -30) " stroke-linecap="round" /><path d="M 552.5 440 L 533.662844141206 634.6152120435129 A 300 195 0 0 1 496.2856056242826 248.4539861079057 L 552.5 440 Z" style="stroke: none; stroke-width: 1; stroke-dasharray: none; stroke-linecap: butt; stroke-linejoin: miter; stroke-miterlimit: 10;fill:#525252;fill-opacity:1; fill-rule: nonzero; opacity: 1" transform=" matrix(1 0 0 1 0 -40) " stroke-linecap="round" /><path d="M 552.5 397 L 552.5 440 L 533.662844141206 634.6152120435129 L 533.662844141206 591.6152120435129 L 552.5 397 Z" style="stroke: none; stroke-width: 1; stroke-dasharray: none; stroke-linecap: butt; stroke-linejoin: miter; stroke-miterlimit: 10;fill:#525252;fill-opacity:1; fill-rule: nonzero; opacity: 1" transform=" matrix(1 0 0 1 0 0) " stroke-linecap="round" /><path d="M 496.2856056242826 205.4539861079057 L 496.2856056242826 248.4539861079057 L 552.5 440 L 552.5 397 L 496.2856056242826 205.4539861079057 Z" style="stroke: none; stroke-width: 1; stroke-dasharray: none; stroke-linecap: butt; stroke-linejoin: miter; stroke-miterlimit: 10;fill:#525252;fill-opacity:1; fill-rule: nonzero; opacity: 1" transform=" matrix(1 0 0 1 0 0) " stroke-linecap="round" /><path d="M 552.5 397 L 533.662844141206 591.6152120435129 A 300 195 0 0 1 496.2856056242826 205.4539861079057 L 552.5 397 Z" style="stroke:#000000;stroke-opacity:1; stroke-opacity: 0; stroke-width: 5; stroke-dasharray: none; stroke-linecap: butt; stroke-linejoin: miter; stroke-miterlimit: 10;fill:#666666;fill-opacity:1; fill-rule: nonzero; opacity: 1" transform=" matrix(1 0 0 1 0 0) " stroke-linecap="round" /><path d="M 253.5 409.5 L 199.5 411.5 L 191.5 411.5" style="stroke:#7A7272;stroke-opacity:1; stroke-width: 1; stroke-dasharray: none; stroke-linecap: butt; stroke-linejoin: miter; stroke-miterlimit: 10; fill: none; fill-rule: nonzero; opacity: 1" transform=" matrix(1 0 0 1 0 0) " stroke-linecap="round" /><path d="M 552.5 440 L 552.5 245 A 300 195 0 1 1 533.662844141206 634.6152120435129 L 552.5 440 Z" style="stroke: none; stroke-width: 1; stroke-dasharray: none; stroke-linecap: butt; stroke-linejoin: miter; stroke-miterlimit: 10;fill:#444444;fill-opacity:1; fill-rule: nonzero; opacity: 1" transform=" matrix(1 0 0 1 0 0) " stroke-linecap="round" /><path d="M 552.5 440 L 552.5 245 A 300 195 0 1 1 533.662844141206 634.6152120435129 L 552.5 440 Z" style="stroke: none; stroke-width: 1; stroke-dasharray: none; stroke-linecap: butt; stroke-linejoin: miter; stroke-miterlimit: 10;fill:#444444;fill-opacity:1; fill-rule: nonzero; opacity: 1" transform=" matrix(1 0 0 1 0 -10) " stroke-linecap="round" /><path d="M 552.5 440 L 552.5 245 A 300 195 0 1 1 533.662844141206 634.6152120435129 L 552.5 440 Z" style="stroke: none; stroke-width: 1; stroke-dasharray: none; stroke-linecap: butt; stroke-linejoin: miter; stroke-miterlimit: 10;fill:#444444;fill-opacity:1; fill-rule: nonzero; opacity: 1" transform=" matrix(1 0 0 1 0 -20) " stroke-linecap="round" /><path d="M 552.5 440 L 552.5 245 A 300 195 0 1 1 533.662844141206 634.6152120435129 L 552.5 440 Z" style="stroke: none; stroke-width: 1; stroke-dasharray: none; stroke-linecap: butt; stroke-linejoin: miter; stroke-miterlimit: 10;fill:#444444;fill-opacity:1; fill-rule: nonzero; opacity: 1" transform=" matrix(1 0 0 1 0 -30) " stroke-linecap="round" /><path d="M 552.5 440 L 552.5 245 A 300 195 0 1 1 533.662844141206 634.6152120435129 L 552.5 440 Z" style="stroke: none; stroke-width: 1; stroke-dasharray: none; stroke-linecap: butt; stroke-linejoin: miter; stroke-miterlimit: 10;fill:#444444;fill-opacity:1; fill-rule: nonzero; opacity: 1" transform=" matrix(1 0 0 1 0 -40) " stroke-linecap="round" /><path d="M 552.5 397 L 552.5 440 L 552.5 245 L 552.5 202 L 552.5 397 Z" style="stroke: none; stroke-width: 1; stroke-dasharray: none; stroke-linecap: butt; stroke-linejoin: miter; stroke-miterlimit: 10;fill:#444444;fill-opacity:1; fill-rule: nonzero; opacity: 1" transform=" matrix(1 0 0 1 0 0) " stroke-linecap="round" /><path d="M 533.662844141206 591.6152120435129 L 533.662844141206 634.6152120435129 L 552.5 440 L 552.5 397 L 533.662844141206 591.6152120435129 Z" style="stroke: none; stroke-width: 1; stroke-dasharray: none; stroke-linecap: butt; stroke-linejoin: miter; stroke-miterlimit: 10;fill:#444444;fill-opacity:1; fill-rule: nonzero; opacity: 1" transform=" matrix(1 0 0 1 0 0) " stroke-linecap="round" /><path d="M 552.5 397 L 552.5 202 A 300 195 0 1 1 533.662844141206 591.6152120435129 L 552.5 397 Z" style="stroke:#000000;stroke-opacity:1; stroke-opacity: 0; stroke-width: 5; stroke-dasharray: none; stroke-linecap: butt; stroke-linejoin: miter; stroke-miterlimit: 10;fill:#555555;fill-opacity:1; fill-rule: nonzero; opacity: 1" transform=" matrix(1 0 0 1 0 0) " stroke-linecap="round" /><path d="M 852.5 403.5 L 906.5 404.5 L 914.5 404.5" style="stroke:#7A7272;stroke-opacity:1; stroke-width: 1; stroke-dasharray: none; stroke-linecap: butt; stroke-linejoin: miter; stroke-miterlimit: 10; fill: none; fill-rule: nonzero; opacity: 1" transform=" matrix(1 0 0 1 0 0) " stroke-linecap="round" /><g transform=" matrix(1 0 0 1 918 404) "><text xml:space="preserve" font-family="segoe ui" font-size="24" font-weight="normal" style="stroke: none; stroke-width: 1; stroke-dasharray: none; stroke-linecap: butt; stroke-linejoin: miter; stroke-miterlimit: 10;fill:#7A7272;fill-opacity:1; fill-rule: nonzero; opacity: 1; white-space: pre" ><tspan x="0.5" y="15.82" fill="rgba(122,114,114,1)">Phishing: 51%</tspan></text></g><g transform=" matrix(1 0 0 1 187 411) "><text xml:space="preserve" font-family="segoe ui" font-size="24" font-weight="normal" style="stroke: none; stroke-width: 1; stroke-dasharray: none; stroke-linecap: butt; stroke-linejoin: miter; stroke-miterlimit: 10;fill:#7A7272;fill-opacity:1; fill-rule: nonzero; opacity: 1; white-space: pre" ><tspan x="-128.88" y="15.82" fill="rgba(220,220,220,1)">Exploit: 46%</tspan></text></g><g transform=" matrix(1 0 0 1 507 168) "><text xml:space="preserve" font-family="segoe ui" font-size="24" font-weight="normal" style="stroke: none; stroke-width: 1; stroke-dasharray: none; stroke-linecap: butt; stroke-linejoin: miter; stroke-miterlimit: 10;fill:#7A7272;fill-opacity:1; fill-rule: nonzero; opacity: 1; white-space: pre" ><tspan x="-98.49" y="15.82" fill="rgba(122,114,114,1)">Hack: 3%</tspan></text></g><g transform=" matrix(1 0 0 1 553 20) "><text xml:space="preserve" font-family="segoe ui" font-size="40" font-weight="bold" style="stroke: none; stroke-width: 1; stroke-dasharray: none; stroke-linecap: butt; stroke-linejoin: miter; stroke-miterlimit: 10;fill:#7A7272;fill-opacity:1; fill-rule: nonzero; opacity: 1; white-space: pre" ><tspan x="-326.52" y="26.7" fill="rgba(122,114,114,1)">Cybercrime Breakdown by Type</tspan></text></g></g><g style="stroke: none; stroke-width: 1; stroke-dasharray: none; stroke-linecap: butt; stroke-linejoin: miter; stroke-miterlimit: 10; fill: none; fill-rule: nonzero; opacity: 1" transform="translate(0 769)" ><path d="M 0.5 0.5 L 1104.5 0.5 L 1104.5 54.5 L 0.5 54.5 Z" style="stroke:#000000;stroke-opacity:1; stroke-opacity: 0; stroke-width: 1; stroke-dasharray: none; stroke-linecap: butt; stroke-linejoin: miter; stroke-miterlimit: 10;fill:#000000;fill-opacity:1; fill-opacity: 0; fill-rule: nonzero; opacity: 1" transform=" matrix(1 0 0 1 0 0) " stroke-linecap="round" /><path d="M -9.5 11.5 L 11.5 11.5 L 11.5 -9.5 L -9.5 -9.5 Z" style="stroke:#555555;stroke-opacity:1; stroke-width: 3; stroke-dasharray: none; stroke-linecap: butt; stroke-linejoin: miter; stroke-miterlimit: 10;fill:#555555;fill-opacity:1; fill-rule: nonzero; opacity: 1" transform=" matrix(1 0 0 1 359 19) " stroke-linecap="round" /><path d="M -7.5 -7.5 L 9.5 9.5" style="stroke:#000000;stroke-opacity:1; stroke-opacity: 0; stroke-width: 3; stroke-dasharray: none; stroke-linecap: butt; stroke-linejoin: miter; stroke-miterlimit: 10; fill: none; fill-rule: nonzero; opacity: 0" transform=" matrix(1 0 0 1 359 19) " stroke-linecap="round" /><path d="M -7.5 9.5 L 9.5 -7.5" style="stroke:#000000;stroke-opacity:1; stroke-opacity: 0; stroke-width: 3; stroke-dasharray: none; stroke-linecap: butt; stroke-linejoin: miter; stroke-miterlimit: 10; fill: none; fill-rule: nonzero; opacity: 0" transform=" matrix(1 0 0 1 359 19) " stroke-linecap="round" /><g transform=" matrix(1 0 0 1 384 18) "><text xml:space="preserve" font-family="segoe ui" font-size="24" font-weight="normal" style="stroke: none; stroke-width: 1; stroke-dasharray: none; stroke-linecap: butt; stroke-linejoin: miter; stroke-miterlimit: 10;fill:#000000;fill-opacity:1; fill-rule: nonzero; opacity: 1; white-space: pre" ><tspan x="0.5" y="15.82" fill="rgba(220,220,220,1)">Phishing</tspan></text></g><rect x="21" y="0" rx="0" ry="0" width="90.125" height="31" style="stroke: none; stroke-width: 0; stroke-dasharray: none; stroke-linecap: butt; stroke-linejoin: miter; stroke-miterlimit: 10;fill:#000000;fill-opacity:1; fill-opacity: 0.005; fill-rule: nonzero; opacity: 1" transform=" matrix(1 0 0 1 348 10) "/><path d="M -9.5 11.5 L 11.5 11.5 L 11.5 -9.5 L -9.5 -9.5 Z" style="stroke:#666666;stroke-opacity:1; stroke-width: 3; stroke-dasharray: none; stroke-linecap: butt; stroke-linejoin: miter; stroke-miterlimit: 10;fill:#666666;fill-opacity:1; fill-rule: nonzero; opacity: 1" transform=" matrix(1 0 0 1 509 19) " stroke-linecap="round" /><path d="M -7.5 -7.5 L 9.5 9.5" style="stroke:#000000;stroke-opacity:1; stroke-opacity: 0; stroke-width: 3; stroke-dasharray: none; stroke-linecap: butt; stroke-linejoin: miter; stroke-miterlimit: 10; fill: none; fill-rule: nonzero; opacity: 0" transform=" matrix(1 0 0 1 509 19) " stroke-linecap="round" /><path d="M -7.5 9.5 L 9.5 -7.5" style="stroke:#000000;stroke-opacity:1; stroke-opacity: 0; stroke-width: 3; stroke-dasharray: none; stroke-linecap: butt; stroke-linejoin: miter; stroke-miterlimit: 10; fill: none; fill-rule: nonzero; opacity: 0" transform=" matrix(1 0 0 1 509 19) " stroke-linecap="round" /><g transform=" matrix(1 0 0 1 534 18) "><text xml:space="preserve" font-family="segoe ui" font-size="24" font-weight="normal" style="stroke: none; stroke-width: 1; stroke-dasharray: none; stroke-linecap: butt; stroke-linejoin: miter; stroke-miterlimit: 10;fill:#000000;fill-opacity:1; fill-rule: nonzero; opacity: 1; white-space: pre" ><tspan x="0.5" y="15.82" fill="rgba(220,220,220,1)">Exploit</tspan></text></g><rect x="21" y="0" rx="0" ry="0" width="90.125" height="31" style="stroke: none; stroke-width: 0; stroke-dasharray: none; stroke-linecap: butt; stroke-linejoin: miter; stroke-miterlimit: 10;fill:#000000;fill-opacity:1; fill-opacity: 0.005; fill-rule: nonzero; opacity: 1" transform=" matrix(1 0 0 1 498 10) "/><path d="M -9.5 11.5 L 11.5 11.5 L 11.5 -9.5 L -9.5 -9.5 Z" style="stroke:#999999;stroke-opacity:1; stroke-width: 3; stroke-dasharray: none; stroke-linecap: butt; stroke-linejoin: miter; stroke-miterlimit: 10;fill:#999999;fill-opacity:1; fill-rule: nonzero; opacity: 1" transform=" matrix(1 0 0 1 658 19) " stroke-linecap="round" /><path d="M -7.5 -7.5 L 9.5 9.5" style="stroke:#000000;stroke-opacity:1; stroke-opacity: 0; stroke-width: 3; stroke-dasharray: none; stroke-linecap: butt; stroke-linejoin: miter; stroke-miterlimit: 10; fill: none; fill-rule: nonzero; opacity: 0" transform=" matrix(1 0 0 1 658 19) " stroke-linecap="round" /><path d="M -7.5 9.5 L 9.5 -7.5" style="stroke:#000000;stroke-opacity:1; stroke-opacity: 0; stroke-width: 3; stroke-dasharray: none; stroke-linecap: butt; stroke-linejoin: miter; stroke-miterlimit: 10; fill: none; fill-rule: nonzero; opacity: 0" transform=" matrix(1 0 0 1 658 19) " stroke-linecap="round" /><g transform=" matrix(1 0 0 1 683 18) "><text xml:space="preserve" font-family="segoe ui" font-size="24" font-weight="normal" style="stroke: none; stroke-width: 1; stroke-dasharray: none; stroke-linecap: butt; stroke-linejoin: miter; stroke-miterlimit: 10;fill:#000000;fill-opacity:1; fill-rule: nonzero; opacity: 1; white-space: pre" ><tspan x="0.5" y="15.82" fill="rgba(230,230,230,1)">Hack</tspan></text></g><rect x="21" y="0" rx="0" ry="0" width="90.125" height="31" style="stroke: none; stroke-width: 0; stroke-dasharray: none; stroke-linecap: butt; stroke-linejoin: miter; stroke-miterlimit: 10;fill:#000000;fill-opacity:1; fill-opacity: 0.005; fill-rule: nonzero; opacity: 1" transform=" matrix(1 0 0 1 647 10) "/></g></svg>