<?xml version="1.0" encoding="utf-8"?>
<!-- Generator: Adobe Illustrator 19.1.1, SVG Export Plug-In . SVG Version: 6.00 Build 0)  -->
<svg version="1.1" xmlns="http://www.w3.org/2000/svg" xmlns:xlink="http://www.w3.org/1999/xlink" x="0px" y="0px"
	 viewBox="0 0 1920 1295" style="enable-background:new 0 0 1920 1295;" xml:space="preserve">
<style type="text/css">
	.st0{fill:none;}
	.st1{fill:none;stroke:#fff;stroke-width:3;stroke-miterlimit:10;}
	.st2{fill:none;stroke:#fff;stroke-width:3;stroke-miterlimit:10;stroke-dasharray:10,5;}
	
		.st3{fill:none;stroke:#fff;stroke-width:3;stroke-miterlimit:10;stroke-dasharray:10,5;}
	.st4{fill:none;stroke:#fff;stroke-width:3;stroke-miterlimit:10;stroke-dasharray:10,5;}
	
		.st5{fill:none;stroke:#fff;stroke-width:3;stroke-miterlimit:10;stroke-dasharray:10,5;}
	.st6{display:none;}
	.s {}
	.s1 {fill: none; stroke:#fff;stroke-width:2;stroke-dasharray:10,3}
</style>
	<circle cx="270" cy="502" r="11" class="s1" />
	<circle cx="270" cy="502" r="6" class="s" fill="#fff" />
	<text x="270" y="450" fill="#fff">2008</text> 
<g id="Слой_1">
	<g>
		<g>
			<path class="st0" d="M3.2,195.7c0,0,150.9,401.8,562,363c411.1-38.8,615.4-386.7,879-263c182.6,62.3,268.4,400.7,35,500.5
				c-233.4,99.8-1095.3-250.8-1179,138.5c-83.7,389.4,567.9,388.6,767,301c470.1-204,788.5-123.4,955,158
				c166.5,281.4-1710,88-1710,88l-367-50L3.2,195.7z"/>
			<g>
				<g>
					<path class="st1" d="M2.9,201.7l0.3-6c0,0,0.7,1.9,2.2,5.6"/>
					<path class="st2" d="M10.2,212.3c5.2,11.5,13.3,28.3,24.6,48.4"/>
					<path class="st3" d="M39.8,269.5c66.2,114,227.5,317.3,525.4,289.2c411.1-38.8,615.4-386.7,879-263
						c182.6,62.3,268.4,400.7,35,500.5S383.9,545.3,300.2,934.7c-83.7,389.4,567.9,388.6,767,301c470.1-204,788.5-123.4,955,158
						c166.5,281.4-1710,88-1710,88l-351.1-47.8"/>
					<line class="st5" x1="-51" y1="1349.5" x2="2.4" y2="211.7"/>
				</g>
			</g>
		</g>
	</g>
</g>
<g id="Слой_2" class="st6">
</g>
</svg>
