<?xml version="1.0" encoding="UTF-8"?>
<!DOCTYPE svg PUBLIC "-//W3C//DTD SVG 1.1//EN" "http://www.w3.org/Graphics/SVG/1.1/DTD/svg11.dtd">
<!-- Creator: CorelDRAW 2017 -->
<svg xmlns="http://www.w3.org/2000/svg" xml:space="preserve" width="210mm" height="210mm" version="1.1" style="shape-rendering:geometricPrecision; text-rendering:geometricPrecision; image-rendering:optimizeQuality; fill-rule:evenodd; clip-rule:evenodd"
viewBox="0 0 21000 21000"
 xmlns:xlink="http://www.w3.org/1999/xlink">
 <defs>
  <style type="text/css">
   <![CDATA[
    //.fil0 {fill:url(#id0)}
    .fil0 {fill:#000}
   ]]>
  </style>
  <!--<linearGradient id="id0" gradientUnits="userSpaceOnUse" x1="12387.38" y1="2604.25" x2="8946.5" y2="19089.62">-->
   <!--<stop offset="0" style="stop-opacity:1; stop-color:#0AB2C6"/>-->
   <!--<stop offset="1" style="stop-opacity:1; stop-color:#333B8C"/>-->
  <!--</linearGradient>-->
 </defs>
 <g id="Слой_x0020_1">
  <metadata id="CorelCorpID_0Corel-Layer"/>
  <path class="fil0" d="M13447.92 8646.74c-1023.54,0 -1853.29,829.74 -1853.29,1853.27 0,1023.53 829.75,1853.27 1853.29,1853.27 1023.51,0 1853.26,-829.74 1853.26,-1853.27 0,-1023.53 -829.75,-1853.27 -1853.26,-1853.27zm-9521.79 272.45l2303.15 0c206.99,-949.38 596.6,-1830.56 1130.05,-2605l-1916.9 0c-882.65,0 -1598.17,-715.51 -1598.17,-1598.16 0,-882.67 715.52,-1598.18 1598.17,-1598.18l0 -6.03 8005.47 0 0.02 0c2040.03,0 3887.04,827.06 5224.11,2164.05l-2266.49 2266.49c-756.83,-756.76 -1802.51,-1224.91 -2957.64,-1224.91 -1155.12,0 -2200.81,468.15 -2957.63,1224.91 -756.8,756.82 -1224.96,1802.55 -1224.96,2957.63 0,1155.14 468.16,2200.83 1224.96,2957.65 756.82,756.82 1802.51,1224.95 2957.63,1224.95 1155.13,0 2200.83,-468.13 2957.64,-1224.95l2266.49 2266.52c-1337.07,1337.06 -3184.1,2164.02 -5224.13,2164.02l-10.19 -0.06 0 0.06 -8005.49 0c-882.65,0 -1598.16,-715.52 -1598.16,-1598.16 0,-882.67 715.51,-1598.19 1598.16,-1598.19l0 -6.02 1927.09 0c-525.76,-763.35 -911.74,-1630.42 -1120.9,-2564.24l-2312.28 0c-882.64,0 -1598.16,-715.52 -1598.16,-1598.17 0,-882.66 715.52,-1598.18 1598.16,-1598.18l0 -6.03z"/>
 </g>
</svg>
